<?xml version="1.0" encoding="UTF-8" standalone="no"?>
<!-- Created with Inkscape (http://www.inkscape.org/) -->

<svg
   xmlns:dc="http://purl.org/dc/elements/1.1/"
   xmlns:cc="http://creativecommons.org/ns#"
   xmlns:rdf="http://www.w3.org/1999/02/22-rdf-syntax-ns#"
   xmlns:svg="http://www.w3.org/2000/svg"
   xmlns="http://www.w3.org/2000/svg"
   xmlns:xlink="http://www.w3.org/1999/xlink"
   xmlns:sodipodi="http://sodipodi.sourceforge.net/DTD/sodipodi-0.dtd"
   xmlns:inkscape="http://www.inkscape.org/namespaces/inkscape"
   id="svg4326"
   version="1.1"
   inkscape:version="0.91pre0 r13343"
   width="256"
   height="256"
   sodipodi:docname="changes-f21.svg"
   inkscape:export-filename="/home/gnokii/Documents/Fedora/badges/changes-f21.png"
   inkscape:export-xdpi="90"
   inkscape:export-ydpi="90">
  <metadata
     id="metadata4332">
    <rdf:RDF>
      <cc:Work
         rdf:about="">
        <dc:format>image/svg+xml</dc:format>
        <dc:type
           rdf:resource="http://purl.org/dc/dcmitype/StillImage" />
        <dc:title></dc:title>
      </cc:Work>
    </rdf:RDF>
  </metadata>
  <defs
     id="defs4330">
    <linearGradient
       id="linearGradient49015">
      <stop
         style="stop-color:#ffffff;stop-opacity:1;"
         offset="0"
         id="stop49017" />
      <stop
         style="stop-color:#b69aca;stop-opacity:1"
         offset="1"
         id="stop49019" />
    </linearGradient>
    <linearGradient
       id="linearGradient38974">
      <stop
         offset="0"
         style="stop-color:#666"
         id="stop38976" />
      <stop
         offset=".52757"
         style="stop-color:#666"
         id="stop38978" />
      <stop
         offset=".78490"
         style="stop-color:white"
         id="stop38980" />
      <stop
         offset=".90257"
         style="stop-color:#999"
         id="stop38982" />
      <stop
         offset="1"
         style="stop-color:#ccc"
         id="stop38984" />
    </linearGradient>
    <linearGradient
       id="linearGradient38936">
      <stop
         offset="0"
         style="stop-color:#666"
         id="stop38938" />
      <stop
         offset=".125"
         style="stop-color:#666"
         id="stop38948" />
      <stop
         offset=".38233"
         style="stop-color:white"
         id="stop38946" />
      <stop
         offset=".5"
         style="stop-color:#999"
         id="stop38944" />
      <stop
         offset="1"
         style="stop-color:#ccc"
         id="stop38940" />
    </linearGradient>
    <linearGradient
       id="linearGradient38832">
      <stop
         offset="0"
         style="stop-color:black"
         id="stop38834" />
      <stop
         offset=".5"
         style="stop-color:#02264b"
         id="stop38840" />
      <stop
         offset="1"
         style="stop-color:#04284c"
         id="stop38836" />
    </linearGradient>
    <linearGradient
       id="linearGradient3863">
      <stop
         offset="0"
         style="stop-color:#ff1b24"
         id="stop3865" />
      <stop
         offset=".125"
         style="stop-color:#ee2026;stop-opacity:.99608"
         id="stop3867" />
      <stop
         offset=".375"
         style="stop-color:#ee002b;stop-opacity:.98824"
         id="stop3869" />
      <stop
         offset=".63542"
         style="stop-color:#ee322e;stop-opacity:.98995"
         id="stop3871" />
      <stop
         offset="1"
         style="stop-color:#ee1b24;stop-opacity:.99497"
         id="stop3873-6" />
    </linearGradient>
    <clipPath
       clipPathUnits="userSpaceOnUse"
       id="clipPath6250">
      <path
         inkscape:export-ydpi="90"
         inkscape:export-xdpi="90"
         inkscape:export-filename="/home/duffy/Documents/Work/Projects/FedBadges/Badges/flock-2013-attendee.png"
         style="display:inline;opacity:1;fill:url(#radialGradient6254);fill-opacity:1;stroke:none"
         id="path6252"
         d="m 186.30909,3283.3739 c 0,-25.739 -20.86442,-46.6049 -46.60253,-46.6049 -25.72614,0 -46.582327,20.8488 -46.600997,46.5721 l -0.0014,-0 0,36.0645 0.0014,0 c 0.01448,5.8405 4.750521,10.5688 10.594577,10.5688 0.0163,0 0.0328,-0 0.05,-0 l 0.003,0 35.97137,0 0,0 c 25.7307,-0.01 46.58466,-20.8689 46.58466,-46.6005 z"
         inkscape:connector-curvature="0"
         sodipodi:nodetypes="csccccscccccc" />
    </clipPath>
    <radialGradient
       inkscape:collect="always"
       xlink:href="#linearGradient49015"
       id="radialGradient6254"
       gradientUnits="userSpaceOnUse"
       gradientTransform="matrix(0.86828629,0.00337311,-0.0034216,0.88076962,28.418185,3171.4521)"
       cx="128.66902"
       cy="126.5775"
       fx="128.66902"
       fy="126.5775"
       r="75.697253" />
    <clipPath
       clipPathUnits="userSpaceOnUse"
       id="clipPath17736-5">
      <path
         sodipodi:nodetypes="csccccscccccc"
         inkscape:connector-curvature="0"
         d="m 172.91709,3282.1214 c 0,-19.6946 -15.96471,-35.6604 -35.65859,-35.6604 -19.68471,0 -35.64312,15.9527 -35.6574,35.6352 l -0.001,-9e-4 0,27.5953 0.001,9e-4 c 0.0111,4.4689 3.63492,8.0869 8.10658,8.0869 0.0125,0 0.0251,0 0.0383,0 l 0.002,0 27.52399,0 0,0 c 19.68821,-0.01 35.64491,-15.9682 35.64491,-35.6571 z"
         id="path17738-1"
         style="display:inline;fill:#d8f5c3;fill-opacity:1;stroke:none"
         inkscape:export-filename="/home/duffy/Documents/Work/Projects/FedBadges/Badges/flock-2013-attendee.png"
         inkscape:export-xdpi="90"
         inkscape:export-ydpi="90" />
    </clipPath>
    <linearGradient
       id="linearGradient4123-3-73">
      <stop
         style="stop-color:#79db32;stop-opacity:1;"
         offset="0"
         id="stop4125-8-69" />
      <stop
         id="stop17721-8"
         offset="0.5"
         style="stop-color:#79db32;stop-opacity:1;" />
      <stop
         style="stop-color:#ffffff;stop-opacity:0"
         offset="1"
         id="stop4127-6-83" />
    </linearGradient>
    <linearGradient
       id="linearGradient18405">
      <stop
         style="stop-color:#79db32;stop-opacity:1;"
         offset="0"
         id="stop18407" />
      <stop
         id="stop18409"
         offset="0.5"
         style="stop-color:#79db32;stop-opacity:1;" />
      <stop
         style="stop-color:#ffffff;stop-opacity:0"
         offset="1"
         id="stop18411" />
    </linearGradient>
    <linearGradient
       id="linearGradient18414">
      <stop
         style="stop-color:#79db32;stop-opacity:1;"
         offset="0"
         id="stop18416" />
      <stop
         id="stop18418"
         offset="0.5"
         style="stop-color:#79db32;stop-opacity:1;" />
      <stop
         style="stop-color:#ffffff;stop-opacity:0"
         offset="1"
         id="stop18420" />
    </linearGradient>
    <linearGradient
       id="linearGradient18423">
      <stop
         style="stop-color:#79db32;stop-opacity:1;"
         offset="0"
         id="stop18425" />
      <stop
         id="stop18427"
         offset="0.5"
         style="stop-color:#79db32;stop-opacity:1;" />
      <stop
         style="stop-color:#ffffff;stop-opacity:0"
         offset="1"
         id="stop18429" />
    </linearGradient>
    <linearGradient
       id="linearGradient18432">
      <stop
         style="stop-color:#79db32;stop-opacity:1;"
         offset="0"
         id="stop18434" />
      <stop
         id="stop18436"
         offset="0.5"
         style="stop-color:#79db32;stop-opacity:1;" />
      <stop
         style="stop-color:#ffffff;stop-opacity:0"
         offset="1"
         id="stop18438" />
    </linearGradient>
    <linearGradient
       id="linearGradient18441">
      <stop
         style="stop-color:#79db32;stop-opacity:1;"
         offset="0"
         id="stop18443" />
      <stop
         id="stop18445"
         offset="0.5"
         style="stop-color:#79db32;stop-opacity:1;" />
      <stop
         style="stop-color:#ffffff;stop-opacity:0"
         offset="1"
         id="stop18447" />
    </linearGradient>
    <linearGradient
       id="linearGradient18450">
      <stop
         style="stop-color:#79db32;stop-opacity:1;"
         offset="0"
         id="stop18452" />
      <stop
         id="stop18454"
         offset="0.5"
         style="stop-color:#79db32;stop-opacity:1;" />
      <stop
         style="stop-color:#ffffff;stop-opacity:0"
         offset="1"
         id="stop18456" />
    </linearGradient>
    <linearGradient
       id="linearGradient18459">
      <stop
         style="stop-color:#79db32;stop-opacity:1;"
         offset="0"
         id="stop18461" />
      <stop
         id="stop18463"
         offset="0.5"
         style="stop-color:#79db32;stop-opacity:1;" />
      <stop
         style="stop-color:#ffffff;stop-opacity:0"
         offset="1"
         id="stop18465" />
    </linearGradient>
    <linearGradient
       id="linearGradient18468">
      <stop
         style="stop-color:#79db32;stop-opacity:1;"
         offset="0"
         id="stop18470" />
      <stop
         id="stop18472"
         offset="0.5"
         style="stop-color:#79db32;stop-opacity:1;" />
      <stop
         style="stop-color:#ffffff;stop-opacity:0"
         offset="1"
         id="stop18474" />
    </linearGradient>
    <linearGradient
       id="linearGradient18477">
      <stop
         style="stop-color:#79db32;stop-opacity:1;"
         offset="0"
         id="stop18479" />
      <stop
         id="stop18481"
         offset="0.5"
         style="stop-color:#79db32;stop-opacity:1;" />
      <stop
         style="stop-color:#ffffff;stop-opacity:0"
         offset="1"
         id="stop18483" />
    </linearGradient>
    <linearGradient
       id="linearGradient18486">
      <stop
         style="stop-color:#79db32;stop-opacity:1;"
         offset="0"
         id="stop18488" />
      <stop
         id="stop18490"
         offset="0.5"
         style="stop-color:#79db32;stop-opacity:1;" />
      <stop
         style="stop-color:#ffffff;stop-opacity:0"
         offset="1"
         id="stop18492" />
    </linearGradient>
    <linearGradient
       id="linearGradient18495">
      <stop
         style="stop-color:#79db32;stop-opacity:1;"
         offset="0"
         id="stop18497" />
      <stop
         id="stop18499"
         offset="0.5"
         style="stop-color:#79db32;stop-opacity:1;" />
      <stop
         style="stop-color:#ffffff;stop-opacity:0"
         offset="1"
         id="stop18501" />
    </linearGradient>
    <inkscape:path-effect
       effect="spiro"
       id="path-effect3625-5-4-1-4"
       is_visible="true" />
    <inkscape:path-effect
       effect="spiro"
       id="path-effect3625-5-4-1"
       is_visible="true" />
    <inkscape:path-effect
       effect="spiro"
       id="path-effect3625-5-7-8"
       is_visible="true" />
    <inkscape:path-effect
       effect="spiro"
       id="path-effect3625-5-7"
       is_visible="true" />
    <inkscape:path-effect
       effect="spiro"
       id="path-effect3625-5-7-4-0"
       is_visible="true" />
    <inkscape:path-effect
       effect="spiro"
       id="path-effect3625-5-7-4"
       is_visible="true" />
    <inkscape:path-effect
       effect="spiro"
       id="path-effect3625-4"
       is_visible="true" />
    <inkscape:path-effect
       effect="spiro"
       id="path-effect3625-5"
       is_visible="true" />
    <inkscape:path-effect
       effect="spiro"
       id="path-effect3625-5-4"
       is_visible="true" />
    <inkscape:path-effect
       effect="spiro"
       id="path-effect3625-5-7-4-0-3"
       is_visible="true" />
    <clipPath
       clipPathUnits="userSpaceOnUse"
       id="clipPath17736">
      <path
         sodipodi:nodetypes="csccccscccccc"
         inkscape:connector-curvature="0"
         d="m 172.91709,3282.1214 c 0,-19.6946 -15.96471,-35.6604 -35.65859,-35.6604 -19.68471,0 -35.64312,15.9527 -35.6574,35.6352 l -0.001,-9e-4 0,27.5953 0.001,9e-4 c 0.0111,4.4689 3.63492,8.0869 8.10658,8.0869 0.0125,0 0.0251,0 0.0383,0 l 0.002,0 27.52399,0 0,0 c 19.68821,-0.01 35.64491,-15.9682 35.64491,-35.6571 z"
         id="path17738"
         style="display:inline;fill:#d8f5c3;fill-opacity:1;stroke:none"
         inkscape:export-filename="/home/duffy/Documents/Work/Projects/FedBadges/Badges/flock-2013-attendee.png"
         inkscape:export-xdpi="90"
         inkscape:export-ydpi="90" />
    </clipPath>
    <linearGradient
       id="linearGradient4123-3-19">
      <stop
         style="stop-color:#79db32;stop-opacity:1;"
         offset="0"
         id="stop4125-8-3" />
      <stop
         id="stop17721"
         offset="0.5"
         style="stop-color:#79db32;stop-opacity:1;" />
      <stop
         style="stop-color:#ffffff;stop-opacity:0"
         offset="1"
         id="stop4127-6-7" />
    </linearGradient>
    <linearGradient
       id="linearGradient19883">
      <stop
         style="stop-color:#79db32;stop-opacity:1;"
         offset="0"
         id="stop19885" />
      <stop
         id="stop19887"
         offset="0.5"
         style="stop-color:#79db32;stop-opacity:1;" />
      <stop
         style="stop-color:#ffffff;stop-opacity:0"
         offset="1"
         id="stop19889" />
    </linearGradient>
    <linearGradient
       id="linearGradient19892">
      <stop
         style="stop-color:#79db32;stop-opacity:1;"
         offset="0"
         id="stop19894" />
      <stop
         id="stop19896"
         offset="0.5"
         style="stop-color:#79db32;stop-opacity:1;" />
      <stop
         style="stop-color:#ffffff;stop-opacity:0"
         offset="1"
         id="stop19898" />
    </linearGradient>
    <linearGradient
       id="linearGradient19901">
      <stop
         style="stop-color:#79db32;stop-opacity:1;"
         offset="0"
         id="stop19903" />
      <stop
         id="stop19905"
         offset="0.5"
         style="stop-color:#79db32;stop-opacity:1;" />
      <stop
         style="stop-color:#ffffff;stop-opacity:0"
         offset="1"
         id="stop19907" />
    </linearGradient>
    <linearGradient
       id="linearGradient19910">
      <stop
         style="stop-color:#79db32;stop-opacity:1;"
         offset="0"
         id="stop19912" />
      <stop
         id="stop19914"
         offset="0.5"
         style="stop-color:#79db32;stop-opacity:1;" />
      <stop
         style="stop-color:#ffffff;stop-opacity:0"
         offset="1"
         id="stop19916" />
    </linearGradient>
    <linearGradient
       id="linearGradient19919">
      <stop
         style="stop-color:#79db32;stop-opacity:1;"
         offset="0"
         id="stop19921" />
      <stop
         id="stop19923"
         offset="0.5"
         style="stop-color:#79db32;stop-opacity:1;" />
      <stop
         style="stop-color:#ffffff;stop-opacity:0"
         offset="1"
         id="stop19925" />
    </linearGradient>
    <linearGradient
       id="linearGradient19928">
      <stop
         style="stop-color:#79db32;stop-opacity:1;"
         offset="0"
         id="stop19930" />
      <stop
         id="stop19932"
         offset="0.5"
         style="stop-color:#79db32;stop-opacity:1;" />
      <stop
         style="stop-color:#ffffff;stop-opacity:0"
         offset="1"
         id="stop19934" />
    </linearGradient>
    <linearGradient
       id="linearGradient19937">
      <stop
         style="stop-color:#79db32;stop-opacity:1;"
         offset="0"
         id="stop19939" />
      <stop
         id="stop19941"
         offset="0.5"
         style="stop-color:#79db32;stop-opacity:1;" />
      <stop
         style="stop-color:#ffffff;stop-opacity:0"
         offset="1"
         id="stop19943" />
    </linearGradient>
    <linearGradient
       id="linearGradient19946">
      <stop
         style="stop-color:#79db32;stop-opacity:1;"
         offset="0"
         id="stop19948" />
      <stop
         id="stop19950"
         offset="0.5"
         style="stop-color:#79db32;stop-opacity:1;" />
      <stop
         style="stop-color:#ffffff;stop-opacity:0"
         offset="1"
         id="stop19952" />
    </linearGradient>
    <linearGradient
       id="linearGradient19955">
      <stop
         style="stop-color:#79db32;stop-opacity:1;"
         offset="0"
         id="stop19957" />
      <stop
         id="stop19959"
         offset="0.5"
         style="stop-color:#79db32;stop-opacity:1;" />
      <stop
         style="stop-color:#ffffff;stop-opacity:0"
         offset="1"
         id="stop19961" />
    </linearGradient>
    <linearGradient
       id="linearGradient19964">
      <stop
         style="stop-color:#79db32;stop-opacity:1;"
         offset="0"
         id="stop19966" />
      <stop
         id="stop19968"
         offset="0.5"
         style="stop-color:#79db32;stop-opacity:1;" />
      <stop
         style="stop-color:#ffffff;stop-opacity:0"
         offset="1"
         id="stop19970" />
    </linearGradient>
    <linearGradient
       id="linearGradient19973">
      <stop
         style="stop-color:#79db32;stop-opacity:1;"
         offset="0"
         id="stop19975" />
      <stop
         id="stop19977"
         offset="0.5"
         style="stop-color:#79db32;stop-opacity:1;" />
      <stop
         style="stop-color:#ffffff;stop-opacity:0"
         offset="1"
         id="stop19979" />
    </linearGradient>
    <inkscape:path-effect
       effect="spiro"
       id="path-effect3625-8"
       is_visible="true" />
    <inkscape:path-effect
       effect="spiro"
       id="path-effect4818"
       is_visible="true" />
    <inkscape:path-effect
       effect="spiro"
       id="path-effect3625"
       is_visible="true" />
    <inkscape:path-effect
       effect="spiro"
       id="path-effect4827"
       is_visible="true" />
    <clipPath
       clipPathUnits="userSpaceOnUse"
       id="clipPath4698">
      <path
         style="display:inline;fill:url(#linearGradient4702);fill-opacity:1;stroke:none"
         id="path4700"
         d="m 614.0566,2036.8045 c -13.69495,-22.0027 -6.96135,-50.9413 15.04078,-64.6358 21.99183,-13.6882 50.91369,-6.9627 64.61626,15.0167 l 4.1e-4,0 19.18898,30.8297 -4.2e-4,0 c 3.09526,5.0003 1.56245,11.5623 -3.43337,14.6718 -0.0135,0.01 -0.0289,0.016 -0.0436,0.026 l 6.9e-4,0 -30.74995,19.1394 0,0 c -22.00352,13.6836 -50.92873,6.9487 -64.61978,-15.0478 z"
         inkscape:connector-curvature="0" />
    </clipPath>
    <inkscape:path-effect
       effect="spiro"
       id="path-effect4847"
       is_visible="true" />
    <inkscape:path-effect
       effect="spiro"
       id="path-effect4851"
       is_visible="true" />
    <inkscape:path-effect
       effect="spiro"
       id="path-effect2194"
       is_visible="true" />
    <filter
       style="color-interpolation-filters:sRGB"
       inkscape:collect="always"
       id="filter24199">
      <feGaussianBlur
         inkscape:collect="always"
         stdDeviation="0.78000015"
         id="feGaussianBlur24201" />
    </filter>
    <radialGradient
       inkscape:collect="always"
       xlink:href="#linearGradient23612-0"
       id="radialGradient26439"
       cx="148.8791"
       cy="3894.1277"
       fx="148.8791"
       fy="3894.1277"
       r="33.584126"
       gradientTransform="matrix(1.565481,-0.02868137,0.02977769,1.6253201,-14.14643,-2260.806)"
       gradientUnits="userSpaceOnUse" />
    <linearGradient
       id="linearGradient23612-0"
       inkscape:collect="always">
      <stop
         id="stop26433"
         offset="0"
         style="stop-color:#db3279;stop-opacity:1" />
      <stop
         id="stop26435"
         offset="1"
         style="stop-color:#e59728;stop-opacity:0" />
    </linearGradient>
    <clipPath
       clipPathUnits="userSpaceOnUse"
       id="clipPath26597">
      <path
         inkscape:connector-curvature="0"
         d="m 367.79246,4063.7088 c 0,-17.95 -14.5505,-32.5016 -32.4999,-32.5016 -17.941,0 -32.4858,14.5396 -32.4988,32.4787 l -9e-4,-9e-4 0,25.1508 9e-4,9e-4 c 0.01,4.0731 3.3129,7.3705 7.3885,7.3705 0.011,0 0.023,-8e-4 0.035,-8e-4 l 0,8e-4 25.0859,0 0,0 c 17.9461,-0.01 32.48928,-14.5536 32.48928,-32.4984 z"
         id="path26599"
         style="fill:#f3cd98;fill-opacity:1;stroke:none"
         inkscape:export-filename="/home/duffy/Documents/Work/Projects/FedBadges/Badges/irc-speak-up.png"
         inkscape:export-xdpi="90"
         inkscape:export-ydpi="90" />
    </clipPath>
  </defs>
  <sodipodi:namedview
     pagecolor="#ffffff"
     bordercolor="#666666"
     borderopacity="1"
     objecttolerance="10"
     gridtolerance="10"
     guidetolerance="10"
     inkscape:pageopacity="0"
     inkscape:pageshadow="2"
     inkscape:window-width="1366"
     inkscape:window-height="709"
     id="namedview4328"
     showgrid="false"
     inkscape:zoom="1.3037281"
     inkscape:cx="176.72577"
     inkscape:cy="103.83744"
     inkscape:window-x="0"
     inkscape:window-y="27"
     inkscape:window-maximized="1"
     inkscape:current-layer="svg4326"
     showguides="true"
     inkscape:guide-bbox="true">
    <inkscape:grid
       type="xygrid"
       id="grid13754" />
  </sodipodi:namedview>
  <text
     sodipodi:linespacing="125%"
     id="text1861-61"
     y="187.58858"
     x="109.69131"
     style="font-style:normal;font-variant:normal;font-weight:500;font-stretch:normal;font-size:15.87640476px;line-height:125%;font-family:Caslon;-inkscape-font-specification:Caslon Medium;letter-spacing:0px;word-spacing:0px;fill:#ffffff;fill-opacity:1;stroke:#ffffff;stroke-width:0.7719456;stroke-miterlimit:4;stroke-dasharray:none;stroke-opacity:1"
     xml:space="preserve"
     transform="scale(0.99861803,1.0013839)"><tspan
       style="font-family:Comfortaa;-inkscape-font-specification:Comfortaa;fill:#ffffff;fill-opacity:1;stroke:#ffffff;stroke-width:0.7719456;stroke-miterlimit:4;stroke-dasharray:none;stroke-opacity:1"
       y="187.58858"
       x="109.69131"
       id="tspan1863-62"
       sodipodi:role="line" /></text>
  <rect
     y="-2.4602026e-05"
     x="-3.7072755e-07"
     height="256"
     width="256"
     id="rect24361"
     style="color:#000000;display:inline;overflow:visible;visibility:visible;fill:none;stroke:none;stroke-width:1;marker:none;enable-background:accumulate" />
  <path
     inkscape:export-ydpi="90"
     inkscape:export-xdpi="90"
     inkscape:export-filename="/home/duffy/Documents/Work/Projects/FedBadges/Badges/flock-2013-attendee.png"
     transform="matrix(2.5857727,0,0,2.5857727,-117.6492,-195.22136)"
     inkscape:connector-curvature="0"
     d="m 134.00002,125.00183 c 0,-21.53997 -17.46062,-39.00185 -38.999836,-39.00185 -21.529216,0 -38.982968,17.44751 -38.998584,38.97439 l -0.0016,-10e-4 0,30.18098 0.0016,9.9e-4 c 0.01184,4.88773 3.975508,8.84465 8.866181,8.84465 0.01374,0 0.02745,-9.9e-4 0.04187,-9.9e-4 l 0.0024,9.9e-4 30.10304,0 0,0 c 21.533049,-0.009 38.984919,-17.46443 38.984919,-38.99816 z"
     id="path24369"
     style="fill:#db3279;fill-opacity:1;stroke:#58595b;stroke-width:4.50271511;stroke-linejoin:round;stroke-miterlimit:4;stroke-dasharray:none;stroke-opacity:1;filter:url(#filter24199)" />
  <path
     inkscape:export-ydpi="90"
     inkscape:export-xdpi="90"
     inkscape:export-filename="/home/duffy/Documents/Work/Projects/FedBadges/Badges/flock-2013-attendee.png"
     inkscape:connector-curvature="0"
     id="path24371"
     d="m 127.99923,20.819369 c -58.241744,0 -105.535114,47.137745 -105.935893,105.289311 -5.59e-4,0.0814 3.72e-4,0.16058 0,0.2425 a 5.1720624,5.1720624 0 0 0 -0.08076,0.24227 c -1.16e-4,0.0558 4.7e-5,0.10705 0,0.16291 l 0,78.05789 a 5.1720624,5.1720624 0 0 0 0.404038,2.02007 5.1720624,5.1720624 0 0 0 0,0.0815 c 1.112297,13.76047 12.057414,24.57135 25.857722,25.53437 0.08634,0 0.155695,0.0745 0.242409,0.0815 a 5.1720624,5.1720624 0 0 0 0.242432,0.0814 5.1720624,5.1720624 0 0 0 1.373696,0.24227 5.1720624,5.1720624 0 0 0 0.08076,0 l 77.815597,0 a 5.1720624,5.1720624 0 0 0 0.0808,0 c 58.00189,-0.0233 105.01687,-46.81658 105.77424,-104.64302 a 5.1720624,5.1720624 0 0 0 0.0808,-0.32303 c 5.3e-4,-0.0535 -4.7e-4,-0.10705 0,-0.16291 a 5.1720624,5.1720624 0 0 0 0.0807,-0.88878 C 234.01588,68.343674 186.48978,20.819369 127.99923,20.819369 Z"
     style="color:#000000;font-style:normal;font-variant:normal;font-weight:normal;font-stretch:normal;font-size:xx-small;line-height:normal;font-family:sans-serif;-inkscape-font-specification:sans-serif;text-indent:0;text-align:start;text-decoration:none;text-decoration-line:none;text-decoration-color:currentColor;letter-spacing:normal;word-spacing:normal;text-transform:none;direction:ltr;block-progression:tb;writing-mode:lr-tb;baseline-shift:baseline;text-anchor:start;display:inline;overflow:visible;visibility:visible;fill:#ffffff;fill-opacity:1;fill-rule:nonzero;stroke:none;stroke-width:4;marker:none;enable-background:accumulate" />
  <path
     inkscape:export-ydpi="90"
     inkscape:export-xdpi="90"
     inkscape:export-filename="/home/duffy/Documents/Work/Projects/FedBadges/Badges/flock-2013-attendee.png"
     style="fill:none;stroke:#e59728;stroke-width:11.64299774;stroke-linejoin:round;stroke-miterlimit:4;stroke-dasharray:none;stroke-opacity:1"
     id="path24375"
     d="m 217.96822,128.00424 c 0,-49.690763 -40.28009,-89.973759 -89.96911,-89.973759 -49.665903,0 -89.930072,40.249716 -89.966144,89.910229 l -0.0022,-0.002 0,69.62479 0.0022,0.002 c 0.027,11.2754 9.171176,20.4039 20.453492,20.4039 0.03142,0 0.0633,0 0.09658,0 l 0.007,0 69.444962,0 0,0 c 49.67335,-0.0233 89.93317,-40.28882 89.93317,-89.96515 z"
     inkscape:connector-curvature="0" />
  <path
     inkscape:export-ydpi="90"
     inkscape:export-xdpi="90"
     inkscape:export-filename="/home/duffy/Documents/Work/Projects/FedBadges/Badges/junior-editor.png"
     inkscape:connector-curvature="0"
     d="m 205.27295,128.9028 c 0,-43.168116 -34.99292,-78.163548 -78.15964,-78.163548 -43.146684,0 -78.125779,34.966574 -78.157034,78.108388 l -0.0022,-0.002 0,60.48582 0.0022,0.002 c 0.02397,9.79526 7.967348,17.72544 17.76875,17.72544 0.02397,0 0.05655,-0.002 0.08355,-0.002 l 0.0047,0.002 60.32954,0 0,0 c 43.15432,-0.0233 78.12964,-35.00032 78.12964,-78.15634 z"
     id="path24381"
     style="display:inline;fill:url(#linearGradient19606);fill-opacity:1;stroke:none" />
  <path
     inkscape:export-ydpi="90"
     inkscape:export-xdpi="90"
     inkscape:export-filename="/home/duffy/Documents/Work/Projects/FedBadges/Badges/irc-speak-up.png"
     style="fill:#f3cd98;fill-opacity:1;stroke:none"
     id="path24612"
     d="m 203.71188,127.92511 c 0,-41.774542 -33.86298,-75.640083 -75.63613,-75.640083 -41.753598,0 -75.603314,33.837614 -75.633569,75.586793 l -0.0021,-0.002 0,58.53277 0.0021,0.002 c 0.02327,9.47921 7.710022,17.15316 17.195055,17.15316 0.0256,0 0.05353,-0.002 0.08145,-0.002 l 0,0.002 58.38173,0 0,0 c 41.76547,-0.0233 75.61141,-33.87019 75.61141,-75.63264 z"
     inkscape:connector-curvature="0" />
  <path
     style="color:#000000;display:inline;overflow:visible;visibility:visible;fill:url(#radialGradient26439);fill-opacity:1;fill-rule:nonzero;stroke:none;stroke-width:2;marker:none;enable-background:accumulate"
     d="m 336.125,4005.4375 c -2.67574,-0.022 -5.34341,0.1847 -8,0.5625 l 7.5625,53.1562 8.4375,-53.0312 c -2.64993,-0.422 -5.32426,-0.6652 -8,-0.6875 z M 315.46875,4009 c -5.0118,1.919 -9.68272,4.5953 -13.90625,7.9062 l 33.125,42.25 L 315.46875,4009 Z m 41.125,0.8125 -20.03125,49.8437 33.8125,-41.7187 c -4.16784,-3.3808 -8.80209,-6.1228 -13.78125,-8.125 z m -64.46875,16 c -3.38082,4.1678 -6.12281,8.8333 -8.125,13.8125 l 49.8125,20.0312 -41.6875,-33.8437 z m 87.1875,1.5625 -42.28125,33.1562 50.1875,-19.2187 c -1.91904,-5.0118 -4.59527,-9.714 -7.90625,-13.9375 z m -99.03125,24.6875 c -0.84396,5.2999 -0.88063,10.7181 -0.125,16.0313 l 53.15625,-7.5626 -53.03125,-8.4687 z m 109.9375,1.9063 -53.1875,7.5624 53.0625,8.4376 c 0.84396,-5.2999 0.88063,-10.6869 0.125,-16 z m -56.90625,7.5624 -50.15625,19.1876 c 1.91904,5.0117 4.59527,9.7139 7.90625,13.9374 l 42.25,-33.125 z m 0.5,0.8438 L 300,4104.0938 c 4.16784,3.3808 8.80209,6.1228 13.78125,8.125 l 20.03125,-49.8438 z m 2.75,0 41.6875,33.8438 c 3.38082,-4.1679 6.12281,-8.8334 8.125,-13.8126 l -49.8125,-20.0312 z m -1.875,0.5 -8.4375,53.0625 c 5.29986,0.844 10.68682,0.8806 16,0.125 l -7.5625,-53.1875 z m 1,0 19.21875,50.1562 c 5.0118,-1.919 9.68272,-4.564 13.90625,-7.875 l -33.125,-42.2812 z"
     id="path24379"
     clip-path="url(#clipPath26597)"
     inkscape:connector-curvature="0"
     transform="matrix(2.3272727,0,0,2.3272727,-652.24147,-9329.4334)" />
  <path
     inkscape:connector-curvature="0"
     d="m 89.041989,107.96014 0,-12.716685 c 0,-0.02327 0,-0.02327 0,-0.02327 0,-13.26941 10.524835,-24.025599 23.508801,-24.025599 1.97051,0 3.36976,0.225745 5.19424,0.71424 2.65808,0.71168 4.82996,2.937716 4.83077,5.529832 7.9e-4,3.132044 -2.22403,5.409048 -5.54887,5.409048 -1.58457,0 -2.15661,-0.30976 -4.47693,-0.30976 -6.84462,0 -12.39505,5.665047 -12.40708,12.660829 l 0,10.962145 0,0 c 0,0.98886 0.78303,1.79084 1.75225,1.79084 0,0 0.002,0 0.005,0 l 8.14755,0 c 3.03679,0 5.48787,2.48274 5.49027,5.59383 0,3.1132 -2.45427,5.59128 -5.49027,5.59128 l -9.90464,0 0,12.77067 c 0,0.0233 0,0.0233 0,0.0233 0,13.26802 -10.525649,24.02491 -23.508805,24.02491 -1.96971,0 -3.369751,-0.22808 -5.193425,-0.71424 -2.658095,-0.71075 -4.830767,-2.93865 -4.831581,-5.5296 0,-3.13228 2.224035,-5.41021 5.549661,-5.41021 1.582987,0 2.156637,0.31069 4.475345,0.31069 6.844602,0 12.39666,-5.66598 12.408692,-12.66083 0,0 0,-11.01871 0,-11.01871 0,-0.98723 -0.785477,-1.78734 -1.753064,-1.78734 -0.0014,0 -0.0014,0 -0.0047,0 l -8.146758,0 c -3.036788,0 -5.491083,-2.47645 -5.491083,-5.58825 -0.0014,-3.13135 2.479174,-5.59686 5.548846,-5.59686 l 9.846086,0 1.86e-4,-7e-4 z"
     id="path25571"
     style="display:inline;fill:#ffffff;stroke:#3c6eb4;stroke-width:13.9636364;stroke-miterlimit:4;stroke-dasharray:none" />
  <g
     style="font-style:normal;font-variant:normal;font-weight:500;font-stretch:normal;font-size:40px;line-height:125%;font-family:Caslon;-inkscape-font-specification:Caslon Medium;letter-spacing:0px;word-spacing:0px;fill:#ffffff;fill-opacity:1;stroke:#3c6eb4;stroke-width:7.34789991;stroke-miterlimit:4;stroke-dasharray:none"
     id="g25575"
     transform="matrix(1.9003574,0,0,1.9003574,-369.61873,-7655.1829)">
    <path
       d="m 251.4857,4099.8584 q 0,-1.9531 0.74219,-3.6719 0.76172,-1.7187 2.05078,-3.0078 1.28906,-1.2891 3.00781,-2.0312 1.71875,-0.7422 3.65235,-0.7422 1.93359,0 3.65234,0.7617 1.71875,0.7617 3.00781,2.0508 1.28907,1.289 2.03125,3.0078 0.76172,1.7187 0.76172,3.6328 0,1.9531 -0.72265,3.6328 -0.70313,1.6797 -2.05078,3.0469 l -9.49219,11.0156 10.21484,0 q 0.85938,0 1.44531,0.6055 0.60547,0.6054 0.60547,1.4453 0,0.8398 -0.60547,1.4453 -0.58593,0.5859 -1.44531,0.5859 l -14.82422,0 q -0.42968,0 -0.80078,-0.1562 -0.37109,-0.1563 -0.64453,-0.4297 -0.27344,-0.293 -0.42969,-0.6641 -0.15625,-0.3711 -0.15625,-0.7812 0,-0.8789 0.56641,-1.4453 l 12.65625,-14.4531 q 1.60156,-1.6016 1.60156,-3.8477 0,-1.0938 -0.42969,-2.0703 -0.42968,-0.9766 -1.17187,-1.6992 -0.72266,-0.7422 -1.69922,-1.1719 -0.97656,-0.4297 -2.07031,-0.4297 -1.11328,0 -2.08985,0.4297 -0.97656,0.4101 -1.71875,1.1328 -0.72265,0.7227 -1.15234,1.6992 -0.41016,0.9766 -0.41016,2.1094 0,0.8398 -0.60546,1.4453 -0.58594,0.5859 -1.44532,0.5859 -0.83984,0 -1.44531,-0.5859 -0.58594,-0.6055 -0.58594,-1.4453 z"
       style="font-weight:bold;font-family:Comfortaa;-inkscape-font-specification:Comfortaa;fill:#ffffff;stroke:#3c6eb4;stroke-width:7.34789991;stroke-miterlimit:4;stroke-dasharray:none"
       id="path25577"
       inkscape:connector-curvature="0" />
  </g>
  <path
     style="display:inline;fill:#ffffff;stroke:#ffffff;stroke-width:11.63636303;stroke-miterlimit:4;stroke-dasharray:none"
     id="path25555"
     d="m 89.041989,107.96014 0,-12.716685 c 0,-0.02327 0,-0.02327 0,-0.02327 0,-13.26941 10.524835,-24.025599 23.508801,-24.025599 1.97051,0 3.36976,0.225745 5.19424,0.71424 2.65808,0.71168 4.82996,2.937716 4.83077,5.529832 7.9e-4,3.132044 -2.22403,5.409048 -5.54887,5.409048 -1.58457,0 -2.15661,-0.30976 -4.47693,-0.30976 -6.84462,0 -12.39505,5.665047 -12.40708,12.660829 l 0,10.962145 0,0 c 0,0.98886 0.78303,1.79084 1.75225,1.79084 0,0 0.002,0 0.005,0 l 8.14755,0 c 3.03679,0 5.48787,2.48274 5.49027,5.59383 0,3.1132 -2.45427,5.59128 -5.49027,5.59128 l -9.90464,0 0,12.77067 c 0,0.0233 0,0.0233 0,0.0233 0,13.26802 -10.525649,24.02491 -23.508805,24.02491 -1.96971,0 -3.369751,-0.22808 -5.193425,-0.71424 -2.658095,-0.71075 -4.830767,-2.93865 -4.831581,-5.5296 0,-3.13228 2.224035,-5.41021 5.549661,-5.41021 1.582987,0 2.156637,0.31069 4.475345,0.31069 6.844602,0 12.39666,-5.66598 12.408692,-12.66083 0,0 0,-11.01871 0,-11.01871 0,-0.98723 -0.785477,-1.78734 -1.753064,-1.78734 -0.0014,0 -0.0014,0 -0.0047,0 l -8.146758,0 c -3.036788,0 -5.491083,-2.47645 -5.491083,-5.58825 -0.0014,-3.13135 2.479174,-5.59686 5.548846,-5.59686 l 9.846086,0 1.86e-4,-7e-4 z"
     inkscape:connector-curvature="0" />
  <text
     xml:space="preserve"
     style="font-style:normal;font-variant:normal;font-weight:bold;font-stretch:normal;font-size:76.01422882px;line-height:125%;font-family:Comfortaa;-inkscape-font-specification:Comfortaa Bold;letter-spacing:0px;word-spacing:0px;fill:#294172;fill-opacity:1;stroke:#3c6eb4;stroke-width:14;stroke-linecap:butt;stroke-linejoin:miter;stroke-miterlimit:4;stroke-dasharray:none;stroke-opacity:1"
     x="149.39799"
     y="177.8878"
     id="text4357"
     sodipodi:linespacing="125%"><tspan
       sodipodi:role="line"
       id="tspan4359"
       x="149.39799"
       y="177.8878">1</tspan></text>
  <g
     transform="matrix(1.9003574,0,0,1.9003574,-369.61873,-7655.1829)"
     id="g25559"
     style="font-style:normal;font-variant:normal;font-weight:500;font-stretch:normal;font-size:40px;line-height:125%;font-family:Caslon;-inkscape-font-specification:Caslon Medium;letter-spacing:0px;word-spacing:0px;fill:#ffffff;fill-opacity:1;stroke:#ffffff;stroke-width:6.12325001;stroke-miterlimit:4;stroke-dasharray:none">
    <path
       inkscape:connector-curvature="0"
       id="path25561"
       style="font-weight:bold;font-family:Comfortaa;-inkscape-font-specification:Comfortaa;fill:#ffffff;stroke:#ffffff;stroke-width:6.12325001;stroke-miterlimit:4;stroke-dasharray:none"
       d="m 251.4857,4099.8584 q 0,-1.9531 0.74219,-3.6719 0.76172,-1.7187 2.05078,-3.0078 1.28906,-1.2891 3.00781,-2.0312 1.71875,-0.7422 3.65235,-0.7422 1.93359,0 3.65234,0.7617 1.71875,0.7617 3.00781,2.0508 1.28907,1.289 2.03125,3.0078 0.76172,1.7187 0.76172,3.6328 0,1.9531 -0.72265,3.6328 -0.70313,1.6797 -2.05078,3.0469 l -9.49219,11.0156 10.21484,0 q 0.85938,0 1.44531,0.6055 0.60547,0.6054 0.60547,1.4453 0,0.8398 -0.60547,1.4453 -0.58593,0.5859 -1.44531,0.5859 l -14.82422,0 q -0.42968,0 -0.80078,-0.1562 -0.37109,-0.1563 -0.64453,-0.4297 -0.27344,-0.293 -0.42969,-0.6641 -0.15625,-0.3711 -0.15625,-0.7812 0,-0.8789 0.56641,-1.4453 l 12.65625,-14.4531 q 1.60156,-1.6016 1.60156,-3.8477 0,-1.0938 -0.42969,-2.0703 -0.42968,-0.9766 -1.17187,-1.6992 -0.72266,-0.7422 -1.69922,-1.1719 -0.97656,-0.4297 -2.07031,-0.4297 -1.11328,0 -2.08985,0.4297 -0.97656,0.4101 -1.71875,1.1328 -0.72265,0.7227 -1.15234,1.6992 -0.41016,0.9766 -0.41016,2.1094 0,0.8398 -0.60546,1.4453 -0.58594,0.5859 -1.44532,0.5859 -0.83984,0 -1.44531,-0.5859 -0.58594,-0.6055 -0.58594,-1.4453 z" />
  </g>
  <path
     inkscape:connector-curvature="0"
     d="m 89.041989,107.96014 0,-12.716685 c 0,-0.02327 0,-0.02327 0,-0.02327 0,-13.26941 10.524835,-24.025599 23.508801,-24.025599 1.97051,0 3.36976,0.225745 5.19424,0.71424 2.65808,0.71168 4.82996,2.937716 4.83077,5.529832 7.9e-4,3.132044 -2.22403,5.409048 -5.54887,5.409048 -1.58457,0 -2.15661,-0.30976 -4.47693,-0.30976 -6.84462,0 -12.39505,5.665047 -12.40708,12.660829 l 0,10.962148 0,0 c 0,0.98886 0.78303,1.79084 1.75225,1.79084 0,0 0.002,0 0.005,0 l 8.14755,0 c 3.03679,0 5.48787,2.48274 5.49027,5.59383 0,3.1132 -2.45427,5.59128 -5.49027,5.59128 l -9.90464,0 0,12.77067 c 0,0.0233 0,0.0233 0,0.0233 0,13.26802 -10.525649,24.02491 -23.508805,24.02491 -1.96971,0 -3.369751,-0.22808 -5.193425,-0.71424 -2.658095,-0.71075 -4.830767,-2.93865 -4.831581,-5.5296 0,-3.13228 2.224035,-5.41021 5.549661,-5.41021 1.582987,0 2.156637,0.31069 4.475345,0.31069 6.844602,0 12.39666,-5.66598 12.408692,-12.66083 0,0 0,-11.01871 0,-11.01871 0,-0.98723 -0.785477,-1.78734 -1.753064,-1.78734 -0.0014,0 -0.0014,0 -0.0047,0 l -8.146758,0 c -3.036788,0 -5.491083,-2.47645 -5.491083,-5.58825 -0.0014,-3.13135 2.479174,-5.59686 5.548846,-5.59686 l 9.846086,0 1.86e-4,-7e-4 z"
     id="path25445-1"
     style="display:inline;fill:#3c6eb4" />
  <g
     style="font-style:normal;font-variant:normal;font-weight:500;font-stretch:normal;font-size:40px;line-height:125%;font-family:Caslon;-inkscape-font-specification:Caslon Medium;letter-spacing:0px;word-spacing:0px;fill:#294172;fill-opacity:1;stroke:none"
     id="text25514"
     transform="matrix(1.9003574,0,0,1.9003574,-369.61873,-7655.1829)">
    <path
       d="m 251.4857,4099.8584 q 0,-1.9531 0.74219,-3.6719 0.76172,-1.7187 2.05078,-3.0078 1.28906,-1.2891 3.00781,-2.0312 1.71875,-0.7422 3.65235,-0.7422 1.93359,0 3.65234,0.7617 1.71875,0.7617 3.00781,2.0508 1.28907,1.289 2.03125,3.0078 0.76172,1.7187 0.76172,3.6328 0,1.9531 -0.72265,3.6328 -0.70313,1.6797 -2.05078,3.0469 l -9.49219,11.0156 10.21484,0 q 0.85938,0 1.44531,0.6055 0.60547,0.6054 0.60547,1.4453 0,0.8398 -0.60547,1.4453 -0.58593,0.5859 -1.44531,0.5859 l -14.82422,0 q -0.42968,0 -0.80078,-0.1562 -0.37109,-0.1563 -0.64453,-0.4297 -0.27344,-0.293 -0.42969,-0.6641 -0.15625,-0.3711 -0.15625,-0.7812 0,-0.8789 0.56641,-1.4453 l 12.65625,-14.4531 q 1.60156,-1.6016 1.60156,-3.8477 0,-1.0938 -0.42969,-2.0703 -0.42968,-0.9766 -1.17187,-1.6992 -0.72266,-0.7422 -1.69922,-1.1719 -0.97656,-0.4297 -2.07031,-0.4297 -1.11328,0 -2.08985,0.4297 -0.97656,0.4101 -1.71875,1.1328 -0.72265,0.7227 -1.15234,1.6992 -0.41016,0.9766 -0.41016,2.1094 0,0.8398 -0.60546,1.4453 -0.58594,0.5859 -1.44532,0.5859 -0.83984,0 -1.44531,-0.5859 -0.58594,-0.6055 -0.58594,-1.4453 z"
       style="font-weight:bold;font-family:Comfortaa;-inkscape-font-specification:Comfortaa;fill:#294172;stroke:none"
       id="path25519"
       inkscape:connector-curvature="0" />
  </g>
  <text
     sodipodi:linespacing="125%"
     id="text3553"
     y="177.8878"
     x="149.39799"
     style="font-style:normal;font-variant:normal;font-weight:bold;font-stretch:normal;font-size:76.01422882px;line-height:125%;font-family:Comfortaa;-inkscape-font-specification:Comfortaa Bold;letter-spacing:0px;word-spacing:0px;fill:#294172;fill-opacity:1;stroke:#ffffff;stroke-width:11.60000038;stroke-linecap:butt;stroke-linejoin:miter;stroke-miterlimit:4;stroke-dasharray:none;stroke-opacity:1"
     xml:space="preserve"><tspan
       y="177.8878"
       x="149.39799"
       id="tspan3555"
       sodipodi:role="line">1</tspan></text>
  <text
     xml:space="preserve"
     style="font-style:normal;font-variant:normal;font-weight:bold;font-stretch:normal;font-size:76.01422882px;line-height:125%;font-family:Comfortaa;-inkscape-font-specification:Comfortaa Bold;letter-spacing:0px;word-spacing:0px;fill:#294172;fill-opacity:1;stroke:none;stroke-width:1px;stroke-linecap:butt;stroke-linejoin:miter;stroke-opacity:1"
     x="149.39799"
     y="177.8878"
     id="text3541"
     sodipodi:linespacing="125%"><tspan
       sodipodi:role="line"
       id="tspan3543"
       x="149.39799"
       y="177.8878">1</tspan></text>
</svg>
