<?xml version="1.0" encoding="UTF-8" standalone="no"?>
<!-- Created with Inkscape (http://www.inkscape.org/) -->

<svg
   xmlns:dc="http://purl.org/dc/elements/1.1/"
   xmlns:cc="http://creativecommons.org/ns#"
   xmlns:rdf="http://www.w3.org/1999/02/22-rdf-syntax-ns#"
   xmlns:svg="http://www.w3.org/2000/svg"
   xmlns="http://www.w3.org/2000/svg"
   xmlns:xlink="http://www.w3.org/1999/xlink"
   xmlns:sodipodi="http://sodipodi.sourceforge.net/DTD/sodipodi-0.dtd"
   xmlns:inkscape="http://www.inkscape.org/namespaces/inkscape"
   id="svg4326"
   version="1.1"
   inkscape:version="0.48.2 r9819"
   width="256"
   height="256"
   sodipodi:docname="fosscom_2014_v2.svg"
   inkscape:export-filename="/Users/riecatnor/Desktop/BADGES/badges/you-can-pry-it-from-my-cold-undead-hands.png"
   inkscape:export-xdpi="90"
   inkscape:export-ydpi="90">
  <metadata
     id="metadata4332">
    <rdf:RDF>
      <cc:Work
         rdf:about="">
        <dc:format>image/svg+xml</dc:format>
        <dc:type
           rdf:resource="http://purl.org/dc/dcmitype/StillImage" />
        <dc:title />
      </cc:Work>
    </rdf:RDF>
  </metadata>
  <defs
     id="defs4330">
    <linearGradient
       inkscape:collect="always"
       id="linearGradient5768">
      <stop
         style="stop-color:#4c4c4c;stop-opacity:1;"
         offset="0"
         id="stop5770" />
      <stop
         style="stop-color:#4c4c4c;stop-opacity:0;"
         offset="1"
         id="stop5772" />
    </linearGradient>
    <linearGradient
       id="linearGradient40097">
      <stop
         style="stop-color:#c4c7cc;stop-opacity:1;"
         offset="0"
         id="stop40099" />
      <stop
         style="stop-color:#eff0f1;stop-opacity:1;"
         offset="1"
         id="stop40101" />
    </linearGradient>
    <linearGradient
       id="linearGradient39902">
      <stop
         style="stop-color:#79db32;stop-opacity:1;"
         offset="0"
         id="stop39904" />
      <stop
         style="stop-color:#000000;stop-opacity:1;"
         offset="1"
         id="stop39906" />
    </linearGradient>
    <linearGradient
       id="linearGradient37905">
      <stop
         style="stop-color:#294172;stop-opacity:1;"
         offset="0"
         id="stop37907" />
      <stop
         id="stop37913"
         offset="0.74811548"
         style="stop-color:#acc4e4;stop-opacity:1;" />
      <stop
         style="stop-color:#6a82ab;stop-opacity:1;"
         offset="0.90435892"
         id="stop37917" />
      <stop
         style="stop-color:#294172;stop-opacity:1;"
         offset="1"
         id="stop37909" />
    </linearGradient>
    <linearGradient
       id="linearGradient11208">
      <stop
         style="stop-color:#ffffff;stop-opacity:1;"
         offset="0"
         id="stop11210" />
      <stop
         style="stop-color:#8faed9;stop-opacity:1;"
         offset="1"
         id="stop11212" />
    </linearGradient>
    <linearGradient
       inkscape:collect="always"
       xlink:href="#linearGradient23243-0"
       id="linearGradient11673"
       gradientUnits="userSpaceOnUse"
       x1="452.89532"
       y1="692.18036"
       x2="549.71472"
       y2="588.13464" />
    <linearGradient
       inkscape:collect="always"
       id="linearGradient23243-0">
      <stop
         style="stop-color:#db3279;stop-opacity:1;"
         offset="0"
         id="stop23245-9" />
      <stop
         style="stop-color:#db3279;stop-opacity:0;"
         offset="1"
         id="stop23247-6" />
    </linearGradient>
    <linearGradient
       inkscape:collect="always"
       xlink:href="#linearGradient29617-7"
       id="linearGradient11675"
       gradientUnits="userSpaceOnUse"
       x1="500.41754"
       y1="598.07538"
       x2="531.51129"
       y2="682.98608" />
    <linearGradient
       inkscape:collect="always"
       id="linearGradient29617-7">
      <stop
         style="stop-color:#6e0733;stop-opacity:1;"
         offset="0"
         id="stop29619-3" />
      <stop
         style="stop-color:#6e0733;stop-opacity:0;"
         offset="1"
         id="stop29621-9" />
    </linearGradient>
    <linearGradient
       inkscape:collect="always"
       xlink:href="#linearGradient17017-5"
       id="linearGradient11677"
       gradientUnits="userSpaceOnUse"
       x1="477.17944"
       y1="4054.9666"
       x2="507.65854"
       y2="4028.2605" />
    <linearGradient
       id="linearGradient17017-5">
      <stop
         style="stop-color:#313b31;stop-opacity:1;"
         offset="0"
         id="stop17019-8" />
      <stop
         style="stop-color:#313b31;stop-opacity:0.62711865;"
         offset="1"
         id="stop17021-3" />
    </linearGradient>
    <linearGradient
       inkscape:collect="always"
       xlink:href="#linearGradient22742-8"
       id="linearGradient11679"
       gradientUnits="userSpaceOnUse"
       x1="297.87323"
       y1="273.94583"
       x2="337.01941"
       y2="237.20154" />
    <linearGradient
       inkscape:collect="always"
       id="linearGradient22742-8">
      <stop
         style="stop-color:#361f00;stop-opacity:1;"
         offset="0"
         id="stop22744-4" />
      <stop
         style="stop-color:#361f00;stop-opacity:0;"
         offset="1"
         id="stop22746-6" />
    </linearGradient>
    <filter
       color-interpolation-filters="sRGB"
       id="filter22728-9"
       inkscape:label="Drop shadow"
       width="1.5"
       height="1.5"
       x="-0.25"
       y="-0.25">
      <feGaussianBlur
         id="feGaussianBlur22730-3"
         in="SourceAlpha"
         stdDeviation="0.2"
         result="blur" />
      <feColorMatrix
         id="feColorMatrix22732-4"
         result="bluralpha"
         type="matrix"
         values="1 0 0 0 0 0 1 0 0 0 0 0 1 0 0 0 0 0 0.9 0 " />
      <feOffset
         id="feOffset22734-1"
         in="bluralpha"
         dx="-0.4"
         dy="0.2"
         result="offsetBlur" />
      <feMerge
         id="feMerge22736-7">
        <feMergeNode
           id="feMergeNode22738-0"
           in="offsetBlur" />
        <feMergeNode
           id="feMergeNode22740-2"
           in="SourceGraphic" />
      </feMerge>
    </filter>
    <linearGradient
       inkscape:collect="always"
       xlink:href="#linearGradient6887"
       id="linearGradient6893"
       x1="152.47856"
       y1="86.949074"
       x2="146.28004"
       y2="95.386421"
       gradientUnits="userSpaceOnUse"
       gradientTransform="matrix(0.83323544,0,0,0.83323544,24.800776,16.151034)" />
    <linearGradient
       inkscape:collect="always"
       id="linearGradient6887">
      <stop
         style="stop-color:#294172;stop-opacity:1;"
         offset="0"
         id="stop6889" />
      <stop
         style="stop-color:#294172;stop-opacity:0;"
         offset="1"
         id="stop6891" />
    </linearGradient>
    <linearGradient
       gradientTransform="translate(-0.38360769,1.5340371)"
       inkscape:collect="always"
       xlink:href="#linearGradient5318"
       id="linearGradient6072"
       x1="192.24194"
       y1="149.56042"
       x2="193.39502"
       y2="200.54347"
       gradientUnits="userSpaceOnUse" />
    <linearGradient
       id="linearGradient5318">
      <stop
         style="stop-color:#ffffff;stop-opacity:1;"
         offset="0"
         id="stop5320" />
      <stop
         style="stop-color:#000000;stop-opacity:1;"
         offset="1"
         id="stop5322" />
    </linearGradient>
    <linearGradient
       gradientTransform="translate(-0.38360769,1.5340371)"
       inkscape:collect="always"
       xlink:href="#linearGradient5318"
       id="linearGradient5332"
       x1="170.92427"
       y1="157.8367"
       x2="171.42072"
       y2="129.09328"
       gradientUnits="userSpaceOnUse" />
    <linearGradient
       id="linearGradient7719">
      <stop
         style="stop-color:#ffffff;stop-opacity:1;"
         offset="0"
         id="stop7721" />
      <stop
         style="stop-color:#000000;stop-opacity:1;"
         offset="1"
         id="stop7723" />
    </linearGradient>
    <linearGradient
       gradientTransform="translate(-0.38360769,1.5340371)"
       inkscape:collect="always"
       xlink:href="#linearGradient5318"
       id="linearGradient6104"
       x1="72.742928"
       y1="192.52098"
       x2="101.91525"
       y2="216.92775"
       gradientUnits="userSpaceOnUse" />
    <linearGradient
       id="linearGradient7726">
      <stop
         style="stop-color:#ffffff;stop-opacity:1;"
         offset="0"
         id="stop7728" />
      <stop
         style="stop-color:#000000;stop-opacity:1;"
         offset="1"
         id="stop7730" />
    </linearGradient>
    <linearGradient
       gradientTransform="translate(-0.38360769,1.5340371)"
       inkscape:collect="always"
       xlink:href="#linearGradient5318"
       id="linearGradient6096"
       x1="98.179436"
       y1="193.99844"
       x2="130.60793"
       y2="222.77711"
       gradientUnits="userSpaceOnUse" />
    <linearGradient
       id="linearGradient7733">
      <stop
         style="stop-color:#ffffff;stop-opacity:1;"
         offset="0"
         id="stop7735" />
      <stop
         style="stop-color:#000000;stop-opacity:1;"
         offset="1"
         id="stop7737" />
    </linearGradient>
    <linearGradient
       gradientTransform="translate(-0.38360769,1.5340371)"
       inkscape:collect="always"
       xlink:href="#linearGradient5318"
       id="linearGradient6112"
       x1="69.313126"
       y1="160.86015"
       x2="75.712608"
       y2="206.14597"
       gradientUnits="userSpaceOnUse" />
    <linearGradient
       id="linearGradient7740">
      <stop
         style="stop-color:#ffffff;stop-opacity:1;"
         offset="0"
         id="stop7742" />
      <stop
         style="stop-color:#000000;stop-opacity:1;"
         offset="1"
         id="stop7744" />
    </linearGradient>
    <linearGradient
       gradientTransform="translate(-0.38360769,1.5340371)"
       inkscape:collect="always"
       xlink:href="#linearGradient5318"
       id="linearGradient6056"
       x1="91.991798"
       y1="154.2856"
       x2="92.195442"
       y2="131.70004"
       gradientUnits="userSpaceOnUse" />
    <linearGradient
       id="linearGradient7747">
      <stop
         style="stop-color:#ffffff;stop-opacity:1;"
         offset="0"
         id="stop7749" />
      <stop
         style="stop-color:#000000;stop-opacity:1;"
         offset="1"
         id="stop7751" />
    </linearGradient>
    <linearGradient
       inkscape:collect="always"
       xlink:href="#linearGradient5318"
       id="linearGradient6064"
       x1="592.83405"
       y1="237.41403"
       x2="658.74683"
       y2="258.24808"
       gradientUnits="userSpaceOnUse" />
    <linearGradient
       id="linearGradient7754">
      <stop
         style="stop-color:#ffffff;stop-opacity:1;"
         offset="0"
         id="stop7756" />
      <stop
         style="stop-color:#000000;stop-opacity:1;"
         offset="1"
         id="stop7758" />
    </linearGradient>
    <linearGradient
       inkscape:collect="always"
       xlink:href="#linearGradient5318"
       id="linearGradient5324"
       x1="291.72986"
       y1="354.82562"
       x2="293.57449"
       y2="443.88025"
       gradientUnits="userSpaceOnUse" />
    <linearGradient
       id="linearGradient7761">
      <stop
         style="stop-color:#ffffff;stop-opacity:1;"
         offset="0"
         id="stop7763" />
      <stop
         style="stop-color:#000000;stop-opacity:1;"
         offset="1"
         id="stop7765" />
    </linearGradient>
    <radialGradient
       inkscape:collect="always"
       xlink:href="#linearGradient4947-5-0-7-3-9"
       id="radialGradient18291-2-4-0-3"
       gradientUnits="userSpaceOnUse"
       gradientTransform="matrix(-0.7316961,2.1285669,-1.4003566,-0.48137343,676.25046,-226.37449)"
       cx="237.44824"
       cy="189.28197"
       fx="237.44824"
       fy="189.28197"
       r="13.88452" />
    <linearGradient
       id="linearGradient4947-5-0-7-3-9">
      <stop
         id="stop4949-2-7-0-6-9"
         offset="0"
         style="stop-color:#fbf8fc;stop-opacity:1;" />
      <stop
         style="stop-color:#c37fff;stop-opacity:0.49803922;"
         offset="0.48298526"
         id="stop4953-5-5-1-1-7" />
      <stop
         id="stop4951-8-6-5-9-0"
         offset="1"
         style="stop-color:#492063;stop-opacity:1;" />
    </linearGradient>
    <linearGradient
       gradientTransform="matrix(1.4616718,0,0,1.4616718,-338.62059,-317.56702)"
       inkscape:collect="always"
       xlink:href="#linearGradient32286"
       id="linearGradient32314"
       x1="320.47412"
       y1="289.18347"
       x2="319.35144"
       y2="312.03287"
       gradientUnits="userSpaceOnUse" />
    <linearGradient
       inkscape:collect="always"
       id="linearGradient32286">
      <stop
         style="stop-color:#1d2c4a;stop-opacity:1;"
         offset="0"
         id="stop32288" />
      <stop
         style="stop-color:#1d2c4a;stop-opacity:0;"
         offset="1"
         id="stop32290" />
    </linearGradient>
    <linearGradient
       gradientTransform="translate(-0.38360769,1.5340371)"
       inkscape:collect="always"
       xlink:href="#linearGradient6879"
       id="linearGradient6885"
       x1="127.13274"
       y1="97.141052"
       x2="114.34079"
       y2="107.49597"
       gradientUnits="userSpaceOnUse" />
    <linearGradient
       inkscape:collect="always"
       id="linearGradient6879">
      <stop
         style="stop-color:#294172;stop-opacity:1;"
         offset="0"
         id="stop6881" />
      <stop
         style="stop-color:#294172;stop-opacity:0;"
         offset="1"
         id="stop6883" />
    </linearGradient>
    <linearGradient
       gradientTransform="matrix(1.4616718,0,0,1.4616718,-371.07765,-618.37027)"
       inkscape:collect="always"
       xlink:href="#linearGradient15830-5-0"
       id="linearGradient32304"
       x1="340.70831"
       y1="466.18604"
       x2="338.97745"
       y2="507.3194"
       gradientUnits="userSpaceOnUse" />
    <linearGradient
       id="linearGradient15830-5-0">
      <stop
         style="stop-color:#ffffff;stop-opacity:1;"
         offset="0"
         id="stop15832-7-1" />
      <stop
         style="stop-color:#ffffcf;stop-opacity:0;"
         offset="1"
         id="stop15834-1-1" />
    </linearGradient>
    <linearGradient
       inkscape:collect="always"
       xlink:href="#linearGradient5318"
       id="linearGradient8585"
       gradientUnits="userSpaceOnUse"
       x1="592.83405"
       y1="237.41403"
       x2="658.74683"
       y2="258.24808" />
    <linearGradient
       inkscape:collect="always"
       xlink:href="#linearGradient5318"
       id="linearGradient8587"
       gradientUnits="userSpaceOnUse"
       gradientTransform="translate(-231.25996,17.258174)"
       x1="91.991798"
       y1="154.2856"
       x2="92.195442"
       y2="131.70004" />
    <linearGradient
       inkscape:collect="always"
       xlink:href="#linearGradient5318"
       id="linearGradient8589"
       gradientUnits="userSpaceOnUse"
       gradientTransform="translate(-231.25996,17.258174)"
       x1="69.313126"
       y1="160.86015"
       x2="75.712608"
       y2="206.14597" />
    <linearGradient
       inkscape:collect="always"
       xlink:href="#linearGradient5318"
       id="linearGradient8591"
       gradientUnits="userSpaceOnUse"
       gradientTransform="translate(-231.25996,17.258174)"
       x1="98.179436"
       y1="193.99844"
       x2="130.60793"
       y2="222.77711" />
    <linearGradient
       inkscape:collect="always"
       xlink:href="#linearGradient5318"
       id="linearGradient8593"
       gradientUnits="userSpaceOnUse"
       gradientTransform="translate(-231.25996,17.258174)"
       x1="72.742928"
       y1="192.52098"
       x2="101.91525"
       y2="216.92775" />
    <linearGradient
       inkscape:collect="always"
       xlink:href="#linearGradient5318"
       id="linearGradient8595"
       gradientUnits="userSpaceOnUse"
       gradientTransform="translate(-231.25996,17.258174)"
       x1="170.92427"
       y1="157.8367"
       x2="171.42072"
       y2="129.09328" />
    <linearGradient
       inkscape:collect="always"
       xlink:href="#linearGradient5318"
       id="linearGradient8597"
       gradientUnits="userSpaceOnUse"
       gradientTransform="translate(-231.25996,17.258174)"
       x1="192.24194"
       y1="149.56042"
       x2="193.39502"
       y2="200.54347" />
    <radialGradient
       inkscape:collect="always"
       xlink:href="#linearGradient4123-8-9"
       id="radialGradient16298"
       gradientUnits="userSpaceOnUse"
       gradientTransform="matrix(0.91987058,1.0040795,-1.1410488,1.0453515,2112.1869,-1131.7579)"
       cx="1046.8716"
       cy="1777.5768"
       fx="1046.8716"
       fy="1777.5768"
       r="32.499802" />
    <linearGradient
       id="linearGradient4123-8-9">
      <stop
         style="stop-color:#ffffff;stop-opacity:1;"
         offset="0"
         id="stop4125-6-9" />
      <stop
         id="stop4155-5-2"
         offset="0.5"
         style="stop-color:#ffffff;stop-opacity:0.49152541;" />
      <stop
         style="stop-color:#ffffff;stop-opacity:0"
         offset="1"
         id="stop4127-3-7" />
    </linearGradient>
    <clipPath
       clipPathUnits="userSpaceOnUse"
       id="clipPath16933">
      <path
         style="fill:none;stroke:none;display:inline"
         id="path16935"
         d="m 1089.3409,1795.1414 c 0,-16.7572 -13.5836,-30.3419 -30.3402,-30.3419 -16.7489,0 -30.3272,13.5735 -30.3393,30.3205 l -9e-4,-9e-4 0,23.4796 9e-4,10e-4 c 0.01,3.8024 3.0927,6.8807 6.8975,6.8807 0.01,0 0.021,-9e-4 0.033,-9e-4 l 0,9e-4 23.4189,0 0,0 c 16.7518,-0.01 30.3287,-13.5865 30.3287,-30.3389 z"
         inkscape:connector-curvature="0"
         clip-path="none" />
    </clipPath>
    <linearGradient
       id="linearGradient9915">
      <stop
         style="stop-color:#ffffff;stop-opacity:1;"
         offset="0"
         id="stop9917" />
      <stop
         id="stop9919"
         offset="0.5"
         style="stop-color:#ffffff;stop-opacity:0.49152541;" />
      <stop
         style="stop-color:#ffffff;stop-opacity:0"
         offset="1"
         id="stop9921" />
    </linearGradient>
    <linearGradient
       id="linearGradient9924">
      <stop
         style="stop-color:#ffffff;stop-opacity:1;"
         offset="0"
         id="stop9926" />
      <stop
         id="stop9928"
         offset="0.5"
         style="stop-color:#ffffff;stop-opacity:0.49152541;" />
      <stop
         style="stop-color:#ffffff;stop-opacity:0"
         offset="1"
         id="stop9930" />
    </linearGradient>
    <linearGradient
       id="linearGradient9933">
      <stop
         style="stop-color:#ffffff;stop-opacity:1;"
         offset="0"
         id="stop9935" />
      <stop
         id="stop9937"
         offset="0.5"
         style="stop-color:#ffffff;stop-opacity:0.49152541;" />
      <stop
         style="stop-color:#ffffff;stop-opacity:0"
         offset="1"
         id="stop9939" />
    </linearGradient>
    <linearGradient
       id="linearGradient9942">
      <stop
         style="stop-color:#ffffff;stop-opacity:1;"
         offset="0"
         id="stop9944" />
      <stop
         id="stop9946"
         offset="0.5"
         style="stop-color:#ffffff;stop-opacity:0.49152541;" />
      <stop
         style="stop-color:#ffffff;stop-opacity:0"
         offset="1"
         id="stop9948" />
    </linearGradient>
    <linearGradient
       id="linearGradient9951">
      <stop
         style="stop-color:#ffffff;stop-opacity:1;"
         offset="0"
         id="stop9953" />
      <stop
         id="stop9955"
         offset="0.5"
         style="stop-color:#ffffff;stop-opacity:0.49152541;" />
      <stop
         style="stop-color:#ffffff;stop-opacity:0"
         offset="1"
         id="stop9957" />
    </linearGradient>
    <linearGradient
       id="linearGradient9960">
      <stop
         style="stop-color:#ffffff;stop-opacity:1;"
         offset="0"
         id="stop9962" />
      <stop
         id="stop9964"
         offset="0.5"
         style="stop-color:#ffffff;stop-opacity:0.49152541;" />
      <stop
         style="stop-color:#ffffff;stop-opacity:0"
         offset="1"
         id="stop9966" />
    </linearGradient>
    <linearGradient
       id="linearGradient9969">
      <stop
         style="stop-color:#ffffff;stop-opacity:1;"
         offset="0"
         id="stop9971" />
      <stop
         id="stop9973"
         offset="0.5"
         style="stop-color:#ffffff;stop-opacity:0.49152541;" />
      <stop
         style="stop-color:#ffffff;stop-opacity:0"
         offset="1"
         id="stop9975" />
    </linearGradient>
    <linearGradient
       id="linearGradient9978">
      <stop
         style="stop-color:#ffffff;stop-opacity:1;"
         offset="0"
         id="stop9980" />
      <stop
         id="stop9982"
         offset="0.5"
         style="stop-color:#ffffff;stop-opacity:0.49152541;" />
      <stop
         style="stop-color:#ffffff;stop-opacity:0"
         offset="1"
         id="stop9984" />
    </linearGradient>
    <linearGradient
       id="linearGradient9987">
      <stop
         style="stop-color:#ffffff;stop-opacity:1;"
         offset="0"
         id="stop9989" />
      <stop
         id="stop9991"
         offset="0.5"
         style="stop-color:#ffffff;stop-opacity:0.49152541;" />
      <stop
         style="stop-color:#ffffff;stop-opacity:0"
         offset="1"
         id="stop9993" />
    </linearGradient>
    <linearGradient
       id="linearGradient9996">
      <stop
         style="stop-color:#ffffff;stop-opacity:1;"
         offset="0"
         id="stop9998" />
      <stop
         id="stop10000"
         offset="0.5"
         style="stop-color:#ffffff;stop-opacity:0.49152541;" />
      <stop
         style="stop-color:#ffffff;stop-opacity:0"
         offset="1"
         id="stop10002" />
    </linearGradient>
    <linearGradient
       id="linearGradient10005">
      <stop
         style="stop-color:#ffffff;stop-opacity:1;"
         offset="0"
         id="stop10007" />
      <stop
         id="stop10009"
         offset="0.5"
         style="stop-color:#ffffff;stop-opacity:0.49152541;" />
      <stop
         style="stop-color:#ffffff;stop-opacity:0"
         offset="1"
         id="stop10011" />
    </linearGradient>
    <radialGradient
       inkscape:collect="always"
       xlink:href="#linearGradient4123-8-9"
       id="radialGradient16296"
       gradientUnits="userSpaceOnUse"
       gradientTransform="matrix(0.91987058,1.0040795,-1.1410488,1.0453515,2112.1869,-1131.7579)"
       cx="1046.8716"
       cy="1777.5768"
       fx="1046.8716"
       fy="1777.5768"
       r="32.499802" />
    <linearGradient
       id="linearGradient10014">
      <stop
         style="stop-color:#ffffff;stop-opacity:1;"
         offset="0"
         id="stop10016" />
      <stop
         id="stop10018"
         offset="0.5"
         style="stop-color:#ffffff;stop-opacity:0.49152541;" />
      <stop
         style="stop-color:#ffffff;stop-opacity:0"
         offset="1"
         id="stop10020" />
    </linearGradient>
    <radialGradient
       inkscape:collect="always"
       xlink:href="#linearGradient4123-8-9"
       id="radialGradient10397"
       gradientUnits="userSpaceOnUse"
       gradientTransform="matrix(0.91987058,1.0040795,-1.1410488,1.0453515,2112.1869,-1131.7579)"
       cx="1046.8716"
       cy="1777.5768"
       fx="1046.8716"
       fy="1777.5768"
       r="32.499802" />
    <radialGradient
       inkscape:collect="always"
       xlink:href="#linearGradient4123-8-9"
       id="radialGradient10438"
       gradientUnits="userSpaceOnUse"
       gradientTransform="matrix(0.91987058,1.0040795,-1.1410488,1.0453515,2112.1869,-1131.7579)"
       cx="1046.8716"
       cy="1777.5768"
       fx="1046.8716"
       fy="1777.5768"
       r="32.499802" />
    <radialGradient
       inkscape:collect="always"
       xlink:href="#linearGradient4123-8-9"
       id="radialGradient11300"
       gradientUnits="userSpaceOnUse"
       gradientTransform="matrix(0.91987058,1.0040795,-1.1410488,1.0453515,2112.1869,-1131.7579)"
       cx="1046.8716"
       cy="1777.5768"
       fx="1046.8716"
       fy="1777.5768"
       r="32.499802" />
    <radialGradient
       inkscape:collect="always"
       xlink:href="#linearGradient4123-8-9"
       id="radialGradient11501"
       gradientUnits="userSpaceOnUse"
       gradientTransform="matrix(0.91987058,1.0040795,-1.1410488,1.0453515,2112.1869,-1131.7579)"
       cx="1046.8716"
       cy="1777.5768"
       fx="1046.8716"
       fy="1777.5768"
       r="32.499802" />
    <radialGradient
       inkscape:collect="always"
       xlink:href="#linearGradient11208-1"
       id="radialGradient11360-1"
       gradientUnits="userSpaceOnUse"
       gradientTransform="matrix(-0.27845151,-0.02857569,-0.02657561,0.25896197,479.14511,134.36711)"
       cx="290.83282"
       cy="312.50259"
       fx="290.83282"
       fy="312.50259"
       r="48.435627" />
    <linearGradient
       id="linearGradient11208-1">
      <stop
         style="stop-color:#ffffff;stop-opacity:1;"
         offset="0"
         id="stop11210-4" />
      <stop
         style="stop-color:#8faed9;stop-opacity:1;"
         offset="1"
         id="stop11212-3" />
    </linearGradient>
    <clipPath
       clipPathUnits="userSpaceOnUse"
       id="clipPath11543">
      <path
         sodipodi:nodetypes="ccccc"
         inkscape:connector-curvature="0"
         id="path11545"
         d="m 284.81338,107.37079 c 0,0 19.91393,31.28807 40.12881,40.7949 22.18902,-6.96066 66.2192,-20.33372 66.2192,-20.33372 0,0 -20.10664,-16.05802 -27.9407,-49.510962 -42.40374,7.283604 -78.40731,29.049782 -78.40731,29.049782 z"
         style="fill:none;stroke:#878787;stroke-width:3.73500466;stroke-linecap:butt;stroke-linejoin:miter;stroke-miterlimit:4;stroke-opacity:1;stroke-dasharray:none" />
    </clipPath>
    <linearGradient
       id="linearGradient4219">
      <stop
         id="stop4221"
         offset="0"
         style="stop-color:#cccccc;stop-opacity:1;" />
      <stop
         id="stop4223"
         offset="1"
         style="stop-color:#9a9a9a;stop-opacity:1;" />
    </linearGradient>
    <filter
       id="filter37857"
       inkscape:label="Drop shadow"
       width="1.5"
       height="1.5"
       x="-.25"
       y="-.25">
      <feGaussianBlur
         id="feGaussianBlur37859"
         in="SourceAlpha"
         stdDeviation="1.0851612903225807"
         result="blur" />
      <feColorMatrix
         id="feColorMatrix37861"
         result="bluralpha"
         type="matrix"
         values="-1 0 0 0 1 0 -1 0 0 1 0 0 -1 0 1 0 0 0 1 0 " />
      <feOffset
         id="feOffset37863"
         in="bluralpha"
         dx="-2.77556e-17"
         dy="0"
         result="offsetBlur" />
      <feMerge
         id="feMerge37865"
         result="fbSourceGraphic">
        <feMergeNode
           id="feMergeNode37867"
           in="offsetBlur" />
        <feMergeNode
           id="feMergeNode37869"
           in="SourceGraphic" />
      </feMerge>
      <feColorMatrix
         result="fbSourceGraphicAlpha"
         in="fbSourceGraphic"
         values="0 0 0 -1 0 0 0 0 -1 0 0 0 0 -1 0 0 0 0 1 0"
         id="feColorMatrix37871" />
      <feGaussianBlur
         id="feGaussianBlur37873"
         in="fbSourceGraphicAlpha"
         stdDeviation="2"
         result="blur" />
      <feColorMatrix
         id="feColorMatrix37875"
         result="bluralpha"
         type="matrix"
         values="-1 0 0 0 1 0 -1 0 0 1 0 0 -1 0 1 0 0 0 1 0 " />
      <feOffset
         id="feOffset37877"
         in="bluralpha"
         dx="-2.77556e-17"
         dy="0"
         result="offsetBlur" />
      <feMerge
         id="feMerge37879">
        <feMergeNode
           id="feMergeNode37881"
           in="offsetBlur" />
        <feMergeNode
           id="feMergeNode37883"
           in="fbSourceGraphic" />
      </feMerge>
    </filter>
    <filter
       id="filter38210"
       inkscape:label="Drop shadow"
       width="1.5"
       height="1.5"
       x="-.25"
       y="-.25">
      <feGaussianBlur
         id="feGaussianBlur38212"
         in="SourceAlpha"
         stdDeviation="1"
         result="blur" />
      <feColorMatrix
         id="feColorMatrix38214"
         result="bluralpha"
         type="matrix"
         values="1 0 0 0 0 0 1 0 0 0 0 0 1 0 0 0 0 0 1 0 " />
      <feOffset
         id="feOffset38216"
         in="bluralpha"
         dx="0"
         dy="0.7"
         result="offsetBlur" />
      <feMerge
         id="feMerge38218">
        <feMergeNode
           id="feMergeNode38220"
           in="offsetBlur" />
        <feMergeNode
           id="feMergeNode38222"
           in="SourceGraphic" />
      </feMerge>
    </filter>
    <filter
       id="filter38233"
       inkscape:label="Drop shadow"
       width="1.5"
       height="1.5"
       x="-.25"
       y="-.25">
      <feGaussianBlur
         id="feGaussianBlur38235"
         in="SourceAlpha"
         stdDeviation="1"
         result="blur" />
      <feColorMatrix
         id="feColorMatrix38237"
         result="bluralpha"
         type="matrix"
         values="1 0 0 0 0 0 1 0 0 0 0 0 1 0 0 0 0 0 1 0 " />
      <feOffset
         id="feOffset38239"
         in="bluralpha"
         dx="0"
         dy="0.7"
         result="offsetBlur" />
      <feMerge
         id="feMerge38241">
        <feMergeNode
           id="feMergeNode38243"
           in="offsetBlur" />
        <feMergeNode
           id="feMergeNode38245"
           in="SourceGraphic" />
      </feMerge>
    </filter>
    <pattern
       patternTransform="matrix(1.0251511,0,0,1.0251511,-567.88897,480.33698)"
       id="pattern10196"
       xlink:href="#pattern6268"
       inkscape:collect="always" />
    <pattern
       inkscape:collect="always"
       xlink:href="#pattern6259"
       id="pattern6268"
       patternTransform="translate(-722,2884)" />
    <pattern
       inkscape:collect="always"
       xlink:href="#pattern6356"
       id="pattern6259"
       patternTransform="translate(-722,2924)" />
    <pattern
       inkscape:collect="always"
       xlink:href="#pattern6352"
       id="pattern6356"
       patternTransform="translate(-722,2884)" />
    <pattern
       inkscape:collect="always"
       xlink:href="#pattern6176"
       id="pattern6352"
       patternTransform="translate(-902,2884)" />
    <pattern
       inkscape:collect="always"
       xlink:href="#pattern4998"
       id="pattern6176"
       patternTransform="translate(-902,2844)" />
    <pattern
       inkscape:collect="always"
       xlink:href="#pattern8888"
       id="pattern4998"
       patternTransform="translate(-902,244)" />
    <pattern
       inkscape:collect="always"
       xlink:href="#pattern8884"
       id="pattern8888"
       patternTransform="translate(-902,244)" />
    <pattern
       inkscape:collect="always"
       xlink:href="#pattern8791"
       id="pattern8884"
       patternTransform="translate(-904,0)" />
    <pattern
       inkscape:collect="always"
       xlink:href="#pattern8787"
       id="pattern8791"
       patternTransform="translate(-724,0)" />
    <pattern
       inkscape:collect="always"
       xlink:href="#pattern8783"
       id="pattern8787"
       patternTransform="translate(-536,0)" />
    <pattern
       inkscape:collect="always"
       xlink:href="#pattern8775"
       id="pattern8783"
       patternTransform="translate(-360,0)" />
    <pattern
       inkscape:collect="always"
       xlink:href="#Wavywhite"
       id="pattern8775"
       patternTransform="translate(-180,0)" />
    <pattern
       inkscape:stockid="Wavy white"
       id="Wavywhite"
       height="5.1805778"
       width="30.066020"
       patternUnits="userSpaceOnUse"
       inkscape:collect="always">
      <path
         id="path8532"
         d="M 7.597,0.061 C 5.079,-0.187 2.656,0.302 -0.01,1.788 L -0.01,3.061 C 2.773,1.431 5.173,1.052 7.472,1.280 C 9.770,1.508 11.969,2.361 14.253,3.218 C 18.820,4.931 23.804,6.676 30.066,3.061 L 30.062,1.788 C 23.622,5.497 19.246,3.770 14.691,2.061 C 12.413,1.207 10.115,0.311 7.597,0.061 z "
         style="fill:white;stroke:none;" />
    </pattern>
    <pattern
       patternTransform="matrix(1.0232961,0,0,1.0232961,-566.02375,480.69738)"
       id="pattern10196-3"
       xlink:href="#pattern6268-2"
       inkscape:collect="always" />
    <pattern
       inkscape:collect="always"
       xlink:href="#pattern6259-8"
       id="pattern6268-2"
       patternTransform="translate(-722,2884)" />
    <pattern
       inkscape:collect="always"
       xlink:href="#pattern6356-5"
       id="pattern6259-8"
       patternTransform="translate(-722,2924)" />
    <pattern
       inkscape:collect="always"
       xlink:href="#pattern6352-8"
       id="pattern6356-5"
       patternTransform="translate(-722,2884)" />
    <pattern
       inkscape:collect="always"
       xlink:href="#pattern6176-9"
       id="pattern6352-8"
       patternTransform="translate(-902,2884)" />
    <pattern
       inkscape:collect="always"
       xlink:href="#pattern4998-3"
       id="pattern6176-9"
       patternTransform="translate(-902,2844)" />
    <pattern
       inkscape:collect="always"
       xlink:href="#pattern8888-6"
       id="pattern4998-3"
       patternTransform="translate(-902,244)" />
    <pattern
       inkscape:collect="always"
       xlink:href="#pattern8884-8"
       id="pattern8888-6"
       patternTransform="translate(-902,244)" />
    <pattern
       inkscape:collect="always"
       xlink:href="#pattern8791-4"
       id="pattern8884-8"
       patternTransform="translate(-904,0)" />
    <pattern
       inkscape:collect="always"
       xlink:href="#pattern8787-0"
       id="pattern8791-4"
       patternTransform="translate(-724,0)" />
    <pattern
       inkscape:collect="always"
       xlink:href="#pattern8783-7"
       id="pattern8787-0"
       patternTransform="translate(-536,0)" />
    <pattern
       inkscape:collect="always"
       xlink:href="#pattern8775-5"
       id="pattern8783-7"
       patternTransform="translate(-360,0)" />
    <pattern
       inkscape:collect="always"
       xlink:href="#Wavywhite-5"
       id="pattern8775-5"
       patternTransform="translate(-180,0)" />
    <pattern
       inkscape:stockid="Wavy white"
       id="Wavywhite-5"
       height="5.1805778"
       width="30.066020"
       patternUnits="userSpaceOnUse"
       inkscape:collect="always">
      <path
         id="path8532-3"
         d="M 7.597,0.061 C 5.079,-0.187 2.656,0.302 -0.01,1.788 L -0.01,3.061 C 2.773,1.431 5.173,1.052 7.472,1.280 C 9.770,1.508 11.969,2.361 14.253,3.218 C 18.820,4.931 23.804,6.676 30.066,3.061 L 30.062,1.788 C 23.622,5.497 19.246,3.770 14.691,2.061 C 12.413,1.207 10.115,0.311 7.597,0.061 z "
         style="fill:white;stroke:none;" />
    </pattern>
    <filter
       id="filter6605"
       inkscape:label="Drop shadow"
       inkscape:menu="Blurs"
       inkscape:menu-tooltip="Blur the contents of objects, preserving the outline"
       color-interpolation-filters="sRGB"
       width="1.5"
       height="1.5"
       x="-0.25"
       y="-0.25">
      <feColorMatrix
         id="feColorMatrix6607"
         values="1 0 0 0 0 0 1 0 0 0 0 0 1 0 0 0 0 0 1 0 "
         result="result7" />
      <feGaussianBlur
         id="feGaussianBlur6609"
         result="result6"
         stdDeviation="5" />
      <feComposite
         id="feComposite6611"
         in2="result7"
         operator="atop"
         in="result6"
         result="result91" />
      <feComposite
         id="feComposite6613"
         in2="result91"
         operator="in"
         result="fbSourceGraphic" />
      <feColorMatrix
         result="fbSourceGraphicAlpha"
         in="fbSourceGraphic"
         values="0 0 0 -1 0 0 0 0 -1 0 0 0 0 -1 0 0 0 0 1 0"
         id="feColorMatrix6659" />
      <feColorMatrix
         id="feColorMatrix6661"
         values="1 0 0 0 0 0 1 0 0 0 0 0 1 0 0 0 0 0 1 0 "
         result="result7"
         in="fbSourceGraphic" />
      <feGaussianBlur
         id="feGaussianBlur6663"
         result="result6"
         stdDeviation="5" />
      <feComposite
         id="feComposite6665"
         in2="result7"
         operator="atop"
         in="result6"
         result="result91" />
      <feComposite
         id="feComposite6667"
         in2="result91"
         operator="in"
         result="fbSourceGraphic" />
      <feColorMatrix
         result="fbSourceGraphicAlpha"
         in="fbSourceGraphic"
         values="0 0 0 -1 0 0 0 0 -1 0 0 0 0 -1 0 0 0 0 1 0"
         id="feColorMatrix7823" />
      <feGaussianBlur
         id="feGaussianBlur7825"
         in="fbSourceGraphicAlpha"
         stdDeviation="1"
         result="blur" />
      <feColorMatrix
         id="feColorMatrix7827"
         result="bluralpha"
         type="matrix"
         values="-1 0 0 0 1 0 -1 0 0 1 0 0 -1 0 1 0 0 0 1 0 " />
      <feOffset
         id="feOffset7829"
         in="bluralpha"
         dx="1.5"
         dy="-1.5"
         result="offsetBlur" />
      <feMerge
         id="feMerge7831">
        <feMergeNode
           id="feMergeNode7833"
           in="offsetBlur" />
        <feMergeNode
           id="feMergeNode7835"
           in="fbSourceGraphic" />
      </feMerge>
    </filter>
    <filter
       id="filter6595"
       inkscape:label="Drop shadow"
       inkscape:menu="Blurs"
       inkscape:menu-tooltip="Blur the contents of objects, preserving the outline"
       color-interpolation-filters="sRGB"
       width="1.5"
       height="1.5"
       x="-0.25"
       y="-0.25">
      <feColorMatrix
         id="feColorMatrix6597"
         values="1 0 0 0 0 0 1 0 0 0 0 0 1 0 0 0 0 0 1 0 "
         result="result7" />
      <feGaussianBlur
         id="feGaussianBlur6599"
         result="result6"
         stdDeviation="5" />
      <feComposite
         id="feComposite6601"
         in2="result7"
         operator="atop"
         in="result6"
         result="result91" />
      <feComposite
         id="feComposite6603"
         in2="result91"
         operator="in"
         result="fbSourceGraphic" />
      <feColorMatrix
         result="fbSourceGraphicAlpha"
         in="fbSourceGraphic"
         values="0 0 0 -1 0 0 0 0 -1 0 0 0 0 -1 0 0 0 0 1 0"
         id="feColorMatrix6669" />
      <feColorMatrix
         id="feColorMatrix6671"
         values="1 0 0 0 0 0 1 0 0 0 0 0 1 0 0 0 0 0 1 0 "
         result="result7"
         in="fbSourceGraphic" />
      <feGaussianBlur
         id="feGaussianBlur6673"
         result="result6"
         stdDeviation="5" />
      <feComposite
         id="feComposite6675"
         in2="result7"
         operator="atop"
         in="result6"
         result="result91" />
      <feComposite
         id="feComposite6677"
         in2="result91"
         operator="in"
         result="fbSourceGraphic" />
      <feColorMatrix
         result="fbSourceGraphicAlpha"
         in="fbSourceGraphic"
         values="0 0 0 -1 0 0 0 0 -1 0 0 0 0 -1 0 0 0 0 1 0"
         id="feColorMatrix7837" />
      <feGaussianBlur
         id="feGaussianBlur7839"
         in="fbSourceGraphicAlpha"
         stdDeviation="1"
         result="blur" />
      <feColorMatrix
         id="feColorMatrix7841"
         result="bluralpha"
         type="matrix"
         values="-1 0 0 0 1 0 -1 0 0 1 0 0 -1 0 1 0 0 0 1 0 " />
      <feOffset
         id="feOffset7843"
         in="bluralpha"
         dx="1.5"
         dy="-1.5"
         result="offsetBlur" />
      <feMerge
         id="feMerge7845">
        <feMergeNode
           id="feMergeNode7847"
           in="offsetBlur" />
        <feMergeNode
           id="feMergeNode7849"
           in="fbSourceGraphic" />
      </feMerge>
    </filter>
    <filter
       id="filter6615"
       inkscape:label="Drop shadow"
       inkscape:menu="Blurs"
       inkscape:menu-tooltip="Blur the contents of objects, preserving the outline"
       color-interpolation-filters="sRGB"
       width="1.5"
       height="1.5"
       x="-0.25"
       y="-0.25">
      <feColorMatrix
         id="feColorMatrix6617"
         values="1 0 0 0 0 0 1 0 0 0 0 0 1 0 0 0 0 0 1 0 "
         result="result7" />
      <feGaussianBlur
         id="feGaussianBlur6619"
         result="result6"
         stdDeviation="5" />
      <feComposite
         id="feComposite6621"
         in2="result7"
         operator="atop"
         in="result6"
         result="result91" />
      <feComposite
         id="feComposite6623"
         in2="result91"
         operator="in"
         result="fbSourceGraphic" />
      <feColorMatrix
         result="fbSourceGraphicAlpha"
         in="fbSourceGraphic"
         values="0 0 0 -1 0 0 0 0 -1 0 0 0 0 -1 0 0 0 0 1 0"
         id="feColorMatrix6679" />
      <feColorMatrix
         id="feColorMatrix6681"
         values="1 0 0 0 0 0 1 0 0 0 0 0 1 0 0 0 0 0 1 0 "
         result="result7"
         in="fbSourceGraphic" />
      <feGaussianBlur
         id="feGaussianBlur6683"
         result="result6"
         stdDeviation="5" />
      <feComposite
         id="feComposite6685"
         in2="result7"
         operator="atop"
         in="result6"
         result="result91" />
      <feComposite
         id="feComposite6687"
         in2="result91"
         operator="in"
         result="fbSourceGraphic" />
      <feColorMatrix
         result="fbSourceGraphicAlpha"
         in="fbSourceGraphic"
         values="0 0 0 -1 0 0 0 0 -1 0 0 0 0 -1 0 0 0 0 1 0"
         id="feColorMatrix7851" />
      <feGaussianBlur
         id="feGaussianBlur7853"
         in="fbSourceGraphicAlpha"
         stdDeviation="1"
         result="blur" />
      <feColorMatrix
         id="feColorMatrix7855"
         result="bluralpha"
         type="matrix"
         values="-1 0 0 0 1 0 -1 0 0 1 0 0 -1 0 1 0 0 0 1 0 " />
      <feOffset
         id="feOffset7857"
         in="bluralpha"
         dx="1.5"
         dy="-1.5"
         result="offsetBlur" />
      <feMerge
         id="feMerge7859">
        <feMergeNode
           id="feMergeNode7861"
           in="offsetBlur" />
        <feMergeNode
           id="feMergeNode7863"
           in="fbSourceGraphic" />
      </feMerge>
    </filter>
    <linearGradient
       id="linearGradient4976">
      <stop
         style="stop-color:#79db32;stop-opacity:1;"
         offset="0"
         id="stop4978" />
      <stop
         style="stop-color:#ffffff;stop-opacity:1;"
         offset="1"
         id="stop4980" />
    </linearGradient>
    <linearGradient
       id="linearGradient5201">
      <stop
         style="stop-color:#ffffff;stop-opacity:0;"
         offset="0"
         id="stop5203" />
      <stop
         id="stop5209"
         offset="0.73386818"
         style="stop-color:#ffffff;stop-opacity:0.779661;" />
      <stop
         style="stop-color:#c4c7cc;stop-opacity:0;"
         offset="1"
         id="stop5205" />
    </linearGradient>
    <clipPath
       clipPathUnits="userSpaceOnUse"
       id="clipPath4738">
      <path
         sodipodi:type="arc"
         style="fill:#eff0f1;fill-opacity:1;fill-rule:nonzero;stroke:#4c4c4c;stroke-opacity:1;display:inline"
         id="path4740"
         sodipodi:cx="350.08929"
         sodipodi:cy="319.77289"
         sodipodi:rx="6.6964288"
         sodipodi:ry="6.6964288"
         d="m 356.78572,319.77289 a 6.6964288,6.6964288 0 1 1 -13.39285,0 6.6964288,6.6964288 0 1 1 13.39285,0 z"
         transform="matrix(2.5292128,1.860414,-1.860414,2.5292128,221.80276,-811.86155)" />
    </clipPath>
    <clipPath
       clipPathUnits="userSpaceOnUse"
       id="clipPath7098-7">
      <path
         style="opacity:0.33399999;fill:url(#pattern7102);fill-opacity:1;stroke:#50a1af;stroke-width:2.5045166"
         id="path7100-7"
         d="m 596.65497,3410.9692 c 0,-44.9558 -36.44197,-81.4006 -81.39654,-81.4006 -44.93353,0 -81.36123,36.4147 -81.39379,81.3432 l -0.002,0 0,62.9908 0.002,0 c 0.025,10.2009 8.29722,18.4595 18.50462,18.4595 0.0276,0 0.0576,0 0.0877,0 l 0,0 62.82806,0 0,0 c 44.94627,-0.018 81.36995,-36.4499 81.36995,-81.3929 z"
         inkscape:connector-curvature="0"
         inkscape:export-filename="/home/duffy/Documents/Work/Projects/FedBadges/Badges/junior-editor.png"
         inkscape:export-xdpi="90"
         inkscape:export-ydpi="90" />
    </clipPath>
    <clipPath
       clipPathUnits="userSpaceOnUse"
       id="clipPath7092-0">
      <path
         style="opacity:0.33399999;fill:#82bac3;fill-opacity:1;stroke:none"
         id="path7094-2"
         d="m 596.65497,3410.9692 c 0,-44.9558 -36.44197,-81.4006 -81.39654,-81.4006 -44.93353,0 -81.36123,36.4147 -81.39379,81.3432 l -0.002,0 0,62.9908 0.002,0 c 0.025,10.2009 8.29722,18.4595 18.50462,18.4595 0.0276,0 0.0576,0 0.0877,0 l 0,0 62.82806,0 0,0 c 44.94627,-0.018 81.36995,-36.4499 81.36995,-81.3929 z"
         inkscape:connector-curvature="0"
         inkscape:export-filename="/home/duffy/Documents/Work/Projects/FedBadges/Badges/junior-editor.png"
         inkscape:export-xdpi="90"
         inkscape:export-ydpi="90" />
    </clipPath>
    <linearGradient
       id="linearGradient5329">
      <stop
         style="stop-color:#e59728;stop-opacity:1;"
         offset="0"
         id="stop5331" />
      <stop
         style="stop-color:#f8ff3c;stop-opacity:1;"
         offset="1"
         id="stop5333" />
    </linearGradient>
    <linearGradient
       id="linearGradient4770">
      <stop
         style="stop-color:#000000;stop-opacity:1;"
         offset="0"
         id="stop4772" />
      <stop
         id="stop4894"
         offset="0.28839085"
         style="stop-color:#142039;stop-opacity:1;" />
      <stop
         id="stop4778"
         offset="0.49761793"
         style="stop-color:#3c6eb4;stop-opacity:1;" />
      <stop
         style="stop-color:#ffffff;stop-opacity:1;"
         offset="0.72108096"
         id="stop4892" />
      <stop
         id="stop4900"
         offset="0.95970011"
         style="stop-color:#3c6eb4;stop-opacity:1;" />
      <stop
         style="stop-color:#000000;stop-opacity:1;"
         offset="1"
         id="stop4774" />
    </linearGradient>
    <filter
       color-interpolation-filters="sRGB"
       inkscape:collect="always"
       id="filter2620-9">
      <feGaussianBlur
         inkscape:collect="always"
         stdDeviation="0.78000015"
         id="feGaussianBlur2622-5" />
    </filter>
    <linearGradient
       inkscape:collect="always"
       xlink:href="#linearGradient5768"
       id="linearGradient5774"
       x1="140.83617"
       y1="225.56055"
       x2="136.56967"
       y2="-22.032669"
       gradientUnits="userSpaceOnUse"
       gradientTransform="translate(0.09587889,-0.19175777)" />
  </defs>
  <sodipodi:namedview
     pagecolor="#ffffff"
     bordercolor="#666666"
     borderopacity="1"
     objecttolerance="10"
     gridtolerance="10"
     guidetolerance="10"
     inkscape:pageopacity="0"
     inkscape:pageshadow="2"
     inkscape:window-width="1650"
     inkscape:window-height="1158"
     id="namedview4328"
     showgrid="false"
     inkscape:zoom="14.75"
     inkscape:cx="104.76312"
     inkscape:cy="85.538389"
     inkscape:window-x="24"
     inkscape:window-y="0"
     inkscape:window-maximized="0"
     inkscape:current-layer="g8420"
     showguides="false"
     inkscape:guide-bbox="true"
     inkscape:snap-to-guides="false">
    <sodipodi:guide
       orientation="1,0"
       position="237.20436,103.35744"
       id="guide5802" />
    <sodipodi:guide
       orientation="1,0"
       position="349.95793,111.98654"
       id="guide5804" />
    <sodipodi:guide
       orientation="0,1"
       position="63.088307,64.238853"
       id="guide5825" />
  </sodipodi:namedview>
  <g
     id="g8420">
    <path
       inkscape:export-ydpi="90"
       inkscape:export-xdpi="90"
       inkscape:export-filename="/home/duffy/Documents/Work/Projects/FedBadges/Badges/flock-2013-attendee.png"
       transform="matrix(2.5863923,0,0,2.5863923,-117.03776,-196.72146)"
       inkscape:connector-curvature="0"
       d="m 134.00002,125.00183 c 0,-21.53997 -17.46062,-39.00185 -38.999836,-39.00185 -21.529216,0 -38.982968,17.44751 -38.998584,38.97439 l -0.0016,-10e-4 0,30.18098 0.0016,9.9e-4 c 0.01184,4.88773 3.975508,8.84465 8.866181,8.84465 0.01374,0 0.02745,-9.9e-4 0.04187,-9.9e-4 l 0.0024,9.9e-4 30.10304,0 0,0 c 21.533049,-0.009 38.984919,-17.46443 38.984919,-38.99816 z"
       id="path6672"
       style="fill:#db3279;fill-opacity:1;stroke:#58595b;stroke-width:4.50271511;stroke-linejoin:round;stroke-miterlimit:4;stroke-opacity:1;stroke-dasharray:none;display:inline;filter:url(#filter2620-9)" />
    <path
       inkscape:export-ydpi="90"
       inkscape:export-xdpi="90"
       inkscape:export-filename="/home/duffy/Documents/Work/Projects/FedBadges/Badges/flock-2013-attendee.png"
       inkscape:connector-curvature="0"
       id="path6674"
       d="m 128.66952,19.370925 c -58.255701,0 -105.560403,47.14919 -105.961272,105.314655 -5.59e-4,0.082 3.73e-4,0.16049 0,0.24247 a 5.1733019,5.1733019 0 0 0 -0.08083,0.24249 c -1.16e-4,0.0548 4.7e-5,0.10691 0,0.16165 l 0,78.07671 a 5.1733019,5.1733019 0 0 0 0.404138,2.02061 5.1733019,5.1733019 0 0 0 0,0.0808 c 1.112566,13.76388 12.0603,24.57729 25.863915,25.54064 0.08642,0.005 0.155825,0.0757 0.242465,0.0808 a 5.1733019,5.1733019 0 0 0 0.242489,0.0808 5.1733019,5.1733019 0 0 0 1.374022,0.24246 5.1733019,5.1733019 0 0 0 0.08082,0 l 77.834254,0 a 5.1733019,5.1733019 0 0 0 0.0808,0 c 58.01578,-0.0232 105.04203,-46.82773 105.7996,-104.66798 a 5.1733019,5.1733019 0 0 0 0.0808,-0.32328 c 5.4e-4,-0.0545 -4.6e-4,-0.10693 0,-0.16165 a 5.1733019,5.1733019 0 0 0 0.0808,-0.88907 c 0,-58.506269 -47.5375,-106.042095 -106.04208,-106.042095 z"
       style="font-size:xx-small;font-style:normal;font-variant:normal;font-weight:normal;font-stretch:normal;text-indent:0;text-align:start;text-decoration:none;line-height:normal;letter-spacing:normal;word-spacing:normal;text-transform:none;direction:ltr;block-progression:tb;writing-mode:lr-tb;text-anchor:start;baseline-shift:baseline;color:#000000;fill:#ffffff;fill-opacity:1;fill-rule:nonzero;stroke:none;stroke-width:4;marker:none;visibility:visible;display:inline;overflow:visible;enable-background:accumulate;font-family:sans-serif;-inkscape-font-specification:sans-serif" />
    <path
       inkscape:export-ydpi="90"
       inkscape:export-xdpi="90"
       inkscape:export-filename="/home/duffy/Documents/Work/Projects/FedBadges/Badges/flock-2013-attendee.png"
       style="fill:url(#linearGradient5774);fill-opacity:1;stroke:none;display:inline"
       id="path6676"
       d="m 204.46215,126.38931 c 0,-41.808288 -33.89046,-75.70118 -75.69735,-75.70118 -41.787443,0 -75.664531,33.86501 -75.694857,75.64785 l -0.0023,-0.002 0,58.58023 0.0023,0.002 c 0.02352,9.48684 7.716358,17.16714 17.208959,17.16714 0.02655,0 0.05334,-0.002 0.08129,-0.002 l 0.0046,0.002 58.428938,0 0,0 c 41.79485,-0.0163 75.66832,-33.89781 75.66832,-75.69406 z"
       inkscape:connector-curvature="0"
       sodipodi:nodetypes="csccccscccccc" />
    <path
       inkscape:export-ydpi="90"
       inkscape:export-xdpi="90"
       inkscape:export-filename="/home/duffy/Documents/Work/Projects/FedBadges/Badges/flock-2013-attendee.png"
       style="fill:none;stroke:#a07cbc;stroke-width:11.64578818999999932;stroke-linejoin:round;stroke-miterlimit:4;stroke-opacity:1;stroke-dasharray:none;display:inline"
       id="path6678"
       d="m 218.66009,126.58152 c 0,-49.70262 -40.28975,-89.995185 -89.99069,-89.995185 -49.677809,0 -89.951622,40.259398 -89.987694,89.931815 l -0.0023,-0.002 0,69.64142 0.0023,0.002 c 0.02702,11.2782 9.173364,20.40871 20.458387,20.40871 0.03144,0 0.06336,-0.002 0.09666,-0.002 l 0.007,0.002 69.461577,0 0,0 c 49.68522,-0.021 89.9547,-40.29846 89.9547,-89.98672 z"
       inkscape:connector-curvature="0" />
    <path
       inkscape:connector-curvature="0"
       d="m -251.03752,260.01123 c -3.37876,-0.80601 -9.90531,-2.35337 -14.50346,-3.43855 -4.59814,-1.08519 -8.44139,-1.99783 -8.54055,-2.02808 -0.0992,-0.0303 -0.36572,-0.0957 -0.59234,-0.14531 -0.68539,-0.15018 -0.88879,0.92192 2.73067,-14.39374 2.05062,-8.67716 2.71138,-11.42219 3.16941,-13.16683 l 0.15246,-0.58075 0.65469,0.0897 c 0.74145,0.10163 6.75322,1.50491 7.87755,1.83881 0.64647,0.19198 0.78072,0.30555 1.09552,0.92678 0.73039,1.44135 14.92334,32.1141 14.92334,32.25121 0,0.27101 -0.85296,0.10535 -6.96729,-1.35327 z m -31.18639,-2.50051 c -0.74832,-0.90037 -9.66955,-12.08709 -15.69271,-19.67777 -1.86364,-2.34865 -3.38885,-4.3402 -3.38935,-4.42567 -0.001,-0.21506 4.45151,-3.7915 15.65662,-12.57527 6.33222,-4.96389 6.611,-5.17452 6.84876,-5.17452 0.3381,0 5.81236,6.98781 5.81236,7.41938 0,0.11077 -0.97351,4.33587 -2.16337,9.38912 -4.685,19.89706 -6.06676,25.61981 -6.22824,25.79525 -0.0637,0.0692 -0.4435,-0.26857 -0.84407,-0.75052 z m 40.88586,-3.8328 c -0.65676,-0.81268 -12.23302,-25.51365 -12.0761,-25.76754 0.0997,-0.1614 4.26685,-2.19776 6.97934,-3.41062 l 1.4562,-0.65113 0.64148,0.28162 c 0.64744,0.28424 18.6067,9.3427 27.12165,13.67986 2.5324,1.2899 4.60572,2.4321 4.60739,2.53822 0.002,0.10612 -0.78921,0.5675 -1.75751,1.0253 -10.09789,4.77405 -26.63806,12.49158 -26.77191,12.49158 -0.027,0 -0.11729,-0.0843 -0.20054,-0.18729 z m -67.67724,-25.32198 c -0.0559,-2.82251 -0.0806,-9.98645 -0.0548,-15.91988 l 0.0468,-10.78807 14.42154,-0.0382 14.42154,-0.0382 0,4.8405 0,4.8405 -9.24551,7.25936 c -14.56187,11.43363 -19.13057,14.97582 -19.31577,14.97582 -0.12427,0 -0.20037,-1.42643 -0.27375,-5.13182 z m 86.25744,0.99166 c -10.93152,-5.52698 -17.77055,-9.05477 -18.01603,-9.29328 -0.19893,-0.19327 -0.0293,-0.60031 1.47736,-3.54373 2.17149,-4.24236 2.53525,-4.85111 3.00777,-5.03351 0.74762,-0.2886 34.22373,-6.90733 34.93573,-6.90733 0.15686,0 0.28521,0.0968 0.28521,0.2152 0,0.52533 -13.55932,27.10885 -14.20086,27.84126 -0.12631,0.14422 -0.28733,0.26222 -0.35781,0.26222 -0.0705,0 -3.27959,-1.59338 -7.13137,-3.54083 z m -13.50947,-23.57204 c -0.16284,-0.10064 -1.02563,-4.22979 -1.60236,-7.66861 l -0.2672,-1.59319 0.75219,-0.87907 c 7.03107,-8.2171 17.80589,-20.72346 21.69989,-25.18709 0.66375,-0.76086 1.28553,-1.38454 1.3817,-1.38597 0.2122,-0.003 0.10755,-0.48833 2.13242,9.88662 3.43372,17.59364 4.06409,21.02833 3.90621,21.28378 -0.12454,0.20152 -3.41275,0.88228 -17.67582,3.65941 -5.31537,1.03494 -9.77484,1.9061 -9.90993,1.93591 -0.13509,0.0298 -0.32279,0.007 -0.4171,-0.0518 z m -62.89505,-6.75737 c -0.6074,-0.18548 -1.31342,-1.03746 -1.54492,-1.86428 -0.11388,-0.40672 -0.16049,-1.40157 -0.12739,-2.71856 0.0489,-1.94555 0.0782,-2.12124 0.46214,-2.7744 1.06727,-1.81552 3.81293,-1.76109 4.7553,0.0943 0.35508,0.6991 0.37863,0.88552 0.37863,2.99668 0,2.10229 -0.0248,2.3006 -0.37458,2.99786 -0.21518,0.42891 -0.56588,0.85501 -0.82409,1.00125 -0.55421,0.3139 -2.08166,0.46365 -2.72509,0.26716 z m 1.87927,-1.10482 c 0.22709,-0.11743 0.50552,-0.404 0.61873,-0.63679 0.28782,-0.5919 0.38805,-3.62635 0.14808,-4.48341 -0.34559,-1.23434 -1.45403,-1.76225 -2.30112,-1.09593 -0.71562,0.56291 -0.84131,1.01162 -0.84131,3.00363 0,1.5327 0.0496,1.93548 0.30258,2.4581 0.44335,0.91584 1.21667,1.19725 2.07304,0.7544 z m 6.10832,0.83424 c -0.28222,-0.22328 -0.16696,-0.41076 -0.21663,-2.61646 -0.0342,-1.52038 -0.1185,-2.85535 -0.18726,-2.96659 -0.0709,-0.11474 -0.50078,-0.23569 -0.99346,-0.27952 -0.75918,-0.0676 -0.8745,-0.11978 -0.91643,-0.41507 -0.0264,-0.18595 0.041,-0.36375 0.14983,-0.39553 1.16196,-0.33914 1.63706,-0.60543 1.93219,-1.08295 0.23195,-0.3753 0.413,-0.50962 0.64277,-0.47685 0.31657,0.0452 0.32027,0.0879 0.35976,4.14776 0.0434,4.45779 0.18819,4.84393 -0.77077,4.08521 z m 7.55359,0.1383 c -0.0853,-0.15941 -0.1551,-0.56158 -0.1551,-0.89374 0,-0.77821 -0.25194,-0.91413 -1.69451,-0.91413 -0.61319,0 -1.32558,-0.0421 -1.58311,-0.0936 -0.70039,-0.14008 -0.6231,-0.67902 0.30075,-2.09718 1.09251,-1.67706 3.12115,-4.36769 3.36309,-4.46053 0.11244,-0.0432 0.30753,0.0247 0.43353,0.15064 0.18647,0.18647 0.2295,0.68001 0.23137,2.65319 9.4e-4,1.33325 0.0201,2.60401 0.0807,2.68809 0.0606,0.0841 0.32725,0.12324 0.55388,0.22281 0.56524,0.24834 0.55211,0.75355 -0.0249,0.95466 -0.37991,0.13245 -0.45017,0.24912 -0.53902,0.89511 -0.1436,1.04415 -0.64056,1.50411 -0.9667,0.89472 z m -0.36485,-2.90759 c 0.37728,-0.14345 0.20975,-0.26893 0.20975,-1.74341 0,-1.15781 -0.0462,-1.50206 -0.20139,-1.50206 -0.28994,0 -2.21157,2.90223 -2.10851,3.17077 0.0995,0.25918 1.48971,0.30679 2.10015,0.0747 z m -23.8215,2.80192 c -0.11593,-0.36526 0.10037,-1.11872 0.51267,-1.78583 0.1797,-0.29076 0.97628,-0.98574 1.79605,-1.56697 1.67713,-1.18911 2.09425,-1.68015 2.09425,-2.46536 0,-0.70505 -0.20132,-1.06968 -0.74618,-1.35143 -0.91557,-0.47347 -1.78004,-0.0916 -2.22691,0.98363 -0.16949,0.40784 -0.41355,0.78196 -0.54237,0.83139 -0.59758,0.22932 -0.89185,-0.74983 -0.46938,-1.56181 0.70627,-1.35742 2.44357,-1.89643 3.8395,-1.19123 0.90975,0.45959 1.34401,1.14638 1.34401,2.12555 0,1.21349 -0.46534,1.96163 -1.79801,2.8907 -0.61806,0.43088 -1.42717,1.05373 -1.79801,1.38409 -0.65002,0.57907 -0.66381,0.60879 -0.38341,0.82728 0.22003,0.17145 0.69898,0.22663 1.96696,0.22663 1.32755,0 1.79456,-0.0193 1.94648,0.16377 0.38062,0.45863 -0.0227,0.66315 -2.70896,0.73704 -2.47217,0.068 -2.74089,0.0229 -2.82669,-0.24745 z m 64.38657,-8.25744 c -3.45069,-2.94399 -4.40599,-3.81906 -4.61709,-4.2294 -0.12669,-0.24625 -0.17218,-0.74359 -0.13052,-1.42685 0.0351,-0.57686 0.3314,-6.81371 0.65829,-13.85967 0.66857,-14.41055 1.01191,-20.84609 1.1178,-20.95198 0.0395,-0.0395 0.20047,-0.0107 0.35764,0.064 0.27772,0.13209 12.46111,10.62109 20.01964,17.23543 2.06023,1.80286 3.74586,3.3582 3.74586,3.45629 0,0.0981 -3.84325,4.61284 -8.54055,10.03276 -8.86511,10.22888 -10.06973,11.58977 -10.25899,11.58977 -0.0621,0 -1.12053,-0.85967 -2.35208,-1.91038 z m -34.06229,-0.0507 c -1.11252,-0.32721 -4.45008,-1.30634 -7.41679,-2.17584 -6.40541,-1.87733 -21.41339,-6.32767 -23.48651,-6.9645 -0.80348,-0.24682 -1.46088,-0.50006 -1.46088,-0.56277 0,-0.28239 25.46169,-18.36667 25.86792,-18.3728 0.25484,-0.004 1.41229,1.52734 5.60282,7.41195 8.82963,12.39917 10.97068,15.45781 10.98936,15.69916 0.0336,0.43521 -7.07553,5.57439 -7.69857,5.56523 -0.20602,-0.003 -1.28483,-0.27322 -2.39735,-0.60043 z m 22.17546,-5.77815 c -0.37083,-0.0249 -1.93629,-0.11952 -3.47878,-0.21023 -1.54249,-0.0907 -2.9907,-0.21472 -3.21823,-0.27558 -0.27763,-0.0742 -0.6578,-0.45237 -1.15576,-1.14955 -0.40812,-0.57141 -3.168,-4.47761 -6.13306,-8.68047 -2.96505,-4.20284 -7.30786,-10.35838 -9.65066,-13.67897 -2.34282,-3.32059 -4.22558,-6.12625 -4.18392,-6.2348 0.0523,-0.13624 0.30012,-0.18133 0.80012,-0.14559 0.39842,0.0285 2.30889,0.12386 4.2455,0.21195 3.13981,0.14283 14.79752,0.73998 23.55232,1.20644 1.7562,0.0936 3.21799,0.19308 3.24843,0.22113 0.0305,0.0281 -0.2256,5.43136 -0.569,12.00736 -0.91023,17.43122 -0.85297,16.54799 -1.08233,16.69334 -0.19328,0.12249 -0.91399,0.1331 -2.37463,0.0349 z"
       id="path2989"
       style="fill:#030303" />
    <path
       style="fill:#ffffff;fill-opacity:1"
       d="m 86.511112,193.37827 c -0.09018,-0.008 -0.245928,-0.0187 -0.346129,-0.0259 -0.275226,-0.02 -0.833943,-0.12793 -1.046375,-0.20187 -0.897651,-0.31246 -1.407052,-0.677 -1.832136,-1.31113 -0.07388,-0.11021 -0.171005,-0.27825 -0.215826,-0.37342 -0.09684,-0.20571 -0.221053,-0.56671 -0.24756,-0.71956 -0.01043,-0.0601 -0.02791,-0.15436 -0.03891,-0.20948 -0.01094,-0.0551 -0.01711,-0.16167 -0.0137,-0.23681 0.0076,-0.16582 0.05197,-0.24031 0.177615,-0.29808 0.07625,-0.0351 0.115149,-0.0384 0.438889,-0.0377 0.295137,0.002 0.364854,0.005 0.412253,0.031 0.07824,0.0416 0.148288,0.12921 0.167781,0.21002 0.114908,0.47643 0.139136,0.55618 0.221152,0.72787 0.168768,0.35328 0.357511,0.58517 0.654928,0.80461 0.201915,0.14898 0.452472,0.26846 0.820954,0.39144 0.385929,0.12882 0.701176,0.17433 1.238732,0.1788 0.101096,0.002 0.472959,-0.0293 0.619366,-0.0504 0.19027,-0.0273 0.525939,-0.11349 0.646691,-0.1661 0.329377,-0.14355 0.631863,-0.34698 0.779236,-0.52402 0.261428,-0.31411 0.40337,-0.90438 0.31132,-1.29472 -0.07212,-0.30579 -0.161433,-0.469 -0.36501,-0.66697 -0.420334,-0.40874 -0.868872,-0.58034 -2.301282,-0.88036 -0.265512,-0.0556 -0.589308,-0.13012 -0.719561,-0.16559 -0.130246,-0.0354 -0.379233,-0.10133 -0.553285,-0.14639 -0.445406,-0.11529 -0.901067,-0.29811 -1.15756,-0.46443 -0.346882,-0.22492 -0.597105,-0.43727 -0.732733,-0.62182 -0.121184,-0.16489 -0.240253,-0.43619 -0.295982,-0.67436 -0.0823,-0.35174 -0.104434,-0.59519 -0.07693,-0.84587 0.0284,-0.25888 0.161511,-0.76779 0.249328,-0.9532 0.166218,-0.35095 0.419751,-0.63985 0.836584,-0.95331 0.37204,-0.27975 0.728216,-0.43882 1.293388,-0.57756 0.353471,-0.0868 0.545736,-0.10753 1.120316,-0.12089 0.683126,-0.0159 1.159032,0.0574 1.694153,0.26096 0.343522,0.13067 0.766276,0.37758 0.991312,0.57896 0.357647,0.32009 0.633604,0.78255 0.78631,1.31768 0.101856,0.35696 0.126056,0.49472 0.109703,0.62434 -0.01619,0.12805 -0.06113,0.20246 -0.14704,0.24322 -0.142736,0.0677 -0.758019,0.0557 -0.902324,-0.0175 -0.108035,-0.0548 -0.163123,-0.15245 -0.227501,-0.403 -0.05062,-0.19694 -0.183424,-0.48874 -0.30321,-0.6662 -0.09892,-0.14655 -0.284712,-0.3321 -0.432328,-0.43174 -0.2613,-0.1764 -0.628107,-0.32002 -0.95105,-0.37237 -0.399642,-0.0647 -0.542982,-0.073 -0.883494,-0.0509 -0.485207,0.0316 -0.769443,0.10057 -1.108258,0.26894 -0.461115,0.22912 -0.685456,0.5202 -0.784464,1.01775 -0.07767,0.3903 -0.059,0.57279 0.08934,0.875 0.08541,0.17398 0.177205,0.28341 0.339682,0.40498 0.143971,0.10772 0.405245,0.25252 0.570994,0.31643 0.199267,0.0769 1.037023,0.30006 1.258566,0.33533 0.10008,0.016 0.235261,0.0445 0.300384,0.0637 0.06511,0.019 0.192194,0.0483 0.282354,0.0648 0.09018,0.0166 0.241831,0.0506 0.337012,0.0754 0.09518,0.0247 0.257927,0.0647 0.361658,0.0885 0.388756,0.0895 0.880127,0.26484 1.223876,0.43675 0.455952,0.22802 0.842052,0.55525 1.069588,0.90645 0.128427,0.19827 0.203826,0.38534 0.273145,0.67777 0.06078,0.25645 0.06483,0.29286 0.06626,0.59204 0.0014,0.40929 -0.02975,0.66699 -0.11074,0.90172 -0.204749,0.59342 -0.515117,1.00417 -1.002959,1.32735 -0.273585,0.18126 -0.593255,0.35264 -0.796925,0.42725 -0.230568,0.0845 -0.653614,0.19606 -0.901714,0.23785 -0.210352,0.0354 -0.916519,0.0972 -1.033259,0.0904 -0.02791,-0.002 -0.124401,-0.009 -0.214583,-0.0156 z m 9.406663,0 c -0.09015,-0.008 -0.245919,-0.0187 -0.346117,-0.0259 -0.27524,-0.02 -0.833943,-0.12793 -1.046378,-0.20187 -0.897655,-0.31246 -1.407054,-0.677 -1.832144,-1.31113 -0.07393,-0.11021 -0.171007,-0.27825 -0.215806,-0.37342 -0.09689,-0.20579 -0.221089,-0.56679 -0.247554,-0.71956 -0.01037,-0.0601 -0.02677,-0.14618 -0.03635,-0.19126 -0.0284,-0.13313 -0.02286,-0.34156 0.0108,-0.4127 0.05006,-0.10558 0.127075,-0.14978 0.299977,-0.17228 0.196417,-0.0255 0.637213,-0.008 0.707858,0.029 0.07219,0.0373 0.14263,0.12714 0.161663,0.20609 0.114909,0.47642 0.139157,0.55616 0.221169,0.72786 0.168754,0.35327 0.357499,0.58516 0.654927,0.80461 0.201908,0.14899 0.452473,0.26845 0.820946,0.39144 0.385922,0.12882 0.701169,0.17431 1.23874,0.17881 0.101091,0.002 0.47295,-0.0295 0.619353,-0.0504 0.190275,-0.0272 0.525959,-0.11349 0.646695,-0.16611 0.329377,-0.14355 0.631874,-0.34697 0.779237,-0.52402 0.190982,-0.22946 0.340939,-0.66918 0.341225,-1.00064 0,-0.2578 -0.0845,-0.55972 -0.210165,-0.74907 -0.08987,-0.13547 -0.303988,-0.33531 -0.486911,-0.45453 -0.391059,-0.25488 -0.811792,-0.38912 -1.999123,-0.63781 -0.265514,-0.0556 -0.589316,-0.13012 -0.71956,-0.16558 -0.130252,-0.0355 -0.379227,-0.10134 -0.553288,-0.14639 -0.445409,-0.11529 -0.901072,-0.29812 -1.157554,-0.46442 -0.34689,-0.22494 -0.5971,-0.43729 -0.732728,-0.62183 -0.121181,-0.16491 -0.240265,-0.43621 -0.295979,-0.67437 -0.08231,-0.35172 -0.104443,-0.59517 -0.07693,-0.84586 0.02844,-0.2589 0.161516,-0.7678 0.249335,-0.95321 0.166211,-0.35095 0.419749,-0.63986 0.836598,-0.95331 0.375631,-0.28247 0.723002,-0.43737 1.297231,-0.57845 0.349295,-0.0859 0.543258,-0.10667 1.116466,-0.11999 0.683123,-0.0158 1.15902,0.0574 1.694141,0.26096 0.346487,0.13179 0.76514,0.37692 0.992264,0.58101 0.360525,0.32395 0.632296,0.7792 0.785351,1.31563 0.101866,0.35695 0.126067,0.49472 0.109714,0.62434 -0.01617,0.12804 -0.06113,0.20245 -0.147043,0.24321 -0.142731,0.0677 -0.758009,0.0557 -0.902331,-0.0175 -0.108022,-0.0549 -0.163118,-0.15245 -0.227495,-0.40299 -0.05061,-0.19695 -0.18342,-0.48876 -0.303213,-0.66621 -0.09892,-0.14655 -0.284714,-0.3321 -0.432321,-0.43175 -0.261303,-0.17639 -0.628127,-0.32001 -0.951062,-0.37235 -0.399631,-0.0648 -0.54296,-0.073 -0.883486,-0.0509 -0.485219,0.0317 -0.769444,0.10057 -1.10826,0.26894 -0.461115,0.22912 -0.685464,0.52018 -0.784458,1.01774 -0.07766,0.3903 -0.05898,0.57279 0.08933,0.87501 0.08541,0.17397 0.177205,0.28341 0.339688,0.40497 0.143979,0.10772 0.405237,0.25253 0.571001,0.31645 0.19926,0.0769 1.037021,0.30005 1.258545,0.33531 0.100097,0.016 0.235275,0.0446 0.300384,0.0637 0.06509,0.019 0.192187,0.0483 0.282373,0.0649 0.09015,0.0166 0.241818,0.0505 0.336997,0.0754 0.09519,0.0248 0.257936,0.0647 0.361662,0.0885 0.566951,0.13052 1.203827,0.3898 1.579105,0.64286 0.554522,0.37392 0.846208,0.78026 0.986834,1.37473 0.06155,0.26007 0.06551,0.29575 0.06695,0.59542 0.0017,0.40931 -0.02973,0.66701 -0.110741,0.90174 -0.20475,0.59342 -0.515105,1.00416 -1.002951,1.32735 -0.27359,0.18126 -0.593266,0.35263 -0.796921,0.42724 -0.230576,0.0845 -0.653625,0.19607 -0.901725,0.23785 -0.210341,0.0354 -0.916512,0.0972 -1.033265,0.0904 -0.02787,-0.002 -0.124391,-0.009 -0.214569,-0.0156 z m -31.021401,-0.25374 c -0.0952,-0.0186 -0.154406,-0.0631 -0.201716,-0.15158 l -0.04122,-0.0772 -0.0056,-4.56326 c -0.004,-3.30482 1.9e-5,-4.58933 0.0147,-4.65778 0.0261,-0.12154 0.07489,-0.18202 0.189807,-0.23531 l 0.09252,-0.0429 2.896451,-3.1e-4 c 1.97429,-2.5e-4 2.918341,0.005 2.96525,0.0188 0.09357,0.0262 0.190468,0.11533 0.213184,0.19631 0.0103,0.0368 0.024,0.17382 0.03039,0.30461 0.0096,0.1961 0.0064,0.25388 -0.01875,0.32952 -0.03458,0.10424 -0.10373,0.17926 -0.194808,0.21145 -0.04737,0.0167 -0.606115,0.023 -2.312104,0.0258 -1.237347,0.002 -2.275423,0.008 -2.306817,0.0144 -0.03138,0.005 -0.09147,0.0356 -0.133497,0.0661 -0.144065,0.10435 -0.137375,0.0348 -0.137375,1.42845 0,1.15098 0.0021,1.24646 0.03351,1.34803 0.04047,0.13209 0.06917,0.16718 0.175976,0.21523 0.08081,0.0364 0.108595,0.0368 1.949185,0.0325 2.170589,-0.004 2.151815,-0.007 2.261978,0.14816 0.0397,0.0557 0.04282,0.0791 0.04821,0.36784 0.0076,0.40263 -0.0169,0.47657 -0.178845,0.5405 -0.05233,0.0207 -0.419466,0.0268 -2.049369,0.0344 l -1.985619,0.009 -0.07527,0.0432 c -0.08748,0.0502 -0.139803,0.13501 -0.169811,0.27565 -0.0157,0.0738 -0.02023,0.59726 -0.01704,1.98561 0.0043,1.85489 0.0035,1.88675 -0.03232,1.9674 -0.048,0.10724 -0.07495,0.12724 -0.211132,0.15646 -0.121199,0.026 -0.679583,0.032 -0.799915,0.008 z"
       id="path3005"
       inkscape:connector-curvature="0"
       sodipodi:nodetypes="cscssccccccsssscccscsscccscccsssscssccccssssscsccccccscscsscsccccsscccccscccssccsscccscssccccsscscscccccsssssscccccccssccccsccccccccccccscsccccscsscscccscccccc" />
    <path
       style="fill:#ffffff;fill-opacity:1"
       d="m 105.39436,193.29703 c -0.66922,-0.05 -1.16207,-0.16814 -1.64144,-0.39329 -0.48795,-0.22919 -0.75636,-0.40618 -1.0607,-0.69942 -0.23621,-0.22759 -0.37106,-0.39111 -0.55957,-0.67855 -0.23955,-0.36527 -0.54093,-1.0037 -0.64294,-1.36206 -0.0483,-0.16989 -0.14133,-0.62107 -0.15761,-0.76501 -0.008,-0.0751 -0.0247,-0.2104 -0.036,-0.30058 -0.0533,-0.42739 -0.0706,-0.82884 -0.0498,-1.16586 0.025,-0.40821 0.0353,-0.51525 0.0599,-0.62505 0.0142,-0.0632 0.0258,-0.14573 0.0258,-0.1833 0,-0.0375 0.0171,-0.13337 0.038,-0.21291 0.0209,-0.0796 0.0653,-0.26372 0.0985,-0.40929 0.085,-0.37243 0.27786,-0.8539 0.47275,-1.18064 0.21019,-0.35241 0.3637,-0.57748 0.48178,-0.70641 0.0562,-0.0612 0.13413,-0.15026 0.17329,-0.19766 0.19546,-0.2367 0.67541,-0.60097 1.03053,-0.78214 0.4994,-0.25477 0.8203,-0.36382 1.32015,-0.44867 0.47589,-0.0808 1.12834,-0.0916 1.62992,-0.0271 0.92504,0.11895 1.69317,0.47158 2.27236,1.04317 0.3952,0.39003 0.67133,0.83613 0.85421,1.38009 0.14766,0.43916 0.13021,0.57619 -0.0829,0.65173 -0.0842,0.0298 -0.15257,0.0357 -0.4281,0.0373 -0.346,0.002 -0.47637,-0.0167 -0.55173,-0.0787 -0.0618,-0.0509 -0.16101,-0.22506 -0.20607,-0.36206 -0.14715,-0.44719 -0.50923,-0.88785 -1.0001,-1.21709 -0.21108,-0.14158 -0.30252,-0.18103 -0.62512,-0.26974 -0.39695,-0.10913 -0.59206,-0.13657 -0.96884,-0.13626 -0.34585,2.5e-4 -0.45325,0.0123 -0.81604,0.0914 -0.28465,0.0621 -0.40705,0.10452 -0.6413,0.2225 -0.80175,0.40379 -1.31475,1.05708 -1.62911,2.07463 -0.0608,0.19683 -0.11076,0.38947 -0.111,0.42809 0,0.0386 -0.008,0.10302 -0.0181,0.1431 -0.01,0.0401 -0.0308,0.16304 -0.0467,0.27325 -0.0455,0.31319 -0.0429,1.41267 0.003,1.48776 0.007,0.01 0.0178,0.0891 0.0257,0.17595 0.0204,0.21936 0.1157,0.63968 0.2026,0.89283 0.10029,0.29215 0.30007,0.69949 0.46602,0.95014 0.28406,0.42901 0.76549,0.83043 1.2215,1.01847 0.19765,0.0815 0.71147,0.22266 0.83292,0.22883 0.06,0.003 0.19022,0.0158 0.28912,0.0283 0.22373,0.0284 0.55429,0.002 0.9331,-0.0728 0.21467,-0.0428 0.29206,-0.0679 0.47228,-0.15359 0.11856,-0.0563 0.29813,-0.15709 0.39906,-0.2239 0.23544,-0.15583 0.56244,-0.48042 0.71011,-0.70489 0.20875,-0.31733 0.38723,-0.76112 0.47285,-1.17571 0.0663,-0.32079 0.1359,-0.42518 0.30562,-0.45795 0.10821,-0.021 0.50132,-0.0206 0.68582,0.002 0.17734,0.0204 0.24118,0.0574 0.28411,0.16467 0.0473,0.11811 0.036,0.20871 -0.0865,0.69576 -0.15949,0.63401 -0.17568,0.67213 -0.56311,1.32615 -0.2279,0.38471 -0.58572,0.75422 -0.99428,1.02676 -0.16193,0.10801 -0.49902,0.28677 -0.6269,0.33245 -0.48097,0.17178 -0.82841,0.25487 -1.25202,0.29942 -0.23317,0.0245 -0.74599,0.0338 -0.96547,0.0173 z m 10.14664,-0.002 c -0.0451,-0.008 -0.15479,-0.0152 -0.24383,-0.0159 -0.19266,-0.002 -0.40317,-0.0317 -0.82288,-0.11769 -0.38125,-0.0781 -1.03443,-0.35935 -1.40399,-0.60452 -0.58286,-0.38676 -1.07091,-0.97177 -1.46209,-1.75261 -0.23397,-0.46704 -0.26882,-0.56809 -0.43824,-1.27004 -0.0508,-0.21053 -0.0739,-0.34211 -0.0739,-0.42231 0,-0.049 -0.011,-0.13398 -0.0245,-0.18868 -0.0478,-0.19385 -0.0494,-0.88698 -0.003,-1.3473 0.0403,-0.40027 0.0544,-0.49441 0.10645,-0.71045 0.0253,-0.10519 0.0589,-0.26037 0.0749,-0.34481 0.029,-0.1548 0.2224,-0.65768 0.38295,-0.99628 0.26633,-0.56166 0.86466,-1.25633 1.39737,-1.62233 0.3428,-0.23552 0.91485,-0.50802 1.2356,-0.5886 0.0851,-0.0214 0.20699,-0.0548 0.27072,-0.0742 0.10968,-0.0335 0.1939,-0.0464 0.60368,-0.0926 0.33706,-0.0381 1.01183,-0.0232 1.37544,0.03 0.42862,0.0628 0.85659,0.1969 1.25978,0.39477 0.40019,0.19641 0.91142,0.55547 1.1408,0.80127 0.0781,0.0836 0.17714,0.18884 0.22031,0.23394 0.23111,0.24136 0.58837,0.83651 0.77463,1.29043 0.14151,0.34484 0.3177,0.97686 0.36646,1.31454 0.0365,0.25269 0.0678,0.59929 0.0586,0.64773 -0.004,0.0247 0.002,0.1085 0.013,0.18597 0.0213,0.1393 0.0155,0.28568 -0.0342,0.86956 -0.0317,0.37266 -0.18906,1.07508 -0.31692,1.41427 -0.17831,0.47311 -0.48053,1.0037 -0.8003,1.40511 -0.36896,0.46312 -0.78851,0.80077 -1.33635,1.07551 -0.38692,0.19402 -0.61368,0.276 -0.99058,0.3581 -0.29734,0.0648 -0.38416,0.0778 -0.78382,0.11792 -0.30234,0.0303 -0.41663,0.0323 -0.54599,0.009 z m 0.55616,-1.08298 c 0.37441,-0.0471 0.62195,-0.10612 0.83841,-0.20037 0.77999,-0.33955 1.28118,-0.82062 1.66845,-1.6015 0.28449,-0.5736 0.47756,-1.46468 0.47595,-2.19666 0,-0.12853 -0.0249,-0.48978 -0.0489,-0.71956 -0.032,-0.30493 -0.24132,-1.05301 -0.38932,-1.39145 -0.16608,-0.37986 -0.40761,-0.73342 -0.70509,-1.03217 -0.40409,-0.40581 -0.80241,-0.62502 -1.40996,-0.77593 -0.59269,-0.14724 -1.10586,-0.143 -1.70165,0.0141 -0.36139,0.0953 -0.49622,0.14394 -0.70232,0.25359 -0.53092,0.28243 -0.85882,0.61566 -1.20395,1.22352 -0.22325,0.39319 -0.43552,0.95364 -0.49466,1.306 -0.0201,0.11995 -0.0404,0.22423 -0.045,0.2317 -0.0146,0.0238 -0.0442,0.30637 -0.0645,0.61702 -0.0229,0.34947 -0.006,0.59084 0.0922,1.28426 0.0331,0.23471 0.11567,0.55559 0.1923,0.74688 0.0441,0.11023 0.10134,0.25713 0.12709,0.32649 0.056,0.15075 0.33997,0.62134 0.48383,0.8017 0.25691,0.32204 0.63344,0.61757 1.04497,0.82014 0.25207,0.12407 0.78573,0.28225 0.9617,0.28503 0.0632,0.002 0.1355,0.008 0.16054,0.0163 0.0776,0.0248 0.49108,0.0196 0.72012,-0.009 z m 10.61832,0.86667 c -0.24023,-0.01 -0.26121,-0.0136 -0.33177,-0.0604 -0.0413,-0.0275 -0.0928,-0.0736 -0.11419,-0.1025 -0.0576,-0.0778 -0.18212,-0.376 -0.36247,-0.86775 -0.0883,-0.24046 -0.20745,-0.55553 -0.26499,-0.70015 -0.0575,-0.14463 -0.12898,-0.34136 -0.1587,-0.43721 -0.0297,-0.0958 -0.15868,-0.43654 -0.28654,-0.75716 -0.12787,-0.32061 -0.27833,-0.71 -0.33437,-0.86528 -0.0561,-0.15531 -0.17134,-0.47501 -0.25626,-0.71046 -0.0849,-0.23544 -0.25247,-0.67811 -0.37233,-0.98369 -0.11987,-0.30558 -0.26895,-0.69907 -0.33129,-0.8744 -0.11225,-0.31572 -0.29788,-0.79524 -0.36412,-0.94068 -0.0402,-0.0882 -0.13962,-0.20698 -0.17329,-0.20698 -0.013,0 -0.0407,0.0143 -0.0618,0.0319 -0.0312,0.026 -0.0419,0.0653 -0.0577,0.21405 -0.0127,0.11983 -0.0205,1.34781 -0.0229,3.58867 -0.004,3.78867 0.008,3.47392 -0.1276,3.59229 -0.0844,0.0741 -0.14417,0.0824 -0.54086,0.0751 -0.38405,-0.008 -0.43617,-0.0245 -0.51007,-0.17076 l -0.0456,-0.0902 -0.004,-4.58147 c -0.003,-3.15984 0.002,-4.60191 0.0136,-4.64733 0.028,-0.0964 0.0865,-0.16099 0.18881,-0.20839 0.0887,-0.0411 0.1035,-0.042 0.71449,-0.0439 0.71397,-0.002 0.73744,0.002 0.85296,0.13032 0.0722,0.0807 0.14154,0.23492 0.32556,0.72514 0.0508,0.13526 0.14127,0.37298 0.20112,0.5283 0.0599,0.15528 0.16019,0.4299 0.22298,0.61024 0.0628,0.18034 0.16131,0.44266 0.2189,0.58293 0.0576,0.14027 0.13128,0.33291 0.16373,0.42809 0.0324,0.0952 0.11,0.30013 0.17235,0.45541 0.14311,0.35642 0.29164,0.75304 0.47688,1.27345 0.0798,0.22448 0.21112,0.57697 0.29158,0.78332 0.0805,0.20634 0.16947,0.44074 0.19779,0.52089 0.0284,0.0802 0.14981,0.40396 0.26996,0.71956 0.12014,0.3156 0.24787,0.65169 0.28383,0.74687 0.0894,0.23676 0.11894,0.29005 0.17724,0.32021 0.0752,0.0389 0.1118,0.0319 0.17498,-0.0333 0.0787,-0.0813 0.12452,-0.18859 0.44138,-1.03455 0.15182,-0.40536 0.2993,-0.7944 0.32773,-0.86453 0.0285,-0.0702 0.0986,-0.26278 0.15599,-0.42809 0.0573,-0.16532 0.16553,-0.45222 0.24043,-0.63758 0.17259,-0.42708 0.40448,-1.04162 0.55677,-1.47556 0.17281,-0.49231 0.33923,-0.93433 0.5418,-1.43911 0.0985,-0.24545 0.23598,-0.60204 0.30549,-0.79241 0.0696,-0.19036 0.14862,-0.3994 0.17583,-0.46452 0.0272,-0.0651 0.0728,-0.18614 0.10141,-0.26893 0.0669,-0.1936 0.11144,-0.25429 0.22548,-0.30642 0.15258,-0.0697 0.30781,-0.0829 0.90822,-0.077 l 0.55655,0.006 0.0699,0.0557 c 0.0385,0.0307 0.0863,0.0881 0.10639,0.12752 0.0361,0.0711 0.0365,0.11264 0.0413,4.68747 l 0.004,4.61577 -0.0465,0.0792 c -0.0818,0.13962 -0.19292,0.17046 -0.61513,0.17074 -0.3261,2.3e-4 -0.39178,-0.0126 -0.46548,-0.0918 -0.0995,-0.10678 -0.0956,0.0331 -0.0956,-3.43825 0,-3.33241 -0.008,-3.82989 -0.0582,-3.90739 -0.0488,-0.0747 -0.0983,-0.0738 -0.174,0.003 -0.0713,0.0723 -0.0971,0.13212 -0.34024,0.78545 -0.0728,0.19537 -0.15036,0.39621 -0.17257,0.44631 -0.0515,0.11586 -0.13502,0.34344 -0.29291,0.79722 -0.0689,0.19801 -0.16777,0.46032 -0.2197,0.58293 -0.052,0.1226 -0.12486,0.31307 -0.16203,0.42329 -0.0372,0.11022 -0.12285,0.33563 -0.1904,0.50095 -0.16865,0.41266 -0.29425,0.74692 -0.43814,1.16587 -0.15299,0.44559 -0.34301,0.95074 -0.48651,1.29337 -0.0609,0.14529 -0.14131,0.35432 -0.17882,0.46454 -0.1539,0.45213 -0.30858,0.81049 -0.37516,0.86913 -0.11176,0.0984 -0.2684,0.12332 -0.67307,0.10681 z m 11.89686,-2.3e-4 c -0.27209,-0.011 -0.32434,-0.0274 -0.42333,-0.13273 -0.0554,-0.0591 -0.21453,-0.43449 -0.39962,-0.94324 -0.0857,-0.23543 -0.1991,-0.53466 -0.25207,-0.66489 -0.053,-0.13025 -0.12213,-0.32102 -0.15368,-0.42393 -0.0317,-0.1029 -0.15823,-0.43899 -0.2815,-0.74687 -0.12329,-0.30789 -0.28632,-0.73194 -0.36233,-0.94234 -0.076,-0.21039 -0.19289,-0.5342 -0.25972,-0.71955 -0.0669,-0.18535 -0.20744,-0.55424 -0.31245,-0.81975 -0.105,-0.2655 -0.25881,-0.67128 -0.34182,-0.90172 -0.15903,-0.44151 -0.30715,-0.82303 -0.38686,-0.99654 -0.0536,-0.11664 -0.13474,-0.21487 -0.17745,-0.21487 -0.0498,0 -0.10121,0.0689 -0.10121,0.13573 0,0.0345 -0.008,0.10228 -0.0189,0.15047 -0.0124,0.0579 -0.0201,1.24902 -0.0227,3.53036 l -0.004,3.44275 -0.0508,0.0864 c -0.0825,0.14027 -0.11309,0.14947 -0.52119,0.15639 -0.29418,0.004 -0.36656,0.002 -0.43181,-0.024 -0.10678,-0.0408 -0.18325,-0.13206 -0.20181,-0.24086 -0.008,-0.0481 -0.0149,-2.14486 -0.0149,-4.65967 l 0,-4.57235 0.0373,-0.0636 c 0.0205,-0.0349 0.0772,-0.0882 0.12604,-0.11841 l 0.0887,-0.0549 0.63305,-0.005 c 0.42822,-0.003 0.6576,0.002 0.70901,0.0147 0.1084,0.029 0.22404,0.14276 0.27411,0.26924 0.0226,0.0573 0.0761,0.18695 0.11877,0.28814 0.0425,0.1012 0.11986,0.30205 0.17157,0.44632 0.0517,0.14427 0.14199,0.38534 0.20061,0.53572 0.0586,0.15038 0.14716,0.39219 0.19676,0.53739 0.0496,0.14518 0.13739,0.37874 0.19508,0.51901 0.0577,0.14027 0.13155,0.33291 0.16409,0.42809 0.0326,0.0952 0.11017,0.30011 0.1725,0.45542 0.14098,0.35128 0.23239,0.5953 0.44011,1.17497 0.0898,0.25047 0.22777,0.62346 0.30671,0.82886 0.0789,0.20538 0.17202,0.45131 0.20688,0.54649 0.0826,0.22539 0.44784,1.19026 0.51725,1.36624 0.0296,0.0751 0.0682,0.17588 0.0857,0.22387 0.0415,0.11379 0.10663,0.18943 0.17629,0.20473 0.0474,0.0104 0.0655,0.003 0.11859,-0.0484 0.0344,-0.0333 0.0836,-0.10497 0.10917,-0.15906 0.0547,-0.11558 0.64662,-1.67853 0.8254,-2.17938 0.0679,-0.19037 0.20994,-0.56335 0.31553,-0.82886 0.18909,-0.47544 0.29768,-0.7671 0.60704,-1.63038 0.0861,-0.24046 0.26225,-0.70361 0.39133,-1.02923 0.20693,-0.52212 0.2953,-0.75275 0.59935,-1.56423 0.14204,-0.37905 0.22995,-0.40989 1.14052,-0.4 l 0.54788,0.005 0.0732,0.0485 c 0.0403,0.0267 0.0889,0.0799 0.10793,0.11841 0.0339,0.0681 0.0349,0.19141 0.0439,4.65141 0.004,2.5198 0.003,4.6149 -0.004,4.65571 -0.008,0.0408 -0.0384,0.10329 -0.0676,0.13882 -0.0785,0.0952 -0.21276,0.12399 -0.57741,0.12386 -0.32254,-2.2e-4 -0.39646,-0.014 -0.46435,-0.0863 -0.11105,-0.11851 -0.1056,0.0611 -0.10688,-3.53239 -0.002,-1.8019 -0.008,-3.39281 -0.0151,-3.53535 -0.0111,-0.20724 -0.0201,-0.26621 -0.0456,-0.29421 -0.0541,-0.0599 -0.0976,-0.0588 -0.16343,0.004 -0.0616,0.0587 -0.17894,0.33152 -0.35781,0.8318 -0.0412,0.11522 -0.11031,0.29557 -0.15363,0.40077 -0.11103,0.26974 -0.17843,0.45161 -0.31049,0.83797 -0.0633,0.18534 -0.14818,0.41181 -0.1885,0.50325 -0.0402,0.0914 -0.11581,0.28816 -0.16778,0.43718 -0.052,0.14904 -0.14362,0.38984 -0.20363,0.53511 -0.15084,0.36512 -0.27715,0.70187 -0.44752,1.19319 -0.1713,0.49391 -0.33512,0.92944 -0.4708,1.25173 -0.0539,0.12784 -0.15214,0.38626 -0.2185,0.57425 -0.13402,0.37969 -0.25527,0.65868 -0.32356,0.74449 -0.0993,0.12475 -0.24816,0.15389 -0.69434,0.13589 z"
       inkscape:connector-curvature="0"
       sodipodi:nodetypes="cssscscccsccsccssssscccssscccccscccccsccccccscccsssccccccscscsscccssccccsccsccccssscccccssccssscsscccccccsccccccccccsccsccsccsscsccccccccccccsscccccscccccccccccccscccccccscsccsccccccccsccsscsscsscscccccscccccccccscccccccccccscsccsccccccscsccccccsccccccccc"
       id="path4981"
       clip-path="none" />
    <path
       inkscape:connector-curvature="0"
       d="m 136.90628,175.43131 c -3.64422,-0.86936 -10.68349,-2.53826 -15.6429,-3.70871 -4.95936,-1.17044 -9.10454,-2.15476 -9.21152,-2.1874 -0.107,-0.0327 -0.39444,-0.1033 -0.63885,-0.15671 -0.73925,-0.16201 -0.95864,0.9943 2.94519,-15.52458 2.21172,-9.35887 2.92439,-12.31954 3.41841,-14.20125 l 0.16442,-0.6264 0.70613,0.0969 c 0.79971,0.10964 7.28377,1.62317 8.49645,1.98329 0.69727,0.20706 0.84205,0.32956 1.18157,0.99958 0.78777,1.5546 16.09575,34.6371 16.09575,34.78496 0,0.29233 -0.91996,0.1137 -7.51465,-1.45958 z m -33.63646,-2.69696 c -0.80712,-0.97112 -10.429217,-13.03669 -16.925586,-21.2237 -2.010052,-2.53319 -3.655075,-4.6812 -3.655636,-4.7734 -0.001,-0.23193 4.801233,-4.08937 16.886652,-13.56323 6.82972,-5.35385 7.13038,-5.58103 7.38682,-5.58103 0.36466,0 6.26899,7.53681 6.26899,8.00226 0,0.11957 -1.04999,4.67652 -2.33333,10.12678 -5.05305,21.46021 -6.54336,27.63258 -6.71755,27.8218 -0.0686,0.0746 -0.47832,-0.28969 -0.91036,-0.80948 z m 44.09794,-4.13391 c -0.70835,-0.87653 -13.19405,-27.5181 -13.02482,-27.79194 0.1076,-0.17407 4.60207,-2.37042 7.52766,-3.67857 l 1.5706,-0.70228 0.69187,0.30376 c 0.69831,0.30656 20.06851,10.07666 29.25239,14.75458 2.73137,1.39123 4.96757,2.62318 4.96937,2.73764 0.002,0.11441 -0.8512,0.6121 -1.89558,1.10584 -10.8912,5.14912 -28.73083,13.47297 -28.8752,13.47297 -0.0292,0 -0.12656,-0.091 -0.21629,-0.202 z M 74.373624,141.28906 c -0.06036,-3.04424 -0.08693,-10.771 -0.05922,-17.1706 l 0.05047,-11.6356 15.554526,-0.0412 15.55457,-0.0412 0,5.22079 0,5.22079 -9.97188,7.82967 c -15.705889,12.33189 -20.633522,16.15236 -20.833265,16.15236 -0.134026,0 -0.21611,-1.5385 -0.295254,-5.53497 z m 93.034066,1.06958 c -11.79035,-5.96121 -19.16665,-9.76616 -19.43142,-10.02339 -0.21457,-0.20847 -0.0315,-0.64749 1.59343,-3.82213 2.34207,-4.57566 2.7344,-5.23224 3.24405,-5.42896 0.80636,-0.31129 36.91244,-7.44998 37.68038,-7.44998 0.16917,0 0.30762,0.10436 0.30762,0.23209 0,0.5666 -14.62457,29.23861 -15.31652,30.02857 -0.13621,0.15554 -0.30989,0.28279 -0.38592,0.28279 -0.076,0 -3.53725,-1.71854 -7.69162,-3.81899 z M 152.83688,116.9347 c -0.17566,-0.10842 -1.10622,-4.56209 -1.72826,-8.27107 l -0.28819,-1.71836 0.8113,-0.94814 c 7.58344,-8.862655 19.20474,-22.35154 23.40467,-27.165844 0.7159,-0.820636 1.38653,-1.49332 1.49027,-1.494852 0.22885,-0.0032 0.1161,-0.526695 2.29993,10.66333 3.7035,18.975856 4.38339,22.680376 4.21311,22.955896 -0.13426,0.21734 -3.68087,0.95159 -19.0645,3.94692 -5.73297,1.11624 -10.54277,2.05584 -10.68846,2.08797 -0.14571,0.0322 -0.34816,0.007 -0.44987,-0.0559 z m -67.836263,-7.28824 c -0.655113,-0.20005 -1.416613,-1.11897 -1.666291,-2.01076 -0.122822,-0.43867 -0.173101,-1.51168 -0.137399,-2.93213 0.05279,-2.0984 0.08438,-2.28789 0.498444,-2.99236 1.151126,-1.958162 4.112478,-1.899452 5.128897,0.1017 0.382971,0.75403 0.408369,0.9551 0.408369,3.23212 0,2.26746 -0.0268,2.48135 -0.404012,3.23339 -0.232082,0.46262 -0.610326,0.92217 -0.888835,1.07992 -0.597759,0.33856 -2.245187,0.50006 -2.939173,0.28815 z m 2.026916,-1.19162 c 0.244924,-0.12667 0.545229,-0.43573 0.66732,-0.68683 0.310441,-0.63839 0.418553,-3.91124 0.159745,-4.83564 -0.372762,-1.33131 -1.56828,-1.90068 -2.481914,-1.18201 -0.771842,0.60712 -0.907398,1.09109 -0.907398,3.23959 0,1.65312 0.0535,2.08754 0.326348,2.65122 0.478169,0.98778 1.312247,1.29132 2.235899,0.81367 z m 6.588215,0.89978 c -0.304397,-0.24084 -0.180103,-0.44303 -0.233674,-2.82203 -0.03698,-1.63982 -0.127825,-3.07966 -0.201947,-3.19965 -0.0766,-0.12376 -0.540142,-0.2542 -1.071523,-0.30148 -0.818831,-0.0729 -0.943208,-0.12918 -0.988426,-0.44768 -0.02837,-0.20055 0.04428,-0.39232 0.1616,-0.4266 1.253243,-0.36579 1.765678,-0.65299 2.083982,-1.16802 0.25018,-0.40479 0.445447,-0.54965 0.693268,-0.51431 0.341453,0.0487 0.34545,0.0947 0.388022,4.47361 0.0468,4.80801 0.202975,5.22449 -0.831302,4.40616 z m 8.147022,0.14915 c -0.092,-0.17192 -0.16731,-0.6057 -0.16731,-0.96394 0,-0.83937 -0.27172,-0.98595 -1.827636,-0.98595 -0.661347,0 -1.429719,-0.0455 -1.707486,-0.10102 -0.755409,-0.15107 -0.672047,-0.73234 0.324397,-2.26194 1.178343,-1.8088 3.366345,-4.71081 3.627305,-4.81094 0.12124,-0.0465 0.33166,0.0266 0.46758,0.16247 0.20114,0.20111 0.24753,0.73343 0.24955,2.86163 0.001,1.43799 0.0217,2.80858 0.087,2.89927 0.0652,0.0907 0.35297,0.13292 0.5974,0.24031 0.60966,0.26786 0.59549,0.81276 -0.0268,1.02967 -0.40977,0.14284 -0.48554,0.26869 -0.58135,0.96543 -0.15491,1.12617 -0.69092,1.62227 -1.04268,0.96499 z m -0.39354,-3.13602 c 0.40692,-0.15471 0.22623,-0.29004 0.22623,-1.88038 0,-1.24876 -0.0497,-1.62004 -0.2172,-1.62004 -0.31272,0 -2.38533,3.13022 -2.274165,3.41988 0.107238,0.27953 1.606755,0.33087 2.265135,0.0805 z m -25.692969,3.02206 c -0.125025,-0.39397 0.108255,-1.20661 0.552955,-1.92612 0.19381,-0.31361 1.052968,-1.06319 1.937145,-1.69009 1.808882,-1.28254 2.258777,-1.81215 2.258777,-2.65904 0,-0.76045 -0.217129,-1.15372 -0.804795,-1.45761 -0.987515,-0.51065 -1.919884,-0.0988 -2.401862,1.06092 -0.182811,0.43987 -0.446055,0.84338 -0.584988,0.8967 -0.644521,0.24733 -0.961919,-0.80874 -0.506256,-1.68451 0.761762,-1.46407 2.635544,-2.045422 4.141148,-1.28481 0.981221,0.49569 1.449605,1.23643 1.449605,2.29253 0,1.30881 -0.501909,2.11573 -1.939268,3.11779 -0.666623,0.46476 -1.539294,1.13652 -1.939267,1.49283 -0.701096,0.62457 -0.71597,0.65663 -0.413537,0.89228 0.237318,0.18493 0.753894,0.24445 2.121493,0.24445 1.431837,0 1.935538,-0.0208 2.099398,0.17661 0.410519,0.49466 -0.02451,0.71526 -2.921787,0.79495 -2.666392,0.0734 -2.956219,0.0247 -3.048761,-0.26688 z m 69.444949,-8.90617 c -3.72179,-3.175267 -4.75215,-4.11909 -4.97981,-4.56167 -0.13665,-0.265593 -0.18572,-0.802 -0.14079,-1.538941 0.038,-0.622182 0.35746,-7.349013 0.71,-14.948518 0.72111,-15.542687 1.09142,-22.483826 1.20563,-22.598029 0.0426,-0.04268 0.21622,-0.01161 0.38574,0.06907 0.29953,0.142464 13.44009,11.455512 21.59244,18.589496 2.22208,1.944504 4.04014,3.622021 4.04014,3.727823 0,0.105802 -4.14518,4.975232 -9.21153,10.82096 -9.56156,11.032489 -10.86082,12.500289 -11.06496,12.500289 -0.0669,0 -1.20855,-0.92721 -2.53686,-2.06047 z m -36.73831,-0.0547 c -1.19993,-0.35292 -4.79969,-1.408962 -7.99947,-2.34678 -6.908648,-2.024817 -23.095683,-6.824789 -25.331678,-7.511639 -0.866604,-0.26621 -1.575654,-0.539349 -1.575654,-0.606982 0,-0.304585 27.462032,-19.809605 27.900172,-19.816215 0.27488,-0.0039 1.52325,1.647324 6.04299,7.994251 9.52334,13.373275 11.83258,16.672215 11.85272,16.932526 0.0362,0.469387 -7.63141,6.012309 -8.30339,6.002439 -0.22222,-0.003 -1.38578,-0.29468 -2.58569,-0.6476 z m 23.91763,-6.232131 c -0.39998,-0.02687 -2.08841,-0.128915 -3.75208,-0.226747 -1.66369,-0.09783 -3.22566,-0.231592 -3.47108,-0.297226 -0.29942,-0.08008 -0.70948,-0.487915 -1.24656,-1.23987 -0.44018,-0.616299 -3.41689,-4.829387 -6.61488,-9.362425 -3.198,-4.533037 -7.882,-11.172168 -10.40886,-14.753631 -2.52688,-3.581461 -4.55753,-6.607542 -4.51261,-6.724625 0.0564,-0.146938 0.3237,-0.195579 0.86299,-0.157025 0.4297,0.03072 2.49026,0.133591 4.57901,0.228598 3.3865,0.154044 15.96009,0.798114 25.40265,1.301224 1.89418,0.100907 3.47082,0.208247 3.50366,0.238498 0.0329,0.03027 -0.24332,5.858059 -0.61372,12.950691 -0.98172,18.800671 -0.91995,17.848048 -1.16735,18.004821 -0.20846,0.132106 -0.98579,0.143558 -2.56117,0.03769 z"
       id="path2989-7"
       style="fill:#ffffff;fill-opacity:1" />
    <path
       id="path5793"
       style="fill:#ffffff;fill-opacity:1"
       d="m 76.547164,193.20383 c -0.04509,-0.008 -0.154793,-0.0152 -0.243825,-0.0159 -0.192677,-0.002 -0.403177,-0.0317 -0.822893,-0.11768 -0.381243,-0.0781 -1.034424,-0.35934 -1.403971,-0.60453 -0.582882,-0.38674 -1.070922,-0.97176 -1.4621,-1.75262 -0.233969,-0.46702 -0.268827,-0.56808 -0.438248,-1.27003 -0.05078,-0.21053 -0.07382,-0.34212 -0.07382,-0.42231 0,-0.049 -0.01107,-0.13396 -0.02456,-0.18867 -0.04785,-0.19385 -0.04942,-0.88698 -0.0035,-1.3473 0.04033,-0.40027 0.05447,-0.49441 0.106436,-0.71044 0.02528,-0.10522 0.059,-0.26038 0.07489,-0.34483 0.02919,-0.15481 0.222402,-0.65767 0.382962,-0.99627 0.266313,-0.56167 0.864647,-1.25633 1.397366,-1.62234 0.342799,-0.23551 0.914837,-0.508 1.235593,-0.58858 0.08517,-0.0213 0.206993,-0.0548 0.270731,-0.0743 0.109675,-0.0335 0.193899,-0.0464 0.603681,-0.0926 0.337046,-0.038 1.011813,-0.0232 1.375424,0.03 0.428628,0.0628 0.856595,0.1969 1.259787,0.39477 0.400196,0.1964 0.911427,0.55547 1.140795,0.80126 0.078,0.0836 0.177141,0.18884 0.220315,0.23394 0.231121,0.24137 0.588377,0.83651 0.774628,1.29043 0.141508,0.34485 0.317696,0.97687 0.366459,1.31455 0.0365,0.25268 0.06781,0.59927 0.05858,0.64772 -0.0043,0.0247 0.0014,0.1085 0.01293,0.18598 0.0213,0.13928 0.01548,0.28567 -0.03415,0.86955 -0.03167,0.37266 -0.189063,1.07508 -0.316908,1.41428 -0.17832,0.47311 -0.48055,1.0037 -0.800312,1.40509 -0.368958,0.46314 -0.788518,0.80079 -1.336356,1.07553 -0.38691,0.19402 -0.613678,0.276 -0.990575,0.3581 -0.297345,0.0647 -0.384162,0.0778 -0.78381,0.11792 -0.302352,0.0304 -0.416647,0.0322 -0.545999,0.009 z m 0.556154,-1.08298 c 0.374411,-0.047 0.621958,-0.10611 0.838424,-0.20035 0.779981,-0.33955 1.281166,-0.82065 1.668438,-1.60151 0.284492,-0.57361 0.47756,-1.46468 0.475961,-2.19666 0,-0.12853 -0.02492,-0.48978 -0.04907,-0.71955 -0.03202,-0.30494 -0.241327,-1.05301 -0.38931,-1.39146 -0.166084,-0.37985 -0.407615,-0.73342 -0.705104,-1.03217 -0.404086,-0.40581 -0.802406,-0.62502 -1.409956,-0.77594 -0.592695,-0.14723 -1.10586,-0.143 -1.70165,0.0141 -0.361395,0.0953 -0.496215,0.14394 -0.70232,0.25358 -0.530923,0.28244 -0.858824,0.61566 -1.20395,1.22352 -0.223254,0.3932 -0.435524,0.95364 -0.49466,1.306 -0.02016,0.11995 -0.04041,0.22423 -0.04503,0.23172 -0.01463,0.0237 -0.04423,0.30636 -0.06455,0.617 -0.02286,0.34949 -0.0056,0.59086 0.09217,1.28427 0.03308,0.23471 0.115681,0.55558 0.192314,0.74689 0.0441,0.11021 0.101323,0.25712 0.127078,0.32648 0.05596,0.15074 0.339965,0.62133 0.483831,0.80169 0.256905,0.32205 0.63344,0.61757 1.044968,0.82016 0.252077,0.12408 0.785735,0.28223 0.961711,0.28501 0.06327,0.002 0.135492,0.008 0.160537,0.0164 0.07756,0.0248 0.49108,0.0196 0.720107,-0.009 z"
       inkscape:connector-curvature="0"
       sodipodi:nodetypes="ccscscsscccssccccsccsccccssscccccssccssscsscccccccscccc" />
  </g>
</svg>
