<?xml version="1.0" encoding="UTF-8" standalone="no"?>
<!-- Created with Inkscape (http://www.inkscape.org/) -->

<svg
   xmlns:dc="http://purl.org/dc/elements/1.1/"
   xmlns:cc="http://creativecommons.org/ns#"
   xmlns:rdf="http://www.w3.org/1999/02/22-rdf-syntax-ns#"
   xmlns:svg="http://www.w3.org/2000/svg"
   xmlns="http://www.w3.org/2000/svg"
   xmlns:xlink="http://www.w3.org/1999/xlink"
   xmlns:sodipodi="http://sodipodi.sourceforge.net/DTD/sodipodi-0.dtd"
   xmlns:inkscape="http://www.inkscape.org/namespaces/inkscape"
   width="256"
   height="256"
   id="svg17894"
   version="1.1"
   inkscape:version="0.48.2 r9819"
   viewBox="0 0 256 256"
   sodipodi:docname="froscon2014.svg"
   inkscape:export-filename="/home/gnokii/Documents/Fedora/badges/froscon2014.png"
   inkscape:export-xdpi="90"
   inkscape:export-ydpi="90">
  <defs
     id="defs17896">
    <linearGradient
       id="linearGradient9729-8-86-8-4-2-2-9">
      <stop
         style="stop-color:#ffffff;stop-opacity:1;"
         offset="0"
         id="stop9731-9-7-1-0-3-0-5" />
      <stop
         style="stop-color:#ffffff;stop-opacity:0;"
         offset="1"
         id="stop9733-8-1-49-6-9-9-7" />
    </linearGradient>
    <linearGradient
       id="linearGradient17733">
      <stop
         style="stop-color:#ffffff;stop-opacity:1;"
         offset="0"
         id="stop17735" />
      <stop
         style="stop-color:#ffffff;stop-opacity:0;"
         offset="1"
         id="stop17737" />
    </linearGradient>
    <filter
       style="color-interpolation-filters:sRGB"
       id="filter12302-0-4-9-8-4-0-6"
       inkscape:label="Drop shadow"
       width="1.5"
       height="1.5"
       x="-0.25"
       y="-0.25">
      <feGaussianBlur
         id="feGaussianBlur12304-3-9-0-6-6-0-7"
         in="SourceAlpha"
         stdDeviation="4.5"
         result="blur" />
      <feColorMatrix
         id="feColorMatrix12306-9-7-23-3-2-9-6"
         result="bluralpha"
         type="matrix"
         values="-1 0 0 0 1 0 -1 0 0 1 0 0 -1 0 1 0 0 0 1 0 " />
      <feOffset
         id="feOffset12308-7-3-5-9-3-2-4"
         in="bluralpha"
         dx="0"
         dy="0"
         result="offsetBlur" />
      <feMerge
         id="feMerge12310-05-1-9-3-7-6-4">
        <feMergeNode
           id="feMergeNode12312-4-0-01-6-9-7-8"
           in="offsetBlur" />
        <feMergeNode
           id="feMergeNode12314-7-2-3-8-4-7-6"
           in="SourceGraphic" />
      </feMerge>
    </filter>
    <inkscape:path-effect
       effect="spiro"
       id="path-effect25895-4-3-6-1-7-6"
       is_visible="true" />
    <inkscape:path-effect
       is_visible="true"
       id="path-effect25882-7-7-9-9-8-8"
       effect="spiro" />
    <inkscape:path-effect
       is_visible="true"
       id="path-effect25882-3-6-18-0-9-8-3"
       effect="spiro" />
    <filter
       style="color-interpolation-filters:sRGB"
       id="filter12964-6-9-4-1-0-9-6"
       inkscape:label="Drop shadow"
       width="1.5"
       height="1.5"
       x="-0.25"
       y="-0.25">
      <feGaussianBlur
         id="feGaussianBlur12966-3-37-0-5-2-4-2"
         in="SourceAlpha"
         stdDeviation="0.5"
         result="blur" />
      <feColorMatrix
         id="feColorMatrix12968-9-4-2-3-4-9-1"
         result="bluralpha"
         type="matrix"
         values="-1 0 0 0 1 0 -1 0 0 1 0 0 -1 0 1 0 0 0 0.85 0 " />
      <feOffset
         id="feOffset12970-7-8-4-8-2-6-2"
         in="bluralpha"
         dx="-2"
         dy="-1"
         result="offsetBlur" />
      <feMerge
         id="feMerge12972-9-0-41-2-8-5-1">
        <feMergeNode
           id="feMergeNode12974-4-4-9-8-1-8-9"
           in="offsetBlur" />
        <feMergeNode
           id="feMergeNode12976-2-0-0-1-0-9-0"
           in="SourceGraphic" />
      </feMerge>
    </filter>
    <filter
       style="color-interpolation-filters:sRGB"
       inkscape:collect="always"
       id="filter2620">
      <feGaussianBlur
         inkscape:collect="always"
         stdDeviation="0.78000015"
         id="feGaussianBlur2622" />
    </filter>
    <linearGradient
       inkscape:collect="always"
       xlink:href="#linearGradient3336"
       id="linearGradient3342"
       x1="512"
       y1="663"
       x2="512"
       y2="597"
       gradientUnits="userSpaceOnUse"
       gradientTransform="matrix(2.4052962,0,0,2.4052962,-1109.5248,-592.17708)" />
    <linearGradient
       inkscape:collect="always"
       id="linearGradient3336">
      <stop
         style="stop-color:#d1d3d4;stop-opacity:1;"
         offset="0"
         id="stop3338" />
      <stop
         style="stop-color:#e7e8e9;stop-opacity:1"
         offset="1"
         id="stop3340" />
    </linearGradient>
    <inkscape:path-effect
       effect="spiro"
       id="path-effect25895"
       is_visible="true" />
    <inkscape:path-effect
       is_visible="true"
       id="path-effect25882"
       effect="spiro" />
    <inkscape:path-effect
       is_visible="true"
       id="path-effect25882-3"
       effect="spiro" />
    <inkscape:perspective
       id="perspective3412"
       inkscape:persp3d-origin="372.04724 : 350.78739 : 1"
       inkscape:vp_z="744.09448 : 526.18109 : 1"
       inkscape:vp_y="0 : 1000 : 0"
       inkscape:vp_x="0 : 526.18109 : 1"
       sodipodi:type="inkscape:persp3d" />
    <inkscape:perspective
       sodipodi:type="inkscape:persp3d"
       inkscape:vp_x="0 : 0.5 : 1"
       inkscape:vp_y="0 : 1000 : 0"
       inkscape:vp_z="1 : 0.5 : 1"
       inkscape:persp3d-origin="0.5 : 0.33333333 : 1"
       id="perspective3373" />
    <mask
       id="id6">
      <linearGradient
         y2="2.3961301"
         x2="3.27019"
         y1="1.96386"
         x1="3.27019"
         gradientUnits="userSpaceOnUse"
         id="id7">
        <stop
           id="stop3128"
           style="stop-opacity:1; stop-color:white"
           offset="0" />
        <stop
           id="stop3130"
           style="stop-opacity:0; stop-color:white"
           offset="1" />
      </linearGradient>
      <rect
         id="rect3132"
         height="0.465563"
         width="0.65544897"
         y="1.94721"
         x="2.9424601"
         style="fill:url(#id7)" />
    </mask>
    <linearGradient
       y2="2.3961301"
       x2="3.27019"
       y1="1.96386"
       x1="3.27019"
       gradientUnits="userSpaceOnUse"
       id="linearGradient3382">
      <stop
         id="stop3384"
         style="stop-opacity:1; stop-color:white"
         offset="0" />
      <stop
         id="stop3386"
         style="stop-opacity:0; stop-color:white"
         offset="1" />
    </linearGradient>
    <radialGradient
       fy="2.1879101"
       fx="3.27019"
       r="0.420028"
       cy="2.1879101"
       cx="3.27019"
       xlink:href="#id12"
       gradientUnits="userSpaceOnUse"
       id="id14" />
    <radialGradient
       fy="9.7279596"
       fx="1.71676"
       r="0.29498801"
       cy="9.7279596"
       cx="1.71676"
       gradientUnits="userSpaceOnUse"
       id="id12">
      <stop
         id="stop3151"
         style="stop-color:#75C5F0"
         offset="0" />
      <stop
         id="stop3153"
         style="stop-color:#007CC3"
         offset="1" />
    </radialGradient>
  </defs>
  <sodipodi:namedview
     id="base"
     pagecolor="#ffffff"
     bordercolor="#666666"
     borderopacity="1.0"
     inkscape:pageopacity="0.0"
     inkscape:pageshadow="2"
     inkscape:zoom="1.979899"
     inkscape:cx="-254.27981"
     inkscape:cy="118.70182"
     inkscape:document-units="px"
     inkscape:current-layer="layer1"
     showgrid="false"
     units="px"
     inkscape:showpageshadow="false"
     borderlayer="true"
     inkscape:window-width="2560"
     inkscape:window-height="1392"
     inkscape:window-x="0"
     inkscape:window-y="0"
     inkscape:window-maximized="1" />
  <metadata
     id="metadata17899">
    <rdf:RDF>
      <cc:Work
         rdf:about="">
        <dc:format>image/svg+xml</dc:format>
        <dc:type
           rdf:resource="http://purl.org/dc/dcmitype/StillImage" />
        <dc:title></dc:title>
      </cc:Work>
    </rdf:RDF>
  </metadata>
  <g
     inkscape:label="Ebene 1"
     inkscape:groupmode="layer"
     id="layer1"
     transform="translate(0,-796.3622)">
    <path
       style="fill:#db3279;fill-opacity:1;stroke:#58595b;stroke-width:4.50271511;stroke-linejoin:round;stroke-miterlimit:4;stroke-dasharray:none;stroke-opacity:1;filter:url(#filter2620)"
       id="path6672"
       d="m 134.00002,125.00183 c 0,-21.53997 -17.46062,-39.00185 -38.999836,-39.00185 -21.529216,0 -38.982968,17.44751 -38.998584,38.97439 l -0.0016,-10e-4 0,30.18098 0.0016,9.9e-4 c 0.01184,4.88773 3.975508,8.84465 8.866181,8.84465 0.01374,0 0.02745,-9.9e-4 0.04187,-9.9e-4 l 0.0024,9.9e-4 30.10304,0 0,0 c 21.533049,-0.009 38.984919,-17.46443 38.984919,-38.99816 z"
       inkscape:connector-curvature="0"
       transform="matrix(2.6709398,0,0,2.6709398,-125.73927,590.49477)"
       inkscape:export-filename="/home/duffy/Documents/Work/Projects/FedBadges/Badges/flock-2013-attendee.png"
       inkscape:export-xdpi="90"
       inkscape:export-ydpi="90" />
    <path
       style="color:#000000;font-style:normal;font-variant:normal;font-weight:normal;font-stretch:normal;font-size:xx-small;line-height:normal;font-family:sans-serif;-inkscape-font-specification:sans-serif;text-indent:0;text-align:start;text-decoration:none;text-decoration-line:none;text-decoration-color:currentColor;letter-spacing:normal;word-spacing:normal;text-transform:none;direction:ltr;block-progression:tb;writing-mode:lr-tb;baseline-shift:baseline;text-anchor:start;display:inline;overflow:visible;visibility:visible;fill:#ffffff;fill-opacity:1;fill-rule:nonzero;stroke:none;stroke-width:4;marker:none;enable-background:accumulate"
       d="m 128.00002,813.65108 c -60.160039,0 -109.0111,48.69046 -109.425075,108.75732 -5.78e-4,0.0847 3.84e-4,0.16573 0,0.25039 a 5.3424137,5.3424137 0 0 0 -0.08346,0.25042 c -1.2e-4,0.0565 4.8e-5,0.1104 0,0.16692 l 0,80.62897 a 5.3424137,5.3424137 0 0 0 0.417343,2.0867 5.3424137,5.3424137 0 0 0 0,0.084 c 1.148938,14.2138 12.454551,25.3807 26.709395,26.3755 0.08924,0 0.160914,0.078 0.250391,0.083 a 5.3424137,5.3424137 0 0 0 0.250416,0.083 5.3424137,5.3424137 0 0 0 1.418932,0.2504 5.3424137,5.3424137 0 0 0 0.08346,0 l 80.378598,0 a 5.3424137,5.3424137 0 0 0 0.0835,0 c 59.91229,-0.024 108.4758,-48.35856 109.25812,-108.08957 a 5.3424137,5.3424137 0 0 0 0.0835,-0.33385 c 5.5e-4,-0.0563 -4.8e-4,-0.11041 0,-0.16693 a 5.3424137,5.3424137 0 0 0 0.0835,-0.91813 c 0,-60.4188 -49.09147,-109.50854 -109.50852,-109.50854 z"
       id="path6674"
       inkscape:connector-curvature="0"
       inkscape:export-filename="/home/duffy/Documents/Work/Projects/FedBadges/Badges/flock-2013-attendee.png"
       inkscape:export-xdpi="90"
       inkscape:export-ydpi="90" />
    <path
       inkscape:connector-curvature="0"
       d="m 206.17126,924.36585 c 0,-43.17497 -34.99834,-78.1758 -78.17186,-78.1758 -43.153446,0 -78.13795,34.97204 -78.169267,78.12072 l -0.0022,-0.002 0,60.49517 0.0022,0.002 c 0.02429,9.79696 7.968602,17.72833 17.771507,17.72833 0.02742,0 0.05508,-0 0.08394,-0 l 0.0048,0 60.338944,0 0,0 c 43.1611,-0.017 78.14187,-35.00591 78.14187,-78.16845 z"
       id="path6676"
       style="fill:url(#linearGradient3342);fill-opacity:1;stroke:none"
       inkscape:export-filename="/home/duffy/Documents/Work/Projects/FedBadges/Badges/flock-2013-attendee.png"
       inkscape:export-xdpi="90"
       inkscape:export-ydpi="90" />
    <path
       inkscape:connector-curvature="0"
       d="m 220.93232,924.36631 c 0,-51.32736 -41.60679,-92.93706 -92.93242,-92.93706 -51.301742,0 -92.89208,41.57545 -92.929338,92.87161 l -0.0023,-0.002 0,71.91795 0.0023,0.002 c 0.0279,11.64689 9.473235,21.07579 21.12716,21.07579 0.03247,0 0.06542,0 0.09982,0 l 0.0072,0 71.732228,0 0,0 c 51.3094,-0.022 92.89526,-41.61572 92.89526,-92.92827 z"
       id="path6678"
       style="fill:none;stroke:#a07cbc;stroke-width:12.02648067;stroke-linejoin:round;stroke-miterlimit:4;stroke-dasharray:none;stroke-opacity:1"
       inkscape:export-filename="/home/duffy/Documents/Work/Projects/FedBadges/Badges/flock-2013-attendee.png"
       inkscape:export-xdpi="90"
       inkscape:export-ydpi="90" />
    <g
       id="g3577"
       transform="matrix(0.87961851,0,0,0.87961851,20.206261,114.08461)">
      <ellipse
         class="fil1"
         cx="93.52581"
         cy="985.66663"
         rx="5.1610637"
         ry="0.59355563"
         id="ellipse3221"
         style="fill:#dededd;fill-rule:evenodd"
         d="m 98.686874,985.66663 c 0,0.32781 -2.310687,0.59355 -5.161064,0.59355 -2.850377,0 -5.161063,-0.26574 -5.161063,-0.59355 0,-0.32782 2.310686,-0.59356 5.161063,-0.59356 2.850377,0 5.161064,0.26574 5.161064,0.59356 z"
         sodipodi:cx="93.52581"
         sodipodi:cy="985.66663"
         sodipodi:rx="5.1610637"
         sodipodi:ry="0.59355563" />
      <path
         class="fil2"
         d="m 62.761824,967.17175 0,4.68008 4.508027,0 c 0.665256,0 1.215871,0.22954 1.651766,0.68827 0.43582,0.4588 0.653882,1.00941 0.653882,1.65176 0,0.64228 -0.218012,1.18724 -0.653882,1.63453 -0.43592,0.44733 -0.986611,0.67102 -1.651766,0.67102 l -4.508027,0 0,5.67799 c 0,0.66525 -0.223648,1.22171 -0.671021,1.66903 -0.44732,0.44732 -1.003648,0.67102 -1.66893,0.67102 -0.665358,0 -1.221814,-0.22364 -1.669033,-0.67102 -0.447321,-0.44732 -0.671019,-1.00365 -0.671019,-1.66903 l 0,-17.30918 c 0,-0.59651 0.223903,-1.13569 0.671019,-1.61739 0.447322,-0.4817 1.003649,-0.72268 1.669033,-0.72268 l 9.1536,0 c 0.642277,0 1.187204,0.22956 1.634525,0.68827 0.447219,0.4588 0.67102,1.00941 0.67102,1.65176 0,0.66526 -0.223647,1.21598 -0.67102,1.65178 -0.447218,0.43581 -0.992351,0.65377 -1.634525,0.65377 l -6.813676,0 z m 10.755051,17.37809 c -0.619475,0 -1.135685,-0.20086 -1.5486,-0.60224 -0.412814,-0.40141 -0.688262,-0.93325 -0.688262,-1.60015 l 0,-6.36624 c 0,-1.1014 0.258207,-2.13924 0.705502,-3.11425 0.447322,-0.9749 1.043793,-1.82395 1.789362,-2.54651 0.745545,-0.72267 1.617489,-1.29615 2.615399,-1.72054 0.997909,-0.42432 2.05843,-0.67639 3.183126,-0.70552 0.641969,-0.0166 1.175726,0.21802 1.600145,0.65389 0.424316,0.43581 0.682523,0.9623 0.7054,1.58288 0.02289,0.61897 -0.218012,1.14143 -0.65378,1.56574 -0.435818,0.42441 -0.974801,0.65851 -1.617385,0.67113 -0.527507,0.01 -1.02089,0.0975 -1.479714,0.29248 -0.458695,0.19495 -0.860339,0.46456 -1.204471,0.80869 -0.344129,0.34413 -0.619373,0.75131 -0.82583,1.22161 -0.206484,0.47029 -0.309751,0.98085 -0.309751,1.53136 l 0,6.26295 c 0,0.59812 -0.269608,1.08979 -0.671021,1.47972 -0.401413,0.39001 -0.934864,0.585 -1.600145,0.585 z m 38.054195,-17.37809 c -0.55059,0 -1.01515,0.20086 -1.39368,0.60225 -0.37854,0.40151 -0.57933,0.90047 -0.60224,1.49695 0.0229,0.5276 0.22365,0.98074 0.60224,1.35928 0.37853,0.37853 0.84307,0.56772 1.39368,0.56772 l 2.34005,0 c 0.84885,0 1.66894,0.17216 2.46046,0.51622 0.79146,0.34412 1.49686,0.82019 2.11634,1.42806 0.61936,0.60798 1.11257,1.31913 1.47971,2.13357 0.36704,0.81443 0.55058,1.68041 0.55058,2.59813 0,0.89473 -0.17214,1.74356 -0.5162,2.54651 -0.34414,0.80295 -0.81444,1.5026 -1.41093,2.09909 -0.59647,0.59647 -1.29613,1.07254 -2.09909,1.42807 -0.80295,0.35563 -1.66327,0.54494 -2.58089,0.56783 l -6.12538,0 c -0.68827,0 -1.25026,-0.22364 -1.68618,-0.67102 -0.43592,-0.44742 -0.65387,-1.00365 -0.65387,-1.66903 0,-0.61938 0.22364,-1.15849 0.671,-1.61739 0.44743,-0.4588 1.00376,-0.68816 1.66905,-0.68816 l 6.12538,0 c 0.52758,0 0.99791,-0.19496 1.41083,-0.5851 0.41302,-0.3899 0.61948,-0.86024 0.61948,-1.41082 0,-0.5736 -0.20086,-1.04963 -0.60224,-1.42817 -0.40152,-0.37853 -0.86608,-0.57923 -1.39369,-0.60213 l -2.37443,0 c -0.87182,-0.023 -1.70918,-0.20648 -2.51211,-0.5506 -0.80295,-0.34413 -1.50835,-0.80869 -2.11633,-1.39368 -0.60797,-0.58509 -1.09544,-1.279 -1.46246,-2.08195 -0.36714,-0.80295 -0.55059,-1.67477 -0.55059,-2.6154 0,-0.84884 0.17189,-1.67466 0.51611,-2.47763 0.34412,-0.80295 0.82018,-1.51409 1.42816,-2.13356 0.60787,-0.61937 1.31339,-1.11834 2.11632,-1.49696 0.80297,-0.37853 1.66318,-0.56772 2.5809,-0.56772 l 6.12528,0 c 0.61948,0 1.14709,0.22364 1.58298,0.67102 0.43593,0.44732 0.67676,1.00365 0.72268,1.66903 0,0.66526 -0.21802,1.21587 -0.65389,1.65177 -0.43581,0.43582 -0.98641,0.65378 -1.65177,0.65378 l -6.12528,0 z m 22.90246,9.84187 c 0.61938,0 1.15849,0.22365 1.61728,0.67103 0.45891,0.44742 0.68827,1.00363 0.68827,1.66903 0,0.22928 -0.0402,0.44731 -0.12042,0.65377 -0.0801,0.20648 -0.17779,0.42442 -0.29249,0.65388 -0.66527,1.16997 -1.60588,2.10483 -2.82185,2.80459 -1.21587,0.69966 -2.5235,1.04953 -3.92293,1.04953 -1.00942,0 -1.98442,-0.20058 -2.92503,-0.60224 -0.94064,-0.40143 -1.77223,-0.95202 -2.49488,-1.65178 -0.72266,-0.69967 -1.29624,-1.5256 -1.72066,-2.47761 -0.42432,-0.95212 -0.63653,-1.97877 -0.63653,-3.07994 l 0,-6.33174 c 0,-1.0324 0.20059,-2.01891 0.60213,-2.95943 0.40152,-0.9406 0.95787,-1.77231 1.66904,-2.49497 0.71116,-0.72266 1.5371,-1.29616 2.47762,-1.72055 0.94059,-0.42442 1.95002,-0.63662 3.02832,-0.63662 1.37652,0 2.67267,0.34991 3.88851,1.04956 1.21598,0.69977 2.17949,1.66903 2.89066,2.90789 0.0917,0.16062 0.17778,0.35552 0.2581,0.58499 0.0801,0.22929 0.12042,0.44732 0.12042,0.65378 0,0.64238 -0.22927,1.19297 -0.68826,1.65177 -0.4588,0.4589 -1.00941,0.68825 -1.65176,0.68825 -0.50471,0 -0.91762,-0.13193 -1.23875,-0.39567 -0.32123,-0.26384 -0.60797,-0.59073 -0.86033,-0.98074 -0.27535,-0.4588 -0.64813,-0.82593 -1.11845,-1.10119 -0.47031,-0.27533 -1.00365,-0.41301 -1.60015,-0.41301 -0.43592,0 -0.84308,0.0805 -1.22161,0.24107 -0.37854,0.16063 -0.71117,0.38427 -0.99801,0.67102 -0.28675,0.28674 -0.51611,0.62514 -0.68816,1.01515 -0.17215,0.39001 -0.2581,0.80295 -0.2581,1.23885 l 0,6.33175 c 0,0.43591 0.0861,0.84883 0.2581,1.23884 0.17216,0.39002 0.40141,0.72841 0.68816,1.01516 0.28684,0.28674 0.61947,0.51044 0.99801,0.67101 0.37853,0.16063 0.78569,0.24107 1.22161,0.24107 0.59648,0 1.12408,-0.13757 1.58298,-0.41301 0.4588,-0.27524 0.83733,-0.64228 1.13558,-1.10118 0.25234,-0.38991 0.51621,-0.71116 0.79145,-0.9635 0.27535,-0.25234 0.72268,-0.37854 1.34215,-0.37854 z m 11.75286,-8.84388 c 1.12418,0 2.19098,0.21802 3.20037,0.65379 1.00941,0.43591 1.89263,1.03238 2.64967,1.78944 0.75716,0.75704 1.35929,1.64029 1.80671,2.64977 0.44732,1.00941 0.67103,2.09909 0.67103,3.26905 0,1.14708 -0.21802,2.21962 -0.65389,3.21751 -0.43582,0.99801 -1.02656,1.87549 -1.7722,2.63254 -0.74554,0.75704 -1.62312,1.35354 -2.63254,1.78943 -1.00941,0.43592 -2.09909,0.65388 -3.26915,0.65388 -1.14698,0 -2.22526,-0.20648 -3.23467,-0.61948 -1.00941,-0.41291 -1.89273,-0.99214 -2.64977,-1.73781 -0.75705,-0.74555 -1.35355,-1.62303 -1.78935,-2.63253 -0.43591,-1.00941 -0.65388,-2.1106 -0.65388,-3.30356 0,-1.14709 0.21212,-2.21952 0.63662,-3.21751 0.42442,-0.99791 1.00942,-1.86973 1.75506,-2.6153 0.74554,-0.74554 1.62878,-1.34204 2.64968,-1.78943 1.02088,-0.44733 2.11632,-0.69393 3.28631,-0.73981 z m 0,4.50793 c -0.52758,0 -1.02079,0.0975 -1.47971,0.29249 -0.4588,0.19495 -0.86598,0.46456 -1.22161,0.80869 -0.35553,0.34412 -0.63661,0.7514 -0.84307,1.22171 -0.20648,0.47019 -0.30976,0.98067 -0.30976,1.53126 0,0.52769 0.10324,1.02665 0.30976,1.49695 0.20648,0.4703 0.48754,0.88322 0.84307,1.23884 0.35563,0.35554 0.76281,0.63663 1.22161,0.84309 0.4589,0.20648 0.9521,0.30974 1.47971,0.30974 0.52769,0 1.02666,-0.10323 1.49695,-0.30974 0.4703,-0.20649 0.87748,-0.48757 1.22161,-0.84309 0.34414,-0.35562 0.61948,-0.76854 0.82594,-1.23884 0.20648,-0.4703 0.30964,-0.96926 0.30964,-1.49695 -0.0459,-1.0553 -0.4243,-1.95002 -1.13558,-2.68409 -0.71116,-0.73417 -1.61738,-1.12418 -2.71856,-1.17006 z m 17.98164,-4.92095 c 1.10118,0 2.15648,0.20085 3.16589,0.60225 1.00941,0.4015 1.89263,0.96349 2.64968,1.68616 0.75704,0.72267 1.36505,1.57725 1.82383,2.56375 0.4588,0.98651 0.68827,2.05332 0.68827,3.20027 l 0,6.36625 c 0,0.5965 -0.21212,1.11267 -0.63661,1.5486 -0.42442,0.43582 -0.94637,0.66526 -1.56575,0.68816 -0.61937,0 -1.15281,-0.20059 -1.60014,-0.60213 -0.44743,-0.40152 -0.67102,-0.91196 -0.67102,-1.53137 l 0,-6.19417 c 0,-0.52768 -0.0976,-1.02665 -0.29249,-1.49696 -0.19495,-0.47029 -0.4703,-0.87746 -0.82593,-1.2216 -0.35563,-0.34413 -0.76855,-0.61937 -1.23884,-0.82583 -0.47031,-0.20648 -0.98076,-0.30975 -1.53137,-0.30975 -0.5047,0 -0.9864,0.0977 -1.44531,0.29248 -0.45879,0.19496 -0.86024,0.45306 -1.20436,0.77429 -0.34413,0.32112 -0.61938,0.71117 -0.82594,1.16996 -0.20648,0.4588 -0.30964,0.9406 -0.30964,1.44531 l 0,6.26296 c 0,0.59647 -0.22954,1.11841 -0.68827,1.56574 -0.4588,0.44742 -0.9865,0.67102 -1.58298,0.67102 -0.59647,0 -1.12407,-0.20648 -1.58288,-0.61938 -0.45889,-0.41291 -0.68826,-0.91761 -0.68826,-1.51409 l 0,-6.19417 c 0.0229,-1.14708 0.24671,-2.22536 0.67102,-3.23477 0.42442,-1.00941 1.00941,-1.89263 1.75506,-2.64968 0.74554,-0.75704 1.62302,-1.35355 2.63253,-1.78944 1.00941,-0.43592 2.1106,-0.65388 3.30356,-0.65388 z"
         id="path3223"
         style="fill:#00a2e1;fill-rule:nonzero"
         inkscape:connector-curvature="0" />
      <g
         mask="none"
         id="g3231"
         style="fill:#00a2e1;fill-opacity:1;fill-rule:evenodd;stroke:none"
         transform="matrix(25.618305,0,0,25.618305,9.749096,913.18758)">
        <path
           class="fil0 str1"
           d="m 3.27019,1.9359 c 0.231933,0 0.420024,0.188091 0.420024,0.420024 0,0.231933 -0.188091,0.420024 -0.420024,0.420024 -0.231933,0 -0.420024,-0.188091 -0.420024,-0.420024 0,-0.231933 0.188091,-0.420024 0.420024,-0.420024 z"
           id="path3233"
           style="fill:#00a2e1;fill-opacity:1;stroke:none"
           inkscape:connector-curvature="0" />
        <path
           id="path3235"
           class="fil9"
           d="m 3.27019,1.9359 c 0.231933,0 0.420024,0.188091 0.420024,0.420024 0,0.231933 -0.188091,0.420024 -0.420024,0.420024 -0.231933,0 -0.420024,-0.188091 -0.420024,-0.420024 0,-0.231933 0.188091,-0.420024 0.420024,-0.420024 z"
           style="fill:#00a2e1;fill-opacity:1;stroke:none"
           inkscape:connector-curvature="0" />
      </g>
      <path
         class="fil5"
         d="m 97.097531,967.35596 c 0.574696,0.34817 0.269709,1.34273 0.44268,1.99852 0.09682,0.39599 0.242344,0.88957 -0.09706,1.21798 -0.316182,0.24466 -0.912577,0.21468 -1.041979,0.59124 -0.166521,0.48472 0.300073,1.25943 0.951827,1.21697 0.8091,-0.22441 1.460441,-0.82633 2.03717,-1.41082 0.57075,-0.58407 0.379939,-1.04299 0.325683,-1.76474 -0.02433,-0.32134 0.259506,-0.72336 0.505388,-0.54585 0.52769,0.38115 -0.31851,1.24521 0.30056,1.41162 0.63369,0.17035 0.91569,-1.64019 1.50451,-0.89242 0.36308,0.46082 -1.05249,0.87535 -0.70066,1.28515 0.31699,0.34231 0.69513,-0.6329 1.2805,-0.28081 0.11582,0.0697 0.20879,0.24543 0.14346,0.36573 -0.34323,0.63098 -1.14375,0.081 -1.23108,0.59548 -0.10203,0.59989 1.3019,-0.0399 1.19498,0.74505 -0.13987,1.02776 -1.56989,-0.41847 -2.63837,0.176 -1.057213,0.58812 -1.50955,1.8442 -2.607711,2.32803 -0.638125,0.28129 -1.201347,-0.38677 -1.799534,-0.55896 -0.143453,0.96824 -0.781046,1.69789 -1.411438,2.39552 -0.562194,1.52075 3.124922,-0.43178 2.634558,1.37531 -0.312152,1.15042 -1.832526,0.69736 -2.789775,1.35424 -0.128095,0.84833 0.600523,1.19115 1.191859,1.49273 0.935694,0.47707 0.263645,0.72992 0.03098,0.49602 -0.497843,-0.50055 -0.530327,-0.14244 -0.445814,-0.0482 0.336987,0.3762 0.136542,0.2139 0.82343,0.73506 0.36521,0.27706 0.01852,0.76824 -0.331432,0.54677 -0.509958,-0.51631 -0.616958,-1.06185 -0.902097,-0.97137 -0.381658,0.13809 0.233642,0.50087 0.466667,1.30744 0.201618,0.69763 -0.729513,0.76905 -0.663154,0.13654 0.07407,-0.70502 -0.208795,-1.14558 -0.374699,-1.1374 -0.223645,0.0109 0.212886,1.39709 -0.315081,1.34788 -0.500966,-0.0466 -0.23697,-0.90753 -0.208529,-1.00719 0.293308,-1.02483 0.122963,-1.01707 -0.355431,-1.96959 -0.241836,-0.4819 -1.495951,-1.44763 -0.819787,-1.87497 2.322092,-0.73325 -0.310542,-0.65801 -0.521734,-1.17662 -1.09e-4,-0.0817 -0.0073,-0.0863 -0.07867,-0.0454 -0.554714,0.0764 -1.80578,-2.2412 -1.27981,0.13654 -0.03207,0.79921 -1.495442,0.19598 -2.033733,0.22749 -1.063983,0.062 -1.142529,-0.0894 -1.883358,0.67687 -0.07201,0.0745 -0.685653,0.73345 -0.97652,0.32294 -0.306626,-0.43249 1.111961,-0.74757 1.009694,-0.94668 -0.07588,-0.14782 -0.598804,-0.17241 -1.172293,0.24415 -0.514493,0.3737 -0.918237,-0.4685 -0.213145,-0.64259 0.814942,-0.20135 1.436753,0.15012 1.365529,-0.24952 -0.06426,-0.29228 -0.590114,-0.11219 -1.292312,-0.29561 -0.366725,-0.19239 -0.114769,-0.73819 0.307829,-0.56038 0.79458,0.33426 0.554027,0.24184 1.048324,0.34564 0.123738,0.0259 0.41776,-0.18111 -0.264661,-0.36208 -0.318917,-0.0845 -0.435914,-0.79296 0.4451,-0.22108 0.556832,0.36137 1.217965,0.82088 1.888683,0.28581 0.09016,-1.15745 -1.062373,-2.24754 -0.22212,-3.09304 1.319857,-1.32832 1.472447,2.84111 2.508267,1.59379 0.289048,-0.89472 0.602132,-1.81176 1.368861,-2.42004 -0.448114,-0.43197 -1.308251,-0.58569 -1.383699,-1.27899 -0.13014,-1.19297 0.731534,-2.21266 0.712266,-3.42238 -0.01936,-1.2226 -1.98692,-1.73802 -1.166734,-2.37291 0.626447,-0.48514 0.774184,1.05066 1.2428,0.66233 0.401929,-0.33293 -0.474655,-0.7512 -0.09997,-1.36381 0.0714,-0.11679 0.270192,-0.12399 0.388495,-0.0587 0.597606,0.33091 -0.05785,1.14597 0.397089,1.24936 0.530811,0.0996 0.182145,-1.33335 0.762711,-1.24946 0.941927,0.13604 -0.484833,1.28556 -0.02058,1.74919 0.453572,0.45297 0.778843,-0.71195 1.37271,-0.4455 0.276751,0.12425 0.07044,0.57096 -0.220063,0.71066 -0.652274,0.31377 -1.145059,0.37801 -1.365436,1.16432 -0.217751,0.79176 -0.413524,1.65681 -0.203143,2.46965 0.289072,0.58569 1.193166,0.60224 1.529814,0.21597 0.261333,-0.30035 -0.06281,-0.80182 -0.0085,-1.19802 0.114733,-0.45811 0.61484,-0.57903 1.006192,-0.6931 0.654464,-0.17805 1.363221,-0.9395 1.952246,-0.61584 z"
         id="path3237"
         style="fill:#ffffff;fill-rule:nonzero"
         inkscape:connector-curvature="0" />
      <ellipse
         class="fil10"
         cx="97.325012"
         cy="969.99286"
         rx="0.22796422"
         ry="0.29306829"
         id="ellipse3239"
         style="fill:#75c5f0;fill-rule:evenodd"
         d="m 97.552976,969.99286 c 0,0.16186 -0.102063,0.29307 -0.227964,0.29307 -0.125901,0 -0.227964,-0.13121 -0.227964,-0.29307 0,-0.16186 0.102063,-0.29307 0.227964,-0.29307 0.125901,0 0.227964,0.13121 0.227964,0.29307 z"
         sodipodi:cx="97.325012"
         sodipodi:cy="969.99286"
         sodipodi:rx="0.22796422"
         sodipodi:ry="0.29306829" />
      <ellipse
         ry="0.29306826"
         rx="0.22796474"
         class="fil10"
         transform="matrix(-0.49999921,-0.86602586,-0.86602505,0.50000061,0,0)"
         id="circle3241"
         cx="-886.07562"
         cy="402.22531"
         style="fill:#75c5f0;fill-rule:evenodd"
         d="m -885.84766,402.22531 c 0,0.16186 -0.10206,0.29307 -0.22796,0.29307 -0.1259,0 -0.22797,-0.13121 -0.22797,-0.29307 0,-0.16186 0.10207,-0.29307 0.22797,-0.29307 0.1259,0 0.22796,0.13121 0.22796,0.29307 z"
         sodipodi:cx="-886.07562"
         sodipodi:cy="402.22531"
         sodipodi:rx="0.22796474"
         sodipodi:ry="0.29306826" />
    </g>
    <path
       class="fil5"
       d="m 144.35024,871.84664 c 3.13663,1.90031 1.47204,7.32847 2.41612,10.90775 0.52852,2.16124 1.32271,4.85517 -0.52992,6.64755 -1.72567,1.33529 -4.98073,1.1717 -5.68696,3.22694 -0.90885,2.64556 1.63774,6.87376 5.19492,6.64209 4.41598,-1.22485 7.97096,-4.51009 11.11862,-7.70012 3.11507,-3.18779 2.07368,-5.69256 1.77755,-9.63175 -0.13267,-1.75378 1.4164,-3.94799 2.75839,-2.97917 2.88005,2.08025 -1.7384,6.79616 1.64039,7.70443 3.4586,0.92982 4.99777,-8.95193 8.21143,-4.87068 1.98169,2.51511 -5.74429,4.77757 -3.82412,7.01415 1.73015,1.8683 3.79391,-3.45429 6.98884,-1.53259 0.63199,0.38033 1.13955,1.33951 0.78299,1.99611 -1.87331,3.4438 -6.24246,0.44182 -6.71912,3.25001 -0.55648,3.2742 7.1056,-0.21813 6.52212,4.06642 -0.76343,5.60937 -8.56827,-2.28397 -14.39992,0.96057 -5.77017,3.20989 -8.23898,10.06548 -14.23258,12.70615 -3.48281,1.53523 -6.5568,-2.11102 -9.82162,-3.05078 -0.783,5.28457 -4.26288,9.26682 -7.70348,13.07445 -3.06838,8.3001 17.05543,-2.35655 14.37912,7.50631 -1.70372,6.27883 -10.00173,3.80609 -15.2263,7.39126 -0.6991,4.63005 3.27756,6.50114 6.50507,8.14711 5.10684,2.60377 1.43889,3.9838 0.16918,2.70723 -2.71715,-2.73196 -2.89444,-0.77742 -2.43318,-0.26285 1.83922,2.05328 0.74524,1.1675 4.49415,4.01188 1.99329,1.51218 0.10125,4.19297 -1.80888,2.98422 -2.78329,-2.81797 -3.36731,-5.79545 -4.92352,-5.3016 -2.08307,0.75363 1.27516,2.73364 2.54697,7.13579 1.10039,3.80762 -3.98156,4.19744 -3.61942,0.74524 0.40409,-3.84789 -1.13955,-6.25241 -2.04502,-6.20779 -1.22065,0.0599 1.16192,7.62515 -1.71967,7.35656 -2.73422,-0.25447 -1.29334,-4.95317 -1.13815,-5.49708 1.60082,-5.59343 0.67115,-5.55106 -1.93987,-10.74977 -1.31992,-2.63017 -8.16475,-7.90103 -4.4743,-10.23339 12.67371,-4.00197 -1.69492,-3.59133 -2.8476,-6.42188 -5.6e-4,-0.44601 -0.0429,-0.47118 -0.42926,-0.24747 -3.02756,0.41666 -9.85574,-12.23214 -6.98507,0.74524 -0.17477,4.36202 -8.161931,1.06964 -11.099861,1.24162 -5.807067,0.33838 -6.23576,-0.48796 -10.279119,3.69422 -0.392899,0.40688 -3.742188,4.0031 -5.32972,1.7626 -1.673525,-2.36048 6.068957,-4.08013 5.510788,-5.16682 -0.413872,-0.80678 -3.268187,-0.94101 -6.398237,1.33248 -2.808036,2.03959 -5.011623,-2.55704 -1.163315,-3.50713 4.447866,-1.099 7.841615,0.81935 7.452911,-1.36186 -0.350951,-1.59522 -3.220792,-0.61242 -7.053301,-1.6134 -2.001546,-1.05006 -0.626401,-4.02897 1.680096,-3.05846 4.336708,1.82424 3.023785,1.31993 5.721641,1.88649 0.675338,0.14121 2.28007,-0.98855 -1.444497,-1.97627 -1.740638,-0.4614 -2.379206,-4.32788 2.42926,-1.20665 3.039162,1.97232 6.647533,4.4803 10.308203,1.55999 0.49217,-6.31728 -5.798259,-12.26682 -1.21225,-16.8815 7.203591,-7.24973 8.036371,15.50648 13.689771,8.69873 1.57761,-4.88328 3.28637,-9.88832 7.47109,-13.20824 -2.44576,-2.35768 -7.14027,-3.1966 -7.55203,-6.98059 -0.71031,-6.51108 3.99259,-12.0764 3.88745,-18.67891 -0.1057,-6.67284 -10.84442,-9.48591 -6.36789,-12.95111 3.41905,-2.64781 4.22541,5.73435 6.78303,3.61494 2.19365,-1.8171 -2.59062,-4.09998 -0.54531,-7.44353 0.39009,-0.63758 1.4747,-0.67674 2.12039,-0.3202 3.26161,1.80609 -0.316,6.25451 2.16723,6.81881 2.89711,0.54393 0.99414,-7.27729 4.16277,-6.81936 5.14096,0.74246 -2.64612,7.01639 -0.11231,9.54688 2.47553,2.47217 4.25085,-3.88578 7.49204,-2.4315 1.5105,0.67813 0.38453,3.1162 -1.20106,3.87865 -3.56,1.71253 -6.2496,2.0632 -7.45235,6.35475 -1.18847,4.32132 -2.257,9.04268 -1.10878,13.47908 1.57774,3.19659 6.51218,3.2869 8.34958,1.17869 1.42631,-1.63926 -0.34257,-4.37627 -0.0489,-6.53862 0.62641,-2.50029 3.35573,-3.16024 5.49164,-3.78287 3.57203,-0.97176 7.44032,-5.12767 10.6551,-3.36117 z"
       id="path3514"
       style="fill:#00a2e1;fill-opacity:1;fill-rule:nonzero"
       inkscape:connector-curvature="0" />
    <g
       id="g3563"
       transform="matrix(0.68591896,0,0,0.68591896,31.855026,402.80111)">
      <text
         sodipodi:linespacing="125%"
         id="text3531"
         y="868.04529"
         x="98.944923"
         style="font-size:29.18336105px;font-style:normal;font-variant:normal;font-weight:bold;font-stretch:normal;line-height:125%;letter-spacing:0px;word-spacing:0px;fill:#00a2e1;fill-opacity:1;stroke:#00a2e1;font-family:Comfortaa;-inkscape-font-specification:Comfortaa Bold"
         xml:space="preserve"><tspan
           y="868.04529"
           x="98.944923"
           id="tspan3533"
           sodipodi:role="line">2014</tspan></text>
    </g>
  </g>
</svg>
