<?xml version="1.0" encoding="UTF-8" standalone="no"?>
<!-- Created with Inkscape (http://www.inkscape.org/) -->

<svg
   xmlns:dc="http://purl.org/dc/elements/1.1/"
   xmlns:cc="http://creativecommons.org/ns#"
   xmlns:rdf="http://www.w3.org/1999/02/22-rdf-syntax-ns#"
   xmlns:svg="http://www.w3.org/2000/svg"
   xmlns="http://www.w3.org/2000/svg"
   xmlns:xlink="http://www.w3.org/1999/xlink"
   xmlns:sodipodi="http://sodipodi.sourceforge.net/DTD/sodipodi-0.dtd"
   xmlns:inkscape="http://www.inkscape.org/namespaces/inkscape"
   width="256"
   height="256"
   id="svg9382"
   version="1.1"
   inkscape:version="0.91pre0 r13343"
   viewBox="0 0 256 256"
   sodipodi:docname="wiki1000.svg">
  <defs
     id="defs9384">
    <filter
       style="color-interpolation-filters:sRGB"
       inkscape:collect="always"
       id="filter2620-6">
      <feGaussianBlur
         inkscape:collect="always"
         stdDeviation="0.78000015"
         id="feGaussianBlur2622-7" />
    </filter>
    <linearGradient
       inkscape:collect="always"
       xlink:href="#linearGradient6303-0"
       id="linearGradient2684"
       gradientUnits="userSpaceOnUse"
       gradientTransform="translate(538,0)"
       x1="145"
       y1="457"
       x2="146"
       y2="333" />
    <linearGradient
       inkscape:collect="always"
       id="linearGradient6303-0">
      <stop
         style="stop-color:#a0cedc;stop-opacity:1"
         offset="0"
         id="stop6305-2" />
      <stop
         style="stop-color:#d7e9f0;stop-opacity:1"
         offset="1"
         id="stop6307-7" />
    </linearGradient>
    <pattern
       inkscape:collect="always"
       xlink:href="#pattern2686"
       id="pattern2333"
       patternTransform="translate(-364,244)" />
    <pattern
       inkscape:collect="always"
       xlink:href="#pattern2594"
       id="pattern2686"
       patternTransform="translate(-362,244)" />
    <pattern
       inkscape:collect="always"
       xlink:href="#pattern1606"
       id="pattern2594"
       patternTransform="translate(-542,244)" />
    <pattern
       inkscape:collect="always"
       xlink:href="#pattern8888-9"
       id="pattern1606"
       patternTransform="translate(-722,244)" />
    <pattern
       inkscape:collect="always"
       xlink:href="#pattern8884-1"
       id="pattern8888-9"
       patternTransform="translate(-902,244)" />
    <pattern
       inkscape:collect="always"
       xlink:href="#pattern8791-0"
       id="pattern8884-1"
       patternTransform="translate(-904,0)" />
    <pattern
       inkscape:collect="always"
       xlink:href="#pattern8787-8"
       id="pattern8791-0"
       patternTransform="translate(-724,0)" />
    <pattern
       inkscape:collect="always"
       xlink:href="#pattern8783-3"
       id="pattern8787-8"
       patternTransform="translate(-536,0)" />
    <pattern
       inkscape:collect="always"
       xlink:href="#pattern8775-15"
       id="pattern8783-3"
       patternTransform="translate(-360,0)" />
    <pattern
       inkscape:collect="always"
       xlink:href="#Wavywhite-4"
       id="pattern8775-15"
       patternTransform="translate(-180,0)" />
    <pattern
       inkscape:stockid="Wavy white"
       id="Wavywhite-4"
       height="5.1805778"
       width="30.066020"
       patternUnits="userSpaceOnUse"
       inkscape:collect="always">
      <path
         id="path8532-4"
         d="M 7.597,0.061 C 5.079,-0.187 2.656,0.302 -0.01,1.788 L -0.01,3.061 C 2.773,1.431 5.173,1.052 7.472,1.280 C 9.770,1.508 11.969,2.361 14.253,3.218 C 18.820,4.931 23.804,6.676 30.066,3.061 L 30.062,1.788 C 23.622,5.497 19.246,3.770 14.691,2.061 C 12.413,1.207 10.115,0.311 7.597,0.061 z "
         style="fill:white;stroke:none;" />
    </pattern>
  </defs>
  <sodipodi:namedview
     id="base"
     pagecolor="#ffffff"
     bordercolor="#666666"
     borderopacity="1.0"
     inkscape:pageopacity="0.0"
     inkscape:pageshadow="2"
     inkscape:zoom="0.35"
     inkscape:cx="350"
     inkscape:cy="497.14286"
     inkscape:document-units="px"
     inkscape:current-layer="layer1"
     showgrid="false"
     units="px"
     inkscape:showpageshadow="false"
     borderlayer="true"
     inkscape:window-width="1366"
     inkscape:window-height="709"
     inkscape:window-x="0"
     inkscape:window-y="27"
     inkscape:window-maximized="1" />
  <metadata
     id="metadata9387">
    <rdf:RDF>
      <cc:Work
         rdf:about="">
        <dc:format>image/svg+xml</dc:format>
        <dc:type
           rdf:resource="http://purl.org/dc/dcmitype/StillImage" />
        <dc:title></dc:title>
      </cc:Work>
    </rdf:RDF>
  </metadata>
  <g
     inkscape:label="Ebene 1"
     inkscape:groupmode="layer"
     id="layer1"
     transform="translate(0,-796.3622)">
    <g
       style="display:inline;enable-background:new"
       id="master-editor"
       transform="matrix(2.4630229,0,0,2.4630229,-1562.8652,-47.300363)">
      <g
         id="g9323">
        <path
           style="fill:#db3279;fill-opacity:1;stroke:#58595b;stroke-width:4.50271511;stroke-linejoin:round;stroke-miterlimit:4;stroke-dasharray:none;stroke-opacity:1;filter:url(#filter2620-6)"
           id="path2642"
           d="m 134.00002,125.00183 c 0,-21.53997 -17.46062,-39.00185 -38.999836,-39.00185 -21.529216,0 -38.982968,17.44751 -38.998584,38.97439 l -0.0016,-10e-4 0,30.18098 0.0016,9.9e-4 c 0.01184,4.88773 3.975508,8.84465 8.866181,8.84465 0.01374,0 0.02745,-9.9e-4 0.04187,-9.9e-4 l 0.0024,9.9e-4 30.10304,0 0,0 c 21.533049,-0.009 38.984919,-17.46443 38.984919,-38.99816 z"
           inkscape:connector-curvature="0"
           transform="matrix(1.1104411,0,0,1.1104411,581.00806,255.69489)"
           inkscape:export-filename="/home/duffy/Documents/Work/Projects/FedBadges/Badges/master-editor.png"
           inkscape:export-xdpi="90"
           inkscape:export-ydpi="90" />
        <path
           style="color:#000000;font-style:normal;font-variant:normal;font-weight:normal;font-stretch:normal;font-size:xx-small;line-height:normal;font-family:sans-serif;-inkscape-font-specification:sans-serif;text-indent:0;text-align:start;text-decoration:none;text-decoration-line:none;text-decoration-color:currentColor;letter-spacing:normal;word-spacing:normal;text-transform:none;direction:ltr;block-progression:tb;writing-mode:lr-tb;baseline-shift:baseline;text-anchor:start;display:inline;overflow:visible;visibility:visible;fill:#ffffff;fill-opacity:1;fill-rule:nonzero;stroke:none;stroke-width:4;marker:none;enable-background:accumulate"
           d="m 686.49997,348.47195 c -25.01149,0 -45.32128,20.24302 -45.49339,45.21577 -2.4e-4,0.0352 1.6e-4,0.0689 0,0.1041 a 2.2211043,2.2211043 0 0 0 -0.0347,0.10411 c -5e-5,0.0235 2e-5,0.0459 0,0.0694 l 0,33.52144 a 2.2211043,2.2211043 0 0 0 0.17351,0.86753 2.2211043,2.2211043 0 0 0 0,0.0347 c 0.47767,5.90938 5.17797,10.55201 11.10441,10.96561 0.0371,0.002 0.0669,0.0325 0.1041,0.0347 a 2.2211043,2.2211043 0 0 0 0.10411,0.0347 2.2211043,2.2211043 0 0 0 0.58992,0.1041 2.2211043,2.2211043 0 0 0 0.0347,0 l 33.41734,0 a 2.2211043,2.2211043 0 0 0 0.0347,0 c 24.90849,-0.01 45.09873,-20.10504 45.42398,-44.93816 a 2.2211043,2.2211043 0 0 0 0.0347,-0.1388 c 2.3e-4,-0.0234 -2e-4,-0.0459 0,-0.0694 a 2.2211043,2.2211043 0 0 0 0.0347,-0.38171 c 0,-25.11907 -20.40974,-45.52809 -45.52808,-45.52809 z"
           id="path2644"
           inkscape:connector-curvature="0"
           inkscape:export-filename="/home/duffy/Documents/Work/Projects/FedBadges/Badges/master-editor.png"
           inkscape:export-xdpi="90"
           inkscape:export-ydpi="90" />
        <path
           inkscape:connector-curvature="0"
           d="M 718.9996,394.50153 C 718.9996,376.55157 704.44906,362 686.49971,362 c -17.94101,0 -32.48579,14.5396 -32.49881,32.47863 l -9e-4,-8.9e-4 0,25.15082 9e-4,9e-4 c 0.0101,4.07308 3.31294,7.37054 7.38849,7.37054 0.0114,0 0.0228,-8.9e-4 0.0349,-8.9e-4 l 0.002,8.9e-4 25.08587,0 0,0 c 17.94419,-0.007 32.48742,-14.55368 32.48742,-32.49847 z"
           id="path2646"
           style="fill:url(#linearGradient2684);fill-opacity:1;stroke:none"
           inkscape:export-filename="/home/duffy/Documents/Work/Projects/FedBadges/Badges/master-editor.png"
           inkscape:export-xdpi="90"
           inkscape:export-ydpi="90" />
        <path
           inkscape:connector-curvature="0"
           d="M 718.9996,394.50153 C 718.9996,376.55157 704.4491,362 686.4997,362 c -17.941,0 -32.4858,14.5396 -32.4988,32.47863 l -9e-4,-8.9e-4 0,25.15082 9e-4,9e-4 c 0.01,4.07308 3.3129,7.37054 7.3885,7.37054 0.011,0 0.023,-8.9e-4 0.035,-8.9e-4 l 0,8.9e-4 25.0859,0 0,0 c 17.9461,-0.007 32.4893,-14.55368 32.4893,-32.49847 z"
           id="path2648"
           style="opacity:0.33399999;fill:url(#pattern2333);fill-opacity:1;stroke:none"
           inkscape:export-filename="/home/duffy/Documents/Work/Projects/FedBadges/Badges/master-editor.png"
           inkscape:export-xdpi="90"
           inkscape:export-ydpi="90" />
        <path
           inkscape:connector-curvature="0"
           d="m 725.1365,394.50172 c 0,-21.33931 -17.29799,-38.63851 -38.63658,-38.63851 -21.32866,0 -38.61981,17.28496 -38.6353,38.6113 l -9.6e-4,-9.6e-4 0,29.89983 9.6e-4,9.5e-4 c 0.0116,4.84218 3.93849,8.76227 8.7836,8.76227 0.0135,0 0.0272,-9.4e-4 0.0415,-9.4e-4 l 0.003,9.4e-4 29.82262,0 0,0 c 21.33184,-0.009 38.62113,-17.30173 38.62113,-38.63488 z"
           id="path2664"
           style="fill:none;stroke:#3c6eb4;stroke-width:5;stroke-linejoin:round;stroke-miterlimit:4;stroke-dasharray:none;stroke-opacity:1"
           inkscape:export-filename="/home/duffy/Documents/Work/Projects/FedBadges/Badges/master-editor.png"
           inkscape:export-xdpi="90"
           inkscape:export-ydpi="90" />
        <g
           transform="translate(-1.6240206,0)"
           id="g10297">
          <path
             style="opacity:1;fill:#3c6eb4;fill-opacity:1;fill-rule:nonzero;stroke:none;stroke-width:1;stroke-linecap:round;stroke-linejoin:round;stroke-miterlimit:4;stroke-dasharray:none;stroke-dashoffset:0;stroke-opacity:1"
             d="m 666.62272,392.2562 -1.84729,11.99185 -0.1421,11.99186 c -0.0186,1.56485 1.25981,2.82477 2.82478,2.82477 l 36.83981,0 c 1.56498,0 2.82534,-1.2598 2.82534,-2.82477 l -0.1421,-11.99186 -1.84729,-11.99185 z"
             id="rect9365"
             inkscape:connector-curvature="0"
             sodipodi:nodetypes="ccssssccc" />
          <path
             style="opacity:1;fill:#294172;fill-opacity:1;fill-rule:nonzero;stroke:none;stroke-width:1;stroke-linecap:round;stroke-linejoin:round;stroke-miterlimit:4;stroke-dasharray:none;stroke-dashoffset:0;stroke-opacity:1"
             d="m 670.80725,400.60076 -2.95105,5.47663 0,9.76906 9.08684,0 0,2.32175 17.8703,0 0,-2.32175 9.08685,0 0,-9.76906 -2.95105,-5.47663 -30.14189,0 z"
             id="rect10170"
             inkscape:connector-curvature="0" />
          <path
             style="opacity:1;fill:#294172;fill-opacity:1;fill-rule:nonzero;stroke:none;stroke-width:1;stroke-linecap:round;stroke-linejoin:round;stroke-miterlimit:4;stroke-dasharray:none;stroke-dashoffset:0;stroke-opacity:1"
             d="m 666.41225,391.18678 0,3.20889 13.75422,0 a 5.8232149,5.8232149 0 0 0 2.60497,3.80782 5.8232149,5.8232149 0 0 0 5.91932,0.17374 5.8232149,5.8232149 0 0 0 2.90083,-3.98156 l 13.75255,0 0,-3.20889 -38.93189,0 z"
             id="rect10177"
             inkscape:connector-curvature="0" />
          <rect
             style="opacity:1;fill:#ffffff;fill-opacity:1;fill-rule:nonzero;stroke:none;stroke-width:1;stroke-linecap:round;stroke-linejoin:round;stroke-miterlimit:4;stroke-dasharray:none;stroke-dashoffset:0;stroke-opacity:1"
             id="rect10189"
             width="31.444836"
             height="20.321493"
             x="670.15576"
             y="373.43231" />
          <path
             inkscape:connector-curvature="0"
             style="opacity:1;fill:#3c6eb4;fill-opacity:1;fill-rule:nonzero;stroke:none;stroke-width:1;stroke-linecap:round;stroke-linejoin:round;stroke-miterlimit:4;stroke-dasharray:none;stroke-dashoffset:0;stroke-opacity:1"
             d="m 662.18757,388.40585 0,4.49222 2.67379,0 0,-1.28333 42.0331,0 0,1.28333 2.67436,0 0,-4.49222 -2.67436,0 0,1.17676 -42.0331,0 0,-1.17676 -2.67379,0 z"
             id="rect10182" />
          <text
             xml:space="preserve"
             style="font-style:normal;font-variant:normal;font-weight:normal;font-stretch:normal;font-size:9.09219646px;line-height:125%;font-family:Comfortaa;-inkscape-font-specification:Comfortaa;letter-spacing:0px;word-spacing:0px;fill:#3c6eb4;fill-opacity:1;stroke:none;stroke-width:1px;stroke-linecap:butt;stroke-linejoin:miter;stroke-opacity:1"
             x="677.1767"
             y="386.18338"
             id="text10203"
             sodipodi:linespacing="125%"><tspan
               sodipodi:role="line"
               id="tspan10205"
               x="677.1767"
               y="386.18338">1000</tspan></text>
          <g
             id="g10272"
             transform="matrix(0.68190206,0,0,0.68190206,299.95325,133.1524)">
            <rect
               y="396.33673"
               x="541.83051"
               height="3.8895464"
               width="3.8895464"
               id="rect10226"
               style="opacity:1;fill:#3c6eb4;fill-opacity:1;fill-rule:nonzero;stroke:none;stroke-width:1;stroke-linecap:round;stroke-linejoin:round;stroke-miterlimit:4;stroke-dasharray:none;stroke-dashoffset:0;stroke-opacity:1" />
            <rect
               style="opacity:1;fill:#3c6eb4;fill-opacity:1;fill-rule:nonzero;stroke:none;stroke-width:1;stroke-linecap:round;stroke-linejoin:round;stroke-miterlimit:4;stroke-dasharray:none;stroke-dashoffset:0;stroke-opacity:1"
               id="rect10228"
               width="3.8895464"
               height="3.8895464"
               x="548.16718"
               y="396.33673" />
            <rect
               style="opacity:1;fill:#3c6eb4;fill-opacity:1;fill-rule:nonzero;stroke:none;stroke-width:1;stroke-linecap:round;stroke-linejoin:round;stroke-miterlimit:4;stroke-dasharray:none;stroke-dashoffset:0;stroke-opacity:1"
               id="rect10230"
               width="3.8895464"
               height="3.8895464"
               x="554.50385"
               y="396.33673" />
            <rect
               y="396.33673"
               x="560.84052"
               height="3.8895464"
               width="3.8895464"
               id="rect10232"
               style="opacity:1;fill:#3c6eb4;fill-opacity:1;fill-rule:nonzero;stroke:none;stroke-width:1;stroke-linecap:round;stroke-linejoin:round;stroke-miterlimit:4;stroke-dasharray:none;stroke-dashoffset:0;stroke-opacity:1" />
            <rect
               style="opacity:1;fill:#3c6eb4;fill-opacity:1;fill-rule:nonzero;stroke:none;stroke-width:1;stroke-linecap:round;stroke-linejoin:round;stroke-miterlimit:4;stroke-dasharray:none;stroke-dashoffset:0;stroke-opacity:1"
               id="rect10234"
               width="3.8895464"
               height="3.8895464"
               x="567.17719"
               y="396.33673" />
            <rect
               y="396.33673"
               x="573.51385"
               height="3.8895464"
               width="3.8895464"
               id="rect10236"
               style="opacity:1;fill:#3c6eb4;fill-opacity:1;fill-rule:nonzero;stroke:none;stroke-width:1;stroke-linecap:round;stroke-linejoin:round;stroke-miterlimit:4;stroke-dasharray:none;stroke-dashoffset:0;stroke-opacity:1" />
            <rect
               y="396.33673"
               x="579.85052"
               height="3.8895464"
               width="3.8895464"
               id="rect10238"
               style="opacity:1;fill:#3c6eb4;fill-opacity:1;fill-rule:nonzero;stroke:none;stroke-width:1;stroke-linecap:round;stroke-linejoin:round;stroke-miterlimit:4;stroke-dasharray:none;stroke-dashoffset:0;stroke-opacity:1" />
            <rect
               style="opacity:1;fill:#3c6eb4;fill-opacity:1;fill-rule:nonzero;stroke:none;stroke-width:1;stroke-linecap:round;stroke-linejoin:round;stroke-miterlimit:4;stroke-dasharray:none;stroke-dashoffset:0;stroke-opacity:1"
               id="rect10240"
               width="3.8895464"
               height="3.8895464"
               x="586.18719"
               y="396.33673" />
            <rect
               style="opacity:1;fill:#3c6eb4;fill-opacity:1;fill-rule:nonzero;stroke:none;stroke-width:1;stroke-linecap:round;stroke-linejoin:round;stroke-miterlimit:4;stroke-dasharray:none;stroke-dashoffset:0;stroke-opacity:1"
               id="rect10242"
               width="3.8895464"
               height="3.8895464"
               x="544.85571"
               y="402.38715" />
            <rect
               y="402.38715"
               x="551.19238"
               height="3.8895464"
               width="3.8895464"
               id="rect10244"
               style="opacity:1;fill:#3c6eb4;fill-opacity:1;fill-rule:nonzero;stroke:none;stroke-width:1;stroke-linecap:round;stroke-linejoin:round;stroke-miterlimit:4;stroke-dasharray:none;stroke-dashoffset:0;stroke-opacity:1" />
            <rect
               y="402.38715"
               x="557.52905"
               height="3.8895464"
               width="3.8895464"
               id="rect10246"
               style="opacity:1;fill:#3c6eb4;fill-opacity:1;fill-rule:nonzero;stroke:none;stroke-width:1;stroke-linecap:round;stroke-linejoin:round;stroke-miterlimit:4;stroke-dasharray:none;stroke-dashoffset:0;stroke-opacity:1" />
            <rect
               style="opacity:1;fill:#3c6eb4;fill-opacity:1;fill-rule:nonzero;stroke:none;stroke-width:1;stroke-linecap:round;stroke-linejoin:round;stroke-miterlimit:4;stroke-dasharray:none;stroke-dashoffset:0;stroke-opacity:1"
               id="rect10248"
               width="3.8895464"
               height="3.8895464"
               x="563.86572"
               y="402.38715" />
            <rect
               y="402.38715"
               x="570.20239"
               height="3.8895464"
               width="3.8895464"
               id="rect10250"
               style="opacity:1;fill:#3c6eb4;fill-opacity:1;fill-rule:nonzero;stroke:none;stroke-width:1;stroke-linecap:round;stroke-linejoin:round;stroke-miterlimit:4;stroke-dasharray:none;stroke-dashoffset:0;stroke-opacity:1" />
            <rect
               style="opacity:1;fill:#3c6eb4;fill-opacity:1;fill-rule:nonzero;stroke:none;stroke-width:1;stroke-linecap:round;stroke-linejoin:round;stroke-miterlimit:4;stroke-dasharray:none;stroke-dashoffset:0;stroke-opacity:1"
               id="rect10252"
               width="3.8895464"
               height="3.8895464"
               x="576.53906"
               y="402.38715" />
            <rect
               style="opacity:1;fill:#3c6eb4;fill-opacity:1;fill-rule:nonzero;stroke:none;stroke-width:1;stroke-linecap:round;stroke-linejoin:round;stroke-miterlimit:4;stroke-dasharray:none;stroke-dashoffset:0;stroke-opacity:1"
               id="rect10254"
               width="3.8895464"
               height="3.8895464"
               x="582.87573"
               y="402.38715" />
            <rect
               y="408.07123"
               x="548.10376"
               height="3.8895464"
               width="3.8895464"
               id="rect10258"
               style="opacity:1;fill:#3c6eb4;fill-opacity:1;fill-rule:nonzero;stroke:none;stroke-width:1;stroke-linecap:round;stroke-linejoin:round;stroke-miterlimit:4;stroke-dasharray:none;stroke-dashoffset:0;stroke-opacity:1" />
            <rect
               style="opacity:1;fill:#3c6eb4;fill-opacity:1;fill-rule:nonzero;stroke:none;stroke-width:1;stroke-linecap:round;stroke-linejoin:round;stroke-miterlimit:4;stroke-dasharray:none;stroke-dashoffset:0;stroke-opacity:1"
               id="rect10260"
               width="3.8895464"
               height="3.8895464"
               x="554.44043"
               y="408.07123" />
            <rect
               style="opacity:1;fill:#3c6eb4;fill-opacity:1;fill-rule:nonzero;stroke:none;stroke-width:1;stroke-linecap:round;stroke-linejoin:round;stroke-miterlimit:4;stroke-dasharray:none;stroke-dashoffset:0;stroke-opacity:1"
               id="rect10262"
               width="3.8895464"
               height="3.8895464"
               x="560.7771"
               y="408.07123" />
            <rect
               y="408.07123"
               x="567.11377"
               height="3.8895464"
               width="3.8895464"
               id="rect10264"
               style="opacity:1;fill:#3c6eb4;fill-opacity:1;fill-rule:nonzero;stroke:none;stroke-width:1;stroke-linecap:round;stroke-linejoin:round;stroke-miterlimit:4;stroke-dasharray:none;stroke-dashoffset:0;stroke-opacity:1" />
            <rect
               style="opacity:1;fill:#3c6eb4;fill-opacity:1;fill-rule:nonzero;stroke:none;stroke-width:1;stroke-linecap:round;stroke-linejoin:round;stroke-miterlimit:4;stroke-dasharray:none;stroke-dashoffset:0;stroke-opacity:1"
               id="rect10266"
               width="3.8895464"
               height="3.8895464"
               x="573.45044"
               y="408.07123" />
            <rect
               y="408.07123"
               x="579.78711"
               height="3.8895464"
               width="3.8895464"
               id="rect10268"
               style="opacity:1;fill:#3c6eb4;fill-opacity:1;fill-rule:nonzero;stroke:none;stroke-width:1;stroke-linecap:round;stroke-linejoin:round;stroke-miterlimit:4;stroke-dasharray:none;stroke-dashoffset:0;stroke-opacity:1" />
          </g>
          <rect
             style="opacity:1;fill:#3c6eb4;fill-opacity:1;fill-rule:nonzero;stroke:none;stroke-width:1;stroke-linecap:round;stroke-linejoin:round;stroke-miterlimit:4;stroke-dasharray:none;stroke-dashoffset:0;stroke-opacity:1"
             id="rect10295"
             width="15.990358"
             height="2.7599092"
             x="677.85651"
             y="414.80557" />
        </g>
      </g>
    </g>
  </g>
</svg>
