<?xml version="1.0" encoding="UTF-8" standalone="no"?>
<!-- Generator: Adobe Illustrator 15.1.0, SVG Export Plug-In . SVG Version: 6.00 Build 0)  -->

<svg
   xmlns:dc="http://purl.org/dc/elements/1.1/"
   xmlns:cc="http://creativecommons.org/ns#"
   xmlns:rdf="http://www.w3.org/1999/02/22-rdf-syntax-ns#"
   xmlns:svg="http://www.w3.org/2000/svg"
   xmlns="http://www.w3.org/2000/svg"
   xmlns:xlink="http://www.w3.org/1999/xlink"
   xmlns:sodipodi="http://sodipodi.sourceforge.net/DTD/sodipodi-0.dtd"
   xmlns:inkscape="http://www.inkscape.org/namespaces/inkscape"
   version="1.1"
   id="Layer_1"
   x="0px"
   y="0px"
   width="256"
   height="256"
   viewBox="0 0 256 256.00001"
   enable-background="new 0 0 308 314.667"
   xml:space="preserve"
   inkscape:version="0.48.4 r9939"
   sodipodi:docname="tanked.svg"><metadata
     id="metadata17688"><rdf:RDF><cc:Work
         rdf:about=""><dc:format>image/svg+xml</dc:format><dc:type
           rdf:resource="http://purl.org/dc/dcmitype/StillImage" /></cc:Work></rdf:RDF></metadata><defs
     id="defs17686"><filter
       color-interpolation-filters="sRGB"
       inkscape:collect="always"
       id="filter2620"><feGaussianBlur
         inkscape:collect="always"
         stdDeviation="0.78000015"
         id="feGaussianBlur2622" /></filter><linearGradient
       inkscape:collect="always"
       xlink:href="#linearGradient3336"
       id="linearGradient3342"
       x1="512"
       y1="663"
       x2="512"
       y2="597"
       gradientUnits="userSpaceOnUse" /><linearGradient
       inkscape:collect="always"
       id="linearGradient3336"><stop
         style="stop-color:#d1d3d4;stop-opacity:1;"
         offset="0"
         id="stop3338" /><stop
         style="stop-color:#e7e8e9;stop-opacity:1"
         offset="1"
         id="stop3340" /></linearGradient></defs><sodipodi:namedview
     pagecolor="#ffffff"
     bordercolor="#666666"
     borderopacity="1"
     objecttolerance="10"
     gridtolerance="10"
     guidetolerance="10"
     inkscape:pageopacity="0"
     inkscape:pageshadow="2"
     inkscape:window-width="1366"
     inkscape:window-height="715"
     id="namedview17684"
     showgrid="false"
     inkscape:zoom="0.74999922"
     inkscape:cx="153.62458"
     inkscape:cy="92.944539"
     inkscape:window-x="0"
     inkscape:window-y="27"
     inkscape:window-maximized="1"
     inkscape:current-layer="Layer_1" /><g
     transform="matrix(2.6149499,0,0,2.6149499,-1216.0581,-1520.726)"
     style="display:inline"
     id="flock-2013-attendee"><path
       inkscape:export-ydpi="90"
       inkscape:export-xdpi="90"
       inkscape:export-filename="/home/duffy/Documents/Work/Projects/FedBadges/Badges/flock-2013-attendee.png"
       transform="matrix(1.1104411,0,0,1.1104411,409.00806,491.69489)"
       inkscape:connector-curvature="0"
       d="m 134.00002,125.00183 c 0,-21.53997 -17.46062,-39.00185 -38.999836,-39.00185 -21.529216,0 -38.982968,17.44751 -38.998584,38.97439 l -0.0016,-10e-4 0,30.18098 0.0016,9.9e-4 c 0.01184,4.88773 3.975508,8.84465 8.866181,8.84465 0.01374,0 0.02745,-9.9e-4 0.04187,-9.9e-4 l 0.0024,9.9e-4 30.10304,0 0,0 c 21.533049,-0.009 38.984919,-17.46443 38.984919,-38.99816 z"
       id="path6672"
       style="fill:#db3279;fill-opacity:1;stroke:#58595b;stroke-width:4.50271511;stroke-linejoin:round;stroke-miterlimit:4;stroke-opacity:1;stroke-dasharray:none;filter:url(#filter2620)" /><path
       inkscape:export-ydpi="90"
       inkscape:export-xdpi="90"
       inkscape:export-filename="/home/duffy/Documents/Work/Projects/FedBadges/Badges/flock-2013-attendee.png"
       inkscape:connector-curvature="0"
       id="path6674"
       d="m 514.49997,584.47195 c -25.01149,0 -45.32128,20.24302 -45.49339,45.21577 -2.4e-4,0.0352 1.6e-4,0.0689 0,0.1041 a 2.2211043,2.2211043 0 0 0 -0.0347,0.10411 c -5e-5,0.0235 2e-5,0.0459 0,0.0694 l 0,33.52144 a 2.2211043,2.2211043 0 0 0 0.17351,0.86753 2.2211043,2.2211043 0 0 0 0,0.0347 c 0.47767,5.90938 5.17797,10.55201 11.10441,10.96561 0.0371,0.002 0.0669,0.0325 0.1041,0.0347 a 2.2211043,2.2211043 0 0 0 0.10411,0.0347 2.2211043,2.2211043 0 0 0 0.58992,0.1041 2.2211043,2.2211043 0 0 0 0.0347,0 l 33.41734,0 a 2.2211043,2.2211043 0 0 0 0.0347,0 c 24.90849,-0.01 45.09873,-20.10504 45.42398,-44.93816 a 2.2211043,2.2211043 0 0 0 0.0347,-0.1388 c 2.3e-4,-0.0234 -2e-4,-0.0459 0,-0.0694 a 2.2211043,2.2211043 0 0 0 0.0347,-0.38171 c 0,-25.11907 -20.40974,-45.52809 -45.52808,-45.52809 z"
       style="font-size:xx-small;font-style:normal;font-variant:normal;font-weight:normal;font-stretch:normal;text-indent:0;text-align:start;text-decoration:none;line-height:normal;letter-spacing:normal;word-spacing:normal;text-transform:none;direction:ltr;block-progression:tb;writing-mode:lr-tb;text-anchor:start;baseline-shift:baseline;color:#000000;fill:#ffffff;fill-opacity:1;fill-rule:nonzero;stroke:none;stroke-width:4;marker:none;visibility:visible;display:inline;overflow:visible;enable-background:accumulate;font-family:sans-serif;-inkscape-font-specification:sans-serif" /><path
       inkscape:export-ydpi="90"
       inkscape:export-xdpi="90"
       inkscape:export-filename="/home/duffy/Documents/Work/Projects/FedBadges/Badges/flock-2013-attendee.png"
       style="fill:url(#linearGradient3342);fill-opacity:1;stroke:none"
       id="path6676"
       d="M 546.9996,630.50153 C 546.9996,612.55157 532.44907,598 514.49971,598 c -17.94101,0 -32.48579,14.5396 -32.49881,32.47863 l -9e-4,-8.9e-4 0,25.15082 9e-4,9e-4 c 0.0101,4.07308 3.31294,7.37054 7.38849,7.37054 0.0114,0 0.0229,-8.9e-4 0.0349,-8.9e-4 l 0.002,8.9e-4 25.08587,0 0,0 c 17.94419,-0.007 32.48742,-14.55368 32.48742,-32.49847 z"
       inkscape:connector-curvature="0" /><path
       inkscape:export-ydpi="90"
       inkscape:export-xdpi="90"
       inkscape:export-filename="/home/duffy/Documents/Work/Projects/FedBadges/Badges/flock-2013-attendee.png"
       style="fill:none;stroke:#a07cbc;stroke-width:5;stroke-linejoin:round;stroke-miterlimit:4;stroke-opacity:1;stroke-dasharray:none"
       id="path6678"
       d="m 553.1365,630.50172 c 0,-21.33931 -17.29799,-38.63851 -38.63658,-38.63851 -21.32866,0 -38.61981,17.28496 -38.6353,38.6113 l -9.6e-4,-9.6e-4 0,29.89983 9.6e-4,9.5e-4 c 0.0116,4.84218 3.93849,8.76227 8.7836,8.76227 0.0135,0 0.0272,-9.4e-4 0.0415,-9.4e-4 l 0.003,9.4e-4 29.82262,0 0,0 c 21.33184,-0.009 38.62113,-17.30173 38.62113,-38.63488 z"
       inkscape:connector-curvature="0" /><path
       style="font-size:medium;font-style:normal;font-variant:normal;font-weight:normal;font-stretch:normal;text-indent:0;text-align:start;text-decoration:none;line-height:normal;letter-spacing:normal;word-spacing:normal;text-transform:none;direction:ltr;block-progression:tb;writing-mode:lr-tb;text-anchor:start;baseline-shift:baseline;color:#000000;fill:#ffffff;fill-opacity:1;fill-rule:nonzero;stroke:none;stroke-width:3.80000019;marker:none;visibility:visible;display:inline;overflow:visible;enable-background:accumulate;font-family:Sans;-inkscape-font-specification:Sans"
       d="m 495.29272,610.59544 c -2.4877,0 -4.56834,2.08063 -4.56834,4.56834 l 0,40.23652 c 0,2.48771 2.08064,4.56834 4.56834,4.56834 l 30.18618,0 c 0.1927,0 0.49497,0.0149 0.91367,-0.0703 2.09813,-0.42716 3.65467,-2.32405 3.65467,-4.49806 l 0,-6.5011 6.60652,0 c 2.48771,0 4.56834,-2.08063 4.56834,-4.56834 0,-0.17223 -0.0468,-0.42087 -0.0703,-0.63254 0.0246,-0.1995 0.0703,-0.40763 0.0703,-0.59739 l 0,-20.13584 c 0,-2.4877 -2.08063,-4.56833 -4.56834,-4.56833 l -6.60652,0 0,-3.23298 c 0,-2.48771 -2.08063,-4.56834 -4.56834,-4.56834 -2.48771,0 -0.20841,2.23741 -0.49198,4.7089 l -0.84338,38.90116 -27.51546,-0.56225 -0.84338,-37.91721 c -0.0553,-2.48709 1.99573,-5.1306 -0.49198,-5.1306 z m 0,4.28721 c 0.20396,0 0.28113,0.0771 0.28113,0.28113 l 0,37.81179 0,2.1436 2.14361,0 25.33671,0 2.1436,0 0,-2.1436 0,-37.81179 c 0,-0.20396 0.0771,-0.28113 0.28113,-0.28113 0.20395,0 0.28113,0.0771 0.28113,0.28113 l 0,5.37658 0,2.14361 2.1436,0 8.75013,0 c 0.20395,0 0.28113,0.0771 0.28113,0.28112 l 0,20.13584 c 0,0.0571 3.3e-4,0.0689 0,0.0703 l -0.14057,0.52711 0.14057,0.56226 c -0.0145,-0.0543 0,-0.0425 0,0.0703 0,0.20396 -0.0771,0.28113 -0.28113,0.28113 l -8.75013,0 -2.1436,0 0,2.14361 0,8.6447 c 0,0.18119 -0.091,0.25673 -0.21085,0.28113 0.10188,-0.0207 0.0734,0 -0.0703,0 l -30.18618,0 c -0.20395,0 -0.28113,-0.0771 -0.28113,-0.28113 l 0,-40.23652 c 0,-0.20396 0.0771,-0.28113 0.28113,-0.28113 z m 30.46731,8.36357 0,2.14361 0,16.5163 0,2.1436 2.1436,0 6.3254,0 2.1436,0 0,-2.1436 0,-16.5163 0,-2.14361 -2.1436,0 -6.3254,0 z m 4.28721,4.28721 2.03818,0 0,12.22909 -2.03818,0 z"
       id="rect17367"
       inkscape:connector-curvature="0"
       sodipodi:nodetypes="ssssscscsscssscsssccssssccccccssscccssscccsscccscssssscccccccccccccccccc" /><rect
       style="color:#000000;fill:#555753;fill-opacity:1;fill-rule:nonzero;stroke:none;stroke-width:3.80000019;marker:none;visibility:visible;display:inline;overflow:visible;enable-background:accumulate"
       id="rect13685"
       width="35.051254"
       height="4.8585896"
       x="492.86627"
       y="652.98138"
       rx="2.4292948"
       ry="2.4292948" /><rect
       ry="2.4292948"
       rx="2.4292948"
       y="-527.91754"
       x="612.72754"
       height="4.8585896"
       width="45.11248"
       id="rect14483"
       style="color:#000000;fill:#555753;fill-opacity:1;fill-rule:nonzero;stroke:none;stroke-width:3.80000019;marker:none;visibility:visible;display:inline;overflow:visible;enable-background:accumulate"
       transform="matrix(0,1,-1,0,0,0)" /><rect
       transform="matrix(0,1,-1,0,0,0)"
       style="color:#000000;fill:#555753;fill-opacity:1;fill-rule:nonzero;stroke:none;stroke-width:3.80000019;marker:none;visibility:visible;display:inline;overflow:visible;enable-background:accumulate"
       id="rect14485"
       width="45.11248"
       height="4.8585896"
       x="612.72754"
       y="-497.72488"
       rx="2.4292948"
       ry="2.4292948" /><g
       id="g17030"
       transform="matrix(0,-0.98158334,0.98158334,0,-104.70299,1141.6978)"
       style="fill:#3465a4;fill-opacity:1"><rect
         style="color:#000000;fill:#555753;fill-opacity:1;fill-rule:nonzero;stroke:none;stroke-width:3.80000019;marker:none;visibility:visible;display:inline;overflow:visible;enable-background:accumulate"
         id="rect17024"
         width="25.458893"
         height="4.9497476"
         x="505.48267"
         y="650.9151"
         rx="2.4748738"
         ry="2.4748738" /><rect
         ry="2.4748738"
         rx="2.4748738"
         y="-530.94159"
         x="641.90594"
         height="4.9497476"
         width="13.958893"
         id="rect17026"
         style="color:#000000;fill:#555753;fill-opacity:1;fill-rule:nonzero;stroke:none;stroke-width:3.80000019;marker:none;visibility:visible;display:inline;overflow:visible;enable-background:accumulate"
         transform="matrix(0,1,-1,0,0,0)" /><rect
         transform="matrix(0,1,-1,0,0,0)"
         style="color:#000000;fill:#555753;fill-opacity:1;fill-rule:nonzero;stroke:none;stroke-width:3.80000019;marker:none;visibility:visible;display:inline;overflow:visible;enable-background:accumulate"
         id="rect17028"
         width="13.958893"
         height="4.9497476"
         x="641.90594"
         y="-509.1824"
         rx="2.4748738"
         ry="2.4748738" /></g><rect
       transform="matrix(0,1,-1,0,0,0)"
       style="opacity:0.30801691;color:#000000;fill:#555753;fill-opacity:1;fill-rule:nonzero;stroke:none;stroke-width:3.80000019;marker:none;visibility:visible;display:inline;overflow:visible;enable-background:accumulate"
       id="rect17041"
       width="24.030115"
       height="4.3677979"
       x="626.17493"
       y="-504.86478"
       rx="1.0665166"
       ry="2.1838989" /><path
       inkscape:connector-curvature="0"
       style="color:#000000;fill:#ffffff;fill-opacity:1;fill-rule:nonzero;stroke:#ffffff;stroke-width:5.92843819;stroke-miterlimit:4;stroke-dasharray:none;marker:none;visibility:visible;display:inline;overflow:visible;enable-background:accumulate"
       d="m 513.37385,604.23096 c -1.78028,0 -3.39618,0.71214 -4.57049,1.87113 -1.10556,-0.86881 -2.5032,-1.38035 -4.01835,-1.38035 -2.07634,0 -3.93205,0.96961 -5.12265,2.48464 -2.19719,0.23361 -4.04247,1.56884 -5.03061,3.43555 -2.70939,0.78485 -4.6932,3.26454 -4.6932,6.22692 0,3.59149 0.80302,3.55113 4.39452,3.55113 1.53088,0 5.18711,-1.36926 6.29807,-2.25441 1.11095,0.88515 2.09645,-1.40026 3.62733,-1.40026 1.40294,0 2.57,-0.15967 3.6324,-0.91517 0.97826,0.58893 2.11847,0.38864 3.34352,0.38864 1.07246,0 2.78646,1.12927 3.67825,0.66946 0.99086,0.61074 1.73377,-0.56462 2.98317,-0.56462 1.1467,0 2.3646,-0.16669 3.30004,-0.68765 1.09428,0.83649 -8.77187,-7.67711 -7.28813,-7.67711 3.5915,0 17.74812,12.97228 17.74812,9.38077 0,-2.86109 -1.84988,-5.26503 -4.41712,-6.13489 0,-3.59151 -2.91148,-6.503 -6.50299,-6.503 -1.21022,0 -2.34243,0.34443 -3.31285,0.92024 -1.11095,-0.88515 -2.51815,-1.41102 -4.04903,-1.41102 z"
       id="path17389"
       sodipodi:nodetypes="scsccsscscscscsscscs" /><path
       id="path17064"
       d="m 513.37385,604.23096 c -1.78028,0 -3.39618,0.71214 -4.57049,1.87113 -1.10556,-0.86881 -2.5032,-1.38035 -4.01835,-1.38035 -2.07634,0 -3.93205,0.96961 -5.12265,2.48464 -2.19719,0.23361 -4.04247,1.56884 -5.03061,3.43555 -2.70939,0.78485 -4.6932,3.26454 -4.6932,6.22692 0,3.59149 2.91148,6.50298 6.50299,6.50298 1.53088,0 2.93807,-0.52588 4.04904,-1.41103 1.11095,0.88515 2.51814,1.41103 4.04902,1.41103 1.40294,0 2.71057,-0.4408 3.77296,-1.1963 0.97826,0.58893 2.11847,0.9509 3.34352,0.9509 1.07246,0 2.08365,-0.27637 2.97543,-0.73619 0.99087,0.61075 2.15547,0.98159 3.40486,0.98159 1.1467,0 2.22404,-0.30725 3.15948,-0.82821 1.09428,0.83649 2.47327,1.31901 3.95701,1.31901 3.59151,0 6.50298,-2.91149 6.50298,-6.503 0,-2.86109 -1.84988,-5.26503 -4.41712,-6.13489 0,-3.59151 -2.91148,-6.503 -6.50299,-6.503 -1.21022,0 -2.34243,0.34443 -3.31285,0.92024 -1.11095,-0.88515 -2.51815,-1.41102 -4.04903,-1.41102 z"
       style="color:#000000;fill:#ffffff;fill-opacity:1;fill-rule:nonzero;stroke:#555753;stroke-width:2.10549617;stroke-miterlimit:4;stroke-dasharray:none;marker:none;visibility:visible;display:inline;overflow:visible;enable-background:accumulate"
       inkscape:connector-curvature="0" /><rect
       transform="matrix(0,1,-1,0,0,0)"
       style="opacity:0.30801691;color:#000000;fill:#555753;fill-opacity:1;fill-rule:nonzero;stroke:none;stroke-width:3.80000019;marker:none;visibility:visible;display:inline;overflow:visible;enable-background:accumulate"
       id="rect17068"
       width="24.030115"
       height="4.3677979"
       x="626.17493"
       y="-512.47211"
       rx="1.0665166"
       ry="2.1838989" /><rect
       ry="2.1838989"
       rx="1.0665166"
       y="-520.07935"
       x="626.17493"
       height="4.3677979"
       width="24.030115"
       id="rect17066"
       style="opacity:0.30801691;color:#000000;fill:#555753;fill-opacity:1;fill-rule:nonzero;stroke:none;stroke-width:3.80000019;marker:none;visibility:visible;display:inline;overflow:visible;enable-background:accumulate"
       transform="matrix(0,1,-1,0,0,0)" /><g
       transform="matrix(0.23958136,-0.00421675,0.00421675,0.23958136,478.9684,570.05477)"
       style="display:inline"
       id="g111"><path
         style="fill:#fcaf3e"
         inkscape:connector-curvature="0"
         d="m 120.375,269.445 c -17.732,-7.742 -36.64,-3.631 -38.632,0.931 -2.171,4.972 7.855,21.197 25.588,28.94 13.74,6 27.232,7.121 34.284,3.479 0.167,6.789 5.121,13.729 12.998,17.168 3.028,1.322 6.123,1.982 9.104,2.032 -4.873,-5.076 -6.752,-11.87 -4.221,-17.666 2.531,-5.796 8.792,-9.035 15.826,-8.91 -2.062,-2.153 -4.637,-4.004 -7.665,-5.325 -7.877,-3.439 -16.343,-2.338 -21.44,2.163 -2.122,-7.648 -12.102,-16.812 -25.842,-22.812 z"
         id="path114" /><path
         style="fill:#ce5c00"
         inkscape:connector-curvature="0"
         d="m 163.682,323.994 c -3.251,-0.055 -6.608,-0.775 -9.87,-2.199 l 0,0 c -7.452,-3.266 -12.599,-9.446 -13.888,-16.149 l 0,0 c -2.58,0.838 -5.556,1.227 -8.819,1.231 l 0,0 c -7.204,-0.007 -15.841,-1.919 -24.575,-5.729 l 0,0 c -8.377,-3.661 -15.065,-9.113 -19.705,-14.499 l 0,0 c -4.616,-5.44 -7.298,-10.59 -7.377,-14.661 l 0,0 c 0.002,-0.826 0.126,-1.642 0.459,-2.411 l 0,0 c 1.195,-2.428 3.692,-3.641 7.015,-4.759 l 0,0 c 3.346,-1.052 7.642,-1.704 12.493,-1.708 l 0,0 c 6.621,0.002 14.271,1.234 21.759,4.503 l 0,0 -0.801,1.832 -0.798,1.832 c -6.904,-3.017 -14.032,-4.167 -20.16,-4.165 l 0,0 c -4.482,-0.004 -8.432,0.618 -11.293,1.521 l 0,0 c -2.883,0.833 -4.558,2.254 -4.547,2.543 l 0,0 c -0.057,0.126 -0.126,0.396 -0.126,0.812 l 0,0 c -0.078,2.153 2.115,7.145 6.409,12.053 l 0,0 c 4.268,4.962 10.522,10.061 18.272,13.442 l 0,0 c 8.287,3.623 16.48,5.398 22.975,5.393 l 0,0 c 3.987,0.006 7.319,-0.678 9.593,-1.857 l 0,0 c 0.612,-0.317 1.344,-0.296 1.935,0.057 l 0,0 c 0.593,0.35 0.962,0.982 0.981,1.671 l 0,0 c 0.113,5.836 4.526,12.222 11.799,15.383 l 0,0 c 1.261,0.552 2.531,0.976 3.794,1.28 l 0,0 c -1.818,-2.991 -2.835,-6.3 -2.838,-9.641 l 0,0 c -0.002,-2.115 0.413,-4.236 1.294,-6.239 l 0,0 c 2.284,-5.212 7.102,-8.524 12.719,-9.668 l 0,0 c -1.084,-0.731 -2.261,-1.384 -3.526,-1.936 l 0,0 c -2.891,-1.262 -5.857,-1.855 -8.652,-1.855 l 0,0 c -4.222,0 -8.029,1.351 -10.663,3.686 l 0,0 c -0.516,0.455 -1.235,0.614 -1.893,0.42 l 0,0 c -0.66,-0.197 -1.176,-0.722 -1.358,-1.384 l 0,0 c -1.715,-6.579 -11.311,-15.734 -24.715,-21.515 l 0,0 0.798,-1.832 0.801,-1.832 c 12.658,5.594 22.313,13.575 25.97,21.466 l 0,0 c 3.166,-1.983 7.016,-3.007 11.059,-3.009 l 0,0 c 3.359,0.002 6.862,0.709 10.252,2.19 l 0,0 c 3.277,1.431 6.069,3.435 8.31,5.774 l 0,0 c 0.564,0.589 0.713,1.459 0.379,2.203 l 0,0 c -0.333,0.744 -1.083,1.207 -1.899,1.181 l 0,0 c -0.082,-0.005 -0.187,-0.005 -0.316,-0.005 l 0,0 c -6.283,0.015 -11.518,2.914 -13.602,7.718 l 0,0 c -0.65,1.483 -0.958,3.041 -0.958,4.637 l 0,0 c -0.006,3.686 1.686,7.612 4.788,10.841 l 0,0 c 0.56,0.583 0.715,1.444 0.392,2.185 l 0,0 c -0.321,0.732 -1.04,1.201 -1.836,1.201 l 0,0 c -0.009,-0.002 -0.02,-0.002 -0.031,-0.002 l 0,0 z"
         id="path116" /><g
         id="path3346"
         style="fill:#ffffff"
         transform="matrix(1.4739555,0,0,1.4739555,-46.471241,-130.1648)"><path
           id="path122"
           d="m 100.867,272.557 c 1.146,1.557 0.816,3.746 -0.739,4.896 -1.557,1.147 -3.748,0.815 -4.895,-0.74 -1.147,-1.555 -0.816,-3.746 0.739,-4.894 1.555,-1.149 3.747,-0.818 4.895,0.738 z"
           inkscape:connector-curvature="0"
           style="fill:#ffffff;stroke:#ce5c00" /></g></g></g></svg>